<?xml version="1.0" encoding="utf-8"?>
<!-- Generator: Adobe Illustrator 22.0.1, SVG Export Plug-In . SVG Version: 6.00 Build 0)  -->
<svg version="1.1" id="Layer_1" xmlns="http://www.w3.org/2000/svg" xmlns:xlink="http://www.w3.org/1999/xlink" x="0px" y="0px"
	 viewBox="0 0 207 67.3" style="enable-background:new 0 0 207 67.3;" xml:space="preserve">
<style type="text/css">
	.st0{fill:#DA251D;}
	.st1{fill:#FFFFFF;}
</style>
<g>
	<g>
		<path class="st0" d="M178.3,60.6c0,0-21.6,1.9-39.5,1.7c-12.4-0.2-40.2-0.7-46.8-0.3c-16.8,1.1-58.7,0.7-58.7,0.7l1-54.3
			c0,0,16.6-0.7,39.8-0.5c18.1,0.1,38.2,0.6,52.3,0.5c21.8-0.1,46.1-0.7,46.1-0.7c14.7-0.5,27.8,5.9,30.2,17.2
			c1.7,8.2,0.4,19.2-2.2,25.5C197.5,57.8,189,59.5,178.3,60.6z"/>
		<g>
			<path class="st0" d="M60.9,32.3c0.6,18.1-14.5,30-30.4,30.6S2.9,49.9,3.8,34.3C4.9,18,16.8,9,32.7,8.4
				C48.6,7.8,60.4,16.7,60.9,32.3z"/>
			<g>
				<path class="st1" d="M13.3,26.5C13.3,26.5,13.3,26.5,13.3,26.5c0.2-1,0.8-1.6,1.4-2.2c0.4-0.4,0.7-0.8,1.1-1.2
					c1.2-1.4,3.4-1.7,5.1-0.5c0.8,0.6,1.4,1.4,1.7,2.4c0.4,1.2,0.8,2.4,1.1,3.6c0.4,1.4,0.1,2.7-0.9,3.8c-0.4,0.4-0.8,0.8-1.1,1.2
					c-0.1,0.1-0.1,0.3-0.1,0.4c1.9,5.3,5.5,8.7,11,10.2c0.2,0.1,0.3,0,0.5-0.1c0.4-0.4,0.7-0.8,1.1-1.2c1-1,2.3-1.4,3.7-1.1
					c1.3,0.3,2.6,0.6,4,0.9c2.2,0.6,3.9,3.2,2.7,5.7c-0.1,0.3-0.3,0.5-0.5,0.7c-0.6,0.7-1.3,1.4-1.9,2.1c-0.5,0.5-1.1,0.8-1.8,0.8
					c-6,0.2-11.4-1.4-16.2-4.9c-5.4-3.9-8.8-9.3-10.2-15.8c-0.2-0.8-0.3-1.6-0.4-2.5c0-0.1,0-0.2-0.1-0.2
					C13.3,27.8,13.3,27.1,13.3,26.5z"/>
				<path class="st1" d="M30.8,19.1c0.6,0.1,1.2,0.1,1.7,0.2c3.3,0.5,6.1,1.8,8.6,4c2.7,2.4,4.5,5.5,5.3,9.1c0.1,0.5,0.2,1,0.3,1.5
					c0,0.4,0,0.8,0,1.2c-0.7,0-1.4,0-2.1,0.1c-0.2-4-1.7-7.4-4.6-10.1c-2.9-2.7-6.4-4-10.4-3.9c0-0.7,0-1.4-0.1-2.1
					C30,19.1,30.4,19.1,30.8,19.1z"/>
				<path class="st1" d="M29.9,27.4c0-0.7,0-1.4-0.1-2c5.2-0.4,10.6,4,10.7,9.9c-0.7,0-1.3,0-2,0.1c-0.1-2.3-1-4.2-2.7-5.7
					C34.1,28.1,32.1,27.4,29.9,27.4z"/>
				<path class="st1" d="M32.2,35.6c-0.2-1.3-0.8-1.8-2.1-2c0-0.7,0-1.3-0.1-2c2-0.2,4.2,1.6,4.3,3.9C33.6,35.6,32.9,35.6,32.2,35.6
					z"/>
			</g>
		</g>
	</g>
	<g>
		<g>
			<path class="st1" d="M57.8,31.5L54,33.7l0-2.6l4.4-2.8l2.5,0l0.2,14l-3.1,0L57.8,31.5z"/>
			<path class="st1" d="M66.6,42.1l0-2.2c1.8,0.2,3.2,0.3,3.9,0.3c0.7,0,1.3-0.1,1.6-0.2c0.3-0.1,0.5-0.3,0.6-0.6
				c0.1-0.3,0.2-0.7,0.1-1.3l0-1.3l-2.3,0c-0.8,0-1.3,0-1.7,0c-0.3,0-0.7-0.1-1.2-0.2c-0.4-0.1-0.8-0.3-1-0.5
				c-0.2-0.2-0.4-0.5-0.6-0.9c-0.2-0.4-0.2-0.9-0.3-1.5l0-1.9c0-0.7,0.1-1.2,0.3-1.7c0.2-0.5,0.4-0.9,0.8-1.2
				c0.3-0.2,0.7-0.5,1.1-0.6c0.5-0.2,0.9-0.3,1.4-0.3c0.5,0,1-0.1,1.5-0.1c0.7,0,1.2,0,1.6,0c0.4,0,0.8,0.1,1.3,0.3
				c0.5,0.2,0.9,0.4,1.2,0.6s0.6,0.6,0.8,1.1c0.2,0.5,0.3,1.1,0.3,1.8l0.1,6.5c0,1.4-0.4,2.5-1.3,3.1c-0.9,0.6-2.3,1-4.2,1
				C69.4,42.3,68.1,42.2,66.6,42.1z M72.9,34.7l0-3.3c0-0.5-0.1-0.8-0.1-1c-0.1-0.2-0.2-0.3-0.5-0.4c-0.3-0.1-0.7-0.1-1.4-0.1
				c-0.6,0-1,0-1.3,0.1c-0.3,0.1-0.4,0.2-0.5,0.4c-0.1,0.2-0.1,0.5-0.1,1l0,2.1c0,0.3,0.1,0.6,0.1,0.7c0.1,0.1,0.3,0.3,0.5,0.3
				c0.3,0.1,0.7,0.1,1.3,0.1L72.9,34.7z"/>
			<path class="st1" d="M81.9,42c-0.4,0-0.8-0.1-1.3-0.2c-0.5-0.1-0.9-0.3-1.2-0.6c-0.3-0.3-0.6-0.6-0.8-1.1
				c-0.2-0.5-0.3-1.1-0.3-1.8l-0.1-6.7c0-0.7,0.1-1.2,0.3-1.7s0.4-0.9,0.8-1.2c0.3-0.2,0.6-0.4,1.1-0.6c0.5-0.2,0.9-0.3,1.4-0.3
				c0.5,0,1-0.1,1.5-0.1c0.6,0,1.2,0,1.6,0c0.4,0,0.8,0.1,1.3,0.3c0.5,0.2,0.9,0.4,1.2,0.6s0.6,0.6,0.8,1.1s0.3,1.1,0.3,1.8l0.1,6.7
				c0,0.7-0.1,1.2-0.3,1.7c-0.2,0.5-0.5,0.9-0.8,1.2c-0.3,0.2-0.7,0.5-1.2,0.6c-0.5,0.2-1,0.3-1.4,0.3c-0.4,0-0.9,0.1-1.5,0.1
				C82.9,42.1,82.3,42.1,81.9,42z M84.8,39.9c0.3-0.1,0.4-0.2,0.5-0.4c0.1-0.2,0.1-0.6,0.1-1.1l-0.1-7.1c0-0.5-0.1-0.8-0.1-1.1
				c-0.1-0.2-0.3-0.4-0.5-0.4c-0.3-0.1-0.7-0.1-1.3-0.1c-0.6,0-1.1,0.1-1.3,0.1c-0.3,0.1-0.4,0.2-0.5,0.4c-0.1,0.2-0.1,0.6-0.1,1.1
				l0.1,7.1c0,0.5,0.1,0.8,0.1,1.1c0.1,0.2,0.3,0.4,0.5,0.4c0.3,0.1,0.7,0.1,1.3,0.1C84.1,40,84.5,40,84.8,39.9z"/>
			<path class="st1" d="M94.4,41.9c-0.4,0-0.8-0.1-1.3-0.2c-0.5-0.1-0.9-0.3-1.2-0.6c-0.3-0.3-0.6-0.6-0.8-1.1
				c-0.2-0.5-0.3-1.1-0.3-1.8l-0.1-6.7c0-0.7,0.1-1.2,0.3-1.7c0.2-0.5,0.4-0.9,0.8-1.2c0.3-0.2,0.6-0.5,1.1-0.6s0.9-0.3,1.4-0.3
				c0.5,0,1-0.1,1.5-0.1c0.6,0,1.2,0,1.6,0c0.4,0,0.8,0.1,1.3,0.3c0.5,0.2,0.9,0.4,1.2,0.6c0.3,0.3,0.6,0.6,0.8,1.1
				c0.2,0.5,0.3,1.1,0.3,1.8l0.1,6.7c0,0.7-0.1,1.2-0.3,1.7c-0.2,0.5-0.5,0.9-0.8,1.2c-0.3,0.2-0.7,0.5-1.2,0.6
				c-0.5,0.2-1,0.3-1.4,0.3c-0.4,0-0.9,0.1-1.5,0.1C95.4,41.9,94.8,41.9,94.4,41.9z M97.3,39.7c0.3-0.1,0.4-0.2,0.5-0.4
				c0.1-0.2,0.1-0.6,0.1-1.1l-0.1-7.1c0-0.5-0.1-0.8-0.1-1.1c-0.1-0.2-0.3-0.4-0.5-0.4c-0.3-0.1-0.7-0.1-1.3-0.1
				c-0.6,0-1.1,0.1-1.3,0.1c-0.3,0.1-0.4,0.2-0.5,0.4c-0.1,0.2-0.1,0.6-0.1,1.1l0.1,7.1c0,0.5,0.1,0.8,0.1,1.1
				c0.1,0.2,0.3,0.4,0.5,0.4c0.3,0.1,0.7,0.1,1.3,0.1C96.6,39.9,97,39.8,97.3,39.7z"/>
			<path class="st1" d="M108.5,41.5l0-2.6c1.8,0.3,3.1,0.5,4,0.4c0.8,0,1.4-0.1,1.7-0.3c0.4-0.2,0.5-0.5,0.5-0.9l0-2.1
				c0-0.4-0.1-0.7-0.4-0.8c-0.3-0.2-0.7-0.2-1.3-0.2l-4.3,0.1l-0.1-7.6l8.8-0.1l0,2.4l-5.7,0.1l0,2.8l2.2,0c0.8,0,1.6,0.1,2.4,0.4
				c0.4,0.2,0.8,0.5,1,0.8c0.3,0.4,0.4,0.8,0.4,1.4l0,2.9c0,0.6-0.1,1.1-0.3,1.5c-0.2,0.4-0.5,0.8-0.8,1c-0.3,0.2-0.7,0.4-1.1,0.5
				c-0.5,0.1-0.9,0.2-1.4,0.3c-0.5,0-1,0.1-1.4,0.1C112,41.7,110.5,41.6,108.5,41.5z"/>
			<path class="st1" d="M124.3,41.5c-0.4,0-0.8-0.1-1.3-0.3c-0.5-0.2-0.9-0.4-1.2-0.6s-0.5-0.6-0.7-1.1c-0.2-0.5-0.3-1.1-0.3-1.8
				l-0.1-6.5c0-0.7,0.1-1.3,0.3-1.8c0.2-0.5,0.5-1,0.9-1.2c0.3-0.2,0.7-0.5,1.3-0.6c0.5-0.2,1-0.3,1.5-0.3c0.5,0,1-0.1,1.5-0.1
				c0.6,0,1.9,0,3.9,0.2l0,2.3c-1.9-0.2-3.3-0.3-4.2-0.3c-0.7,0-1.2,0.1-1.5,0.1c-0.3,0.1-0.5,0.2-0.6,0.4c-0.1,0.2-0.1,0.6-0.1,1.1
				l0,1.7l2.3,0c0.8,0,1.3,0,1.7,0c0.3,0,0.7,0.1,1.2,0.2c0.5,0.1,0.8,0.3,1,0.5c0.2,0.2,0.4,0.5,0.6,0.9c0.2,0.4,0.2,0.9,0.3,1.5
				l0,1.9c0,0.7-0.1,1.2-0.3,1.7c-0.2,0.5-0.4,0.9-0.8,1.2c-0.3,0.3-0.7,0.5-1.1,0.6c-0.5,0.2-0.9,0.3-1.4,0.3
				c-0.4,0-0.9,0.1-1.5,0.1C125.3,41.5,124.7,41.5,124.3,41.5z M127.2,39.3c0.3-0.1,0.4-0.2,0.5-0.4c0.1-0.2,0.1-0.6,0.1-1.1l0-2
				c0-0.3-0.1-0.6-0.1-0.7c-0.1-0.1-0.3-0.3-0.5-0.3c-0.3-0.1-0.7-0.1-1.3-0.1l-1.9,0l0,3.2c0,0.5,0.1,0.8,0.1,1.1
				c0.1,0.2,0.3,0.4,0.5,0.4c0.3,0.1,0.7,0.1,1.3,0.1C126.6,39.4,127,39.4,127.2,39.3z"/>
			<path class="st1" d="M138.4,41.1l0-2.6c1.8,0.3,3.1,0.5,4,0.4c0.8,0,1.4-0.1,1.7-0.3c0.4-0.2,0.5-0.5,0.5-0.9l0-2.1
				c0-0.4-0.1-0.7-0.4-0.8c-0.3-0.2-0.7-0.2-1.3-0.2l-4.3,0.1l-0.1-7.6l8.8-0.1l0,2.4l-5.7,0.1l0,2.8l2.2,0c0.8,0,1.6,0.1,2.4,0.4
				c0.4,0.2,0.8,0.5,1,0.8c0.3,0.4,0.4,0.8,0.4,1.4l0,2.9c0,0.6-0.1,1.1-0.3,1.5s-0.5,0.8-0.8,1c-0.3,0.2-0.7,0.4-1.1,0.5
				c-0.5,0.1-0.9,0.2-1.4,0.3c-0.5,0-1,0.1-1.4,0.1C141.9,41.3,140.4,41.2,138.4,41.1z"/>
			<path class="st1" d="M154.3,41.1c-0.4,0-0.8-0.1-1.3-0.3c-0.5-0.2-0.9-0.4-1.2-0.6c-0.3-0.3-0.5-0.6-0.7-1.1
				c-0.2-0.5-0.3-1.1-0.3-1.8l-0.1-6.5c0-0.7,0.1-1.3,0.3-1.8c0.2-0.5,0.5-1,0.9-1.2c0.3-0.2,0.7-0.5,1.3-0.6c0.5-0.2,1-0.3,1.5-0.3
				c0.5,0,1-0.1,1.5-0.1c0.6,0,1.9,0,3.9,0.2l0,2.3c-1.9-0.2-3.3-0.3-4.2-0.3c-0.7,0-1.2,0.1-1.5,0.1c-0.3,0.1-0.5,0.2-0.6,0.4
				c-0.1,0.2-0.1,0.6-0.1,1.1l0,1.7l2.3,0c0.8,0,1.3,0,1.7,0c0.3,0,0.7,0.1,1.2,0.2c0.5,0.1,0.8,0.3,1,0.5c0.2,0.2,0.4,0.5,0.6,0.9
				c0.2,0.4,0.2,0.9,0.3,1.5l0,1.9c0,0.7-0.1,1.2-0.3,1.7c-0.2,0.5-0.4,0.9-0.8,1.2c-0.3,0.3-0.7,0.5-1.1,0.6s-0.9,0.3-1.4,0.3
				c-0.4,0-0.9,0.1-1.5,0.1C155.2,41.1,154.7,41.1,154.3,41.1z M157.2,38.9c0.2-0.1,0.4-0.2,0.5-0.4c0.1-0.2,0.1-0.6,0.1-1.1l0-2
				c0-0.3-0.1-0.6-0.1-0.7c-0.1-0.1-0.3-0.3-0.5-0.3c-0.3-0.1-0.7-0.1-1.3-0.1l-1.9,0l0,3.2c0,0.5,0.1,0.8,0.1,1.1
				c0.1,0.2,0.3,0.4,0.5,0.4c0.3,0.1,0.7,0.1,1.3,0.1C156.5,39,156.9,39,157.2,38.9z"/>
			<path class="st1" d="M172.5,30l-3.8,2.2l0-2.6l4.4-2.8l2.5,0l0.2,14l-3.1,0L172.5,30z"/>
			<path class="st1" d="M180.7,37.4c0-0.8,0.2-1.5,0.6-2c0.4-0.6,1-1,1.7-1.3c0.5-0.3,1.2-0.5,1.9-0.8c0.7-0.3,1.3-0.5,1.7-0.8
				c0.4-0.3,0.6-0.6,0.6-1l0-1.8c0-0.4-0.2-0.7-0.5-0.9c-0.4-0.2-1-0.2-1.8-0.2c-1,0-2.3,0.2-3.9,0.6l0-2.4c1.4-0.3,2.9-0.5,4.5-0.5
				c1.7,0,3,0.2,3.8,0.7s1.3,1.4,1.3,2.6l0,1.9c0,0.7-0.2,1.4-0.6,1.9c-0.4,0.5-1,1-1.7,1.2c-0.6,0.3-1.3,0.5-2,0.8
				c-0.7,0.3-1.3,0.6-1.7,0.9c-0.4,0.3-0.6,0.7-0.6,1.1l0,0.7l6.7-0.1l0,2.3l-9.8,0.1L180.7,37.4z"/>
		</g>
	</g>
</g>
<g>
</g>
<g>
</g>
<g>
</g>
<g>
</g>
<g>
</g>
<g>
</g>
<g>
</g>
<g>
</g>
<g>
</g>
<g>
</g>
<g>
</g>
<g>
</g>
<g>
</g>
<g>
</g>
<g>
</g>
</svg>
