<?xml version="1.0" encoding="utf-8"?>
<!-- Generator: Adobe Illustrator 22.0.1, SVG Export Plug-In . SVG Version: 6.00 Build 0)  -->
<svg version="1.1" id="Layer_1" xmlns="http://www.w3.org/2000/svg" xmlns:xlink="http://www.w3.org/1999/xlink" x="0px" y="0px"
	 viewBox="0 0 936.6 88" style="enable-background:new 0 0 936.6 88;" xml:space="preserve">
<style type="text/css">
	.st0{fill:#2F2F34;}
</style>
<g>
	<g>
		<g>
			<path class="st0" d="M12.7,24.5c-0.1-0.1-0.4-0.3-0.4-0.4c0-0.3-0.1-0.2-0.3-0.4c-0.2-0.1-0.5-1.3-0.5-1.6
				c-0.1-0.1-0.1-0.2-0.1-0.2c-0.1-0.1-0.1-0.3-0.1-0.6s0.1-0.5,0.2-0.7c0.2-0.5,0.2-0.8,1.1-1.7c1-1.2,3.9-3.3,3.9-3.2
				c0.1,0,0.2,0.1,0.2,0.1l0.1,0.1c0,0.4-0.5,1.1-0.8,1.1c-0.2,0.1-0.2,0.5-0.5,0.5c0,0.1,0,0.1-0.1,0.2l-0.3,0.3
				c-0.2,0.1-0.3,0.3-0.6,0.5c-0.2,0-0.5,0.2-0.5,0.5c-0.2,0.4-0.3,0.8-0.3,1.1s0.2,0.8,0.8,1.4c0.2,0,0.3,0.1,0.4,0.2
				c0.1,0.7,0.6,0.2,0.6,1.1c0,0.3-0.7,1.9-1.9,2.1C13.3,24.9,13,24.7,12.7,24.5z M20.4,24.2c-0.2,0.2-0.5,0.3-0.7,0.3
				c-0.1,0-0.2-0.1-0.5-0.2C19,24.3,18.9,24,18.7,24c-0.5,0-0.6-0.4-0.7-0.5c-0.2-0.2-0.8-0.8-0.8-1.9c0-0.3,0-0.5,0.1-0.7
				c0.4-1.5,0.7-1.9,1.2-2.6c0.2-0.5,3.2-2.7,3.7-2.7c0.1,0,0.2,0.1,0.2,0.2c0,0.2-0.4,0.8-0.6,0.8c-0.5,0.3-1.8,1.1-2.2,2.2
				c-0.2,0.2-0.2,0.3-0.2,0.5c0,0.2,0.1,0.4,0.1,0.6c0,0.2,0,0.2-0.1,0.3c0,0.1,0,0.2,0.1,0.2c0.1,0.2,0.2,0.3,0.5,0.3
				c0.5,0.2,1.3,1.2,1.5,1.8v0.3c0,0.4-0.1,0.8-0.8,1.1C20.6,24,20.5,24.2,20.4,24.2z"/>
			<path class="st0" d="M56.2,44.7c-0.2,0-0.5,0.4-0.8,1.1c-0.2,0.3-0.6,0.5-0.8,0.8s-1.3,1.8-3,3.3c-0.2,0.2-0.6,0.7-0.8,0.8
				c-0.2,0.2-1.8,1.8-3.9,2.4c-1.1,0.8-2.7,1-3.9,1c-0.9,0-1.5,0-1.7-0.1c-0.2-0.1-0.4-0.1-0.6-0.2c-2.4-0.5-3.5-2.9-5-7.2
				c-0.2-0.7-0.9-1-2-1c-1.4,0.2-1.6,0.6-2.2,0.8s-0.7,0.5-0.9,0.7c-2,1.8-2.7,3-3.4,3.8l-0.3,0.2v0.3c0,0.1,0,0.2-0.1,0.2
				c-0.2,0.2-0.2,0.3-0.2,0.5c0,0.2,0.1,0.2,0.1,0.4c0,0.2-0.1,0.3-0.2,0.4c-0.4,0.5-1.4,1.4-2,1.4c-0.4,0-0.9-0.5-1.5-1
				c-0.2-0.2-0.4-0.2-0.4-0.5c0-0.4,0.3-0.8,0.3-0.8c0-0.2,0.1-0.1,0.1-0.3c0-0.2,0.1-0.4,0.2-0.5c0.2-0.1,0.2-0.2,0.5-0.5
				c1.2-0.8,2.3-2.8,2.4-3c0.1-0.2,0.2-0.6,0.2-0.5c1.1-1.6,2.1-3.2,3.6-5.5l0.5-0.8l0.2-0.2c0-0.1,0.1-0.2,0.1-0.2
				c0.6-1,1.7-2.7,1.8-3.1c0.1-0.2,0.3-0.3,0.3-0.4v-0.2c0-0.1,0-0.1,0.1-0.1l2.7-4.4c-0.1,0,0.5-0.9,1-1.6h-1.3
				C33.8,30.9,32.9,31,32,31c-0.4,0-0.8,0.3-1.3,0.3c-0.2,0-0.4,0-0.5-0.1c-0.2,0-0.4-0.1-0.4-0.2v-0.2c0-0.1-0.1-0.2-0.2-0.2
				c-0.2,0-0.2-0.1-0.2-0.2c0-0.5,0.6-0.8,1.4-0.9l5.5,0.2c1.8-2.8,1.6-3.1,1.8-3.1c0.2,0,0.2-0.1,0.2-0.2v-0.2
				c0.2-0.4,0.4-0.3,0.4-0.8l0.2-0.3c0-0.1,0.2-0.3,0.5-0.7l2.2-3.5c1.1-1.6,1.7-2.7,2.3-3.9c0.2-0.6,0.8-1.1,1.1-1.6
				c0-0.3,0.2-0.5,0.5-0.8l1.2-2.2c0.2-0.7,0.5-1.2,0.5-1.3c0-0.6,0.2-0.2,0.8-1.1c0.1-0.8,0.8-1.1,1-1.1c0.7,0,0.4,0.2,0.6,0.2
				c0.3,0-0.1,0.4,0.5,0.5c0.1,0,0.4,0.1,0.6,0.1c0.5,0,1.2-0.2,1.6-0.2c0.2-0.1,0.4-0.1,0.6-0.1c0.3,0,0.5,0.1,1.1,0.1
				c0.1,0,0.2-0.1,0.5-0.1c1.2,0,2.7,0.9,3.6,1.6c0.5,0.3,0.5,0.7,1.1,1.2c0.3,0.3,0.6,0.5,0.9,1.1c0.1,0.2,0.6,0.4,1,1.6
				c0.2,1.1,1.2,4,1.2,5v1.4l0.2,0.8c0.1,1,0.1,1.8,0.1,2.7c0,2.1-0.2,3.6-0.4,4.6c-0.1,0.5-0.2,1.1-0.3,1.4
				c-0.1,0.1-0.1,0.3-0.1,0.5L61.8,32c0,0.2-0.1,0.5-0.2,0.5c-0.1,0.1-0.1,0.2-0.1,0.3c0,0.2-0.1,0.3-0.1,0.4v0.1
				c-0.2,0.2-0.1,0.7-0.3,1.4c-0.2,0.4,0,0.5-0.3,1.1c0,0.1-0.2,0.3-0.2,0.4c0,0.1-0.1,0.2-0.1,0.3c-0.5,1.4-0.7,2.2-1.2,2.8
				c-0.2,0.3-0.2,0.6-0.4,0.8C57.6,42.5,56.4,44.4,56.2,44.7z M54.2,42.7c1.2-1.9,2.7-4.8,4.3-9.3l0.2-0.5c0.1-0.2,0.1-0.5,0.2-0.6
				c0.7-2.2,1.1-4.4,1.1-7.1c0-0.3,0.1-0.6,0.1-0.7v-1.2c-0.1-0.4-0.1-0.6-0.1-0.8v-0.2c0-0.1,0-0.1,0.1-0.1
				c-0.1-0.1-0.1-0.1-0.1-0.2c-0.1-0.1-0.1-0.2-0.1-0.4v-1c-0.1-0.2-0.1-0.3-0.1-0.5v-0.2l-0.5-2.8c-0.1-0.3-0.5-1-0.5-1.2
				c0-0.2-0.2-0.6-0.4-0.8c-0.3-0.2-0.8-2-1-2.3c-0.4-0.5-0.8-0.9-1.2-1.3c-0.2-0.2-0.5-0.4-0.7-0.5l-1.4-0.5
				c-0.2,0-0.3-0.1-0.5-0.1H53c-0.8,0-2,0.2-2.9,1.4l-1.5,2.7c-0.1,0.1-0.1,0.2-0.1,0.3c-0.2,0.6-0.8,1.1-0.8,1.4
				c-0.2,0.6-0.5,0.6-0.7,1.1c-0.2,0.4-0.4,0.6-0.8,1.2l-0.4,0.8l-0.1,0.2c-1.6,2.8-1.6,2.3-6.2,10.2h1.7c0.5,0,1,0.1,1.5-0.2
				c0.2-0.1,0.5-0.1,0.9-0.1h0.9c0.2,0,0.2,0.1,0.2,0.2c0,0.1-0.1,0.2-0.2,0.3c-0.2,0.2-0.5,1.1-1.1,1.1c-0.2,0-0.2,0-0.3-0.1
				c-0.1-0.1-0.2-0.1-0.3-0.1c-0.3,0-0.8,0.2-0.8,0.2c-0.4-0.1-0.5-0.5-0.8-0.5c-1.1,0-1.7,0.1-2.4,0.1c-0.2,0.4-0.4,0.4-0.9,1.4
				L35.4,37l-0.3,0.5c-0.2,0.2-0.2,0.5-0.5,0.6c-0.3,0.2-2.6,3.9-4,6.1c-0.1,0.2-0.2,0.5-0.5,0.8c-0.2,0.2-0.3,0.3-0.4,0.5
				c-0.8,1.1-1.4,1.9-1.7,2.3c-0.2,0.2-0.3,0.5-0.4,0.5c0.8-0.8,1.9-2,3.4-3.2c1.3-0.9,2.6-1.5,4.1-1.5c0.8,0,1.1,0.2,1.4,0.5h0.3
				c0.2,0,0.4,0.1,0.4,0.2c0.1,0.2,0.5,0.4,0.5,0.6c0,0.2,0.1,0.3,0.2,0.4c1.8,1.2,0.5,7.6,5.3,8.2c1.1,0,2.4-1.1,2.7-1.2
				c0.1-0.2,0.5-0.4,0.7-0.6c0.5-0.6,0.8-0.8,1.1-1c1.4-1.1,1.3-1.5,1.9-2.1c0.6-0.6,1.3-1.1,1.7-2.1c0.2-0.5,0.8-0.2,0.8-0.9
				C52.8,44.7,53.5,43.8,54.2,42.7z"/>
			<path class="st0" d="M61.2,43.8c0.4-0.4,0.6-0.7,0.7-0.8l0.5-0.5c0-0.6,3.1-2.7,3.1-2.9c0-0.2,0.2-0.3,0.5-0.4
				c0.2,0,0.5-0.5,0.9-0.7c0.4-0.2,0.8-0.2,0.8-0.5c0.3-0.7,1.1-0.9,1.3-1.1c0.9-0.5,1.7-1.4,2.7-1.4c0.2,0,0.2,0.1,0.5,0.1
				c0.1,0,0.1,0,0.2-0.1c0.1,0,0.2-0.1,0.3-0.1c0.4,0,1.9,0.7,2.1,0.7c0-0.1,0,0.3,0.2,0.3c0.8,0.1,1.9,1.4,1.9,2
				c-0.1,0.2-0.1,0.4-0.3,0.6l-0.2,0.5c0.2,0,0.3,0,0.5,0.1c0.3,0.1,0.5,0.2,0.5,0.4c-0.4,0.8-0.8,1.4-1.1,2c-0.5,1.1-1.1,2-1.4,2.3
				c-0.2,0.2-0.2,0.5-0.7,0.8c-0.1,0.1-0.1,0.2-0.2,0.2c-0.1,0.1-0.1,0.2-0.1,0.4c0,1.1-1.9,3.2-1.9,4.6c-0.1,0.2-0.1,0.3-0.1,0.5
				c0,0.4,0.2,1.1,0.8,1.1c1.2,0,3.7-2.7,3.9-2.7c0.6-0.2,2.4-2.6,3-2.6c0.2,0,0.2,0.1,0.2,0.3c0,0.2-0.3,0.5-0.5,0.7l-3.3,3.4
				c-0.2,0.2-0.4,0.3-0.7,0.4c-0.2,0-1.8,2-4.5,2h-0.3c-0.7,0-1.1-0.2-1.3-0.8c-0.2-0.3-0.3-0.4-0.3-0.6v-0.4c0-0.6,0.4-1.6,0.8-2.4
				c0.2-0.5,0.5-1,0.8-1.4c-0.9,0.8-1.7,1.6-2.6,2.3c-1.4,1.1-2.7,2.3-3.3,2.3c-0.2,0.1-0.1,0.1-0.3,0.3c-1.3,0.7-2.4,1.1-3.2,1.1
				c-1.6,0-2.4-1-2.4-3c0-0.2,0.1-0.5,0.1-0.8v-0.5c0-0.9,0.3-1.7,0.6-2.4c0.1-0.2,0.2-0.5,0.4-0.7l0.2-0.5L59,47
				c-0.5,0.4-0.8,0.5-0.9,0.5c-0.1,0-0.2-0.1-0.2-0.2c0-0.2,0.2-0.5,0.3-0.5c1.5-1.6,2.4-2.4,2.7-2.7L61.2,43.8z M68.5,44.7
				c0-0.2,0.1-0.3,0.2-0.3c0.6,0,2.7-1.7,2.7-1.8c0.1,0,0.2-0.3,0.5-0.3c0.3,0,0.4-0.5,0.7-0.7c0.4-0.3,0.6-0.6,0.6-0.9
				s0.2-0.2,0.4-0.4c0.1-0.2,0.2-0.5,0.2-0.8c0-0.5-0.5-1.1-1.3-1.1c-0.2,0-0.2-0.1-0.5-0.1s-0.3-0.1-0.4-0.1c-0.1,0-0.5,0-0.8-0.2
				c-0.2,0-1.8,0-1.9,0.5c0,0.2-4.9,2.1-7.1,10.5v0.4c0,0.2-0.2,0.5-0.3,0.6c0,0.1,0.2,0.2,0.2,0.4v0.4c0,0.2,0.1,0.7,0.2,0.8
				c0.2,0.3,0.1,0.5,0.9,0.5h0.4c0.4,0,0.8,0,1.6-0.5c0.6-0.4,1.4-1,1.7-1.2c1-0.8,1.7-1.9,1.9-1.8c0.1,0.1,0.5-0.5,0.7-0.7
				c0.6-0.4,2.2-1.9,3-3.3c0.3-0.5,0.6-1.1,1-1.6l0.5-0.7c-0.2,0.2-0.3,0.3-0.5,0.4c-0.3,0.2-0.5,0.3-0.6,0.3
				c-0.1-0.1-2.7,2.1-3.7,2C68.5,44.9,68.5,44.7,68.5,44.7z M67.1,45.7c-0.1,0-0.2-0.1-0.2-0.2c0-0.2,0.1-0.2,0.3-0.2
				C67.2,45.6,67.2,45.7,67.1,45.7z M67.6,45.3c0-0.2,0.1-0.4,0.3-0.5c0.2,0,0.3,0.3,0.3,0.4c0.1,0.1-0.2,0.3-0.5,0.3
				C67.7,45.5,67.6,45.4,67.6,45.3z M73.5,29.6v0.3c0.2,0.2,0.3,0.5,0.4,0.6c0.4,0.5,0.5,1.1,1.7,1.1c0.5,0,1-0.1,1.5-0.3
				c0.2-0.1,0.4-0.2,0.5-0.2c0.5-0.4,1.6-1,3-2.7c0.1-0.1,0.2-0.1,0.3-0.1h0.4c0.2,0,0.4,0.1,0.5,0.2c0.2,0.2-3.4,3.6-4.3,3.6
				c-0.2,0.1-0.2,0.3-0.5,0.4c-1.3,0.7-2.3,1.1-3,1.1c-1.5,0-2.4-1.1-3.3-3.2l-0.3-0.8c-0.2-0.4-0.3-0.6-0.3-0.7
				c-0.1-0.1-0.1-0.2,0-0.2c0-0.2,0.2-0.2,0.5-0.2h1c0.5,0,1.4-0.1,1.4,0.2C73.1,28.9,73.5,29.4,73.5,29.6z M78.9,25.8
				c0.2,0.1-0.5,0.9-0.5,1c0,0.3-0.5,0-1.1,0.1c-1.2,0.4-0.5,0.4-1.1,0.1c0.1-0.3,0.4-0.8,0.6-0.8c1.1-1.5,4.3-2.8,4.3-3
				c0.1-0.1,0.3-0.2,0.4-0.3l0.2-0.2c0.7-1.1,0.7-2,0.7-2.5L82.1,20c0.1-0.1,0.1-0.2,0.1-0.4c-0.1-0.1-0.1-0.1-0.2-0.1l-0.3-0.4
				c-0.2-0.5-0.5-0.8-1-0.8c-0.4,0.1-0.5,0.1-0.5-0.1L80,18.5c-0.2-0.1-0.3,0-0.4,0.1c-0.2,0.2-0.5,0.3-0.8,0.9
				c-0.2,0.2-0.2,0.6-0.2,1.1c0.2,0.8,0.5,1.6,1.1,1.4L79.7,22c0.6-0.2,0.8-0.6,0.6-1.3l0.2-0.2c0.1,0,0.1,0,0.1,0.1
				c0,0.1,0,0.2,0.1,0.4c0.1,0.5-0.2,0.8-0.2,0.9c0.1,0.2-0.5,0.8-1.2,0.8c-0.5,0.1-1.1-0.2-1.5-1v-0.2c-0.1,0-0.1-0.1,0-0.2
				c-0.1-0.1-0.5-0.4-0.5-0.5v-0.2v-0.2c0-0.1,0-0.1,0.1-0.2c0.1-0.6,0.4-1.1,0.6-1.4c0.2-0.2,0.3-0.4,0.5-0.6
				c0.2-0.5,1.4-0.8,1.5-0.7c0.4-0.2,0.5,0.1,0.8-0.2c0.5,0,0.5,0.2,0.6,0.2c1.1-0.2,2.4,1.4,2.6,2.7C84,21,84,22,83.5,22.7
				c-0.1,0.2-0.2,0.2-0.3,0.4c-0.1,0.1-0.1,0.2-0.2,0.2c-0.1,0,0,0.2-0.2,0.3c0,0.4-1.9,1.1-2.9,1.7L78.9,25.8z"/>
			<path class="st0" d="M88.2,37.4c0.2-0.2,0.6-0.5,0.6-0.8c0-0.3,0.5-0.7,1-0.9c0.1-0.1,0.2-0.1,0.4-0.1c0.5,0,0.8,0.6,1.5,0.8
				c0.2,0,0.4,0.2,0.4,0.4c0,0.1-0.1,0.2-0.1,0.2c-0.8,2-2.4,4.6-3.4,5.8c-0.1,0.1-0.1,0.2-0.1,0.3c-0.2,0.4-1.5,2.7-1.5,2.8
				l-0.3,0.5c-1.9,3.1-3.1,5.8-3.1,6.3c0.2,0,0.8-0.5,1.4-1.2l1.9-2c2-2.4,3-3.5,3.6-4c0.4-0.3,0.6-0.5,0.7-0.5c0-0.1,0-0.2,0.1-0.3
				c0.1-0.2,0.2-0.3,0.4-0.3c0.3,0,2.4-2.2,2.8-2.6c1-0.6,0.8-1.6,2.3-2c0.1,0,0.2-0.1,0.2-0.2c0.2-0.6,1-0.7,1.5-0.7
				c0.1,0,0.2,0,0.2,0.1c0.2,0.2,0.2,0.4,0.4,0.5c0.4,0.1,1,0.4,1,0.6v0.4c0,1-0.7,1.5-0.7,2c0,0.8-1,1.4-1,2.2c0,0.2,0,0.2-0.1,0.3
				l-0.5,0.9c-0.1,0.1-0.1,0.2-0.1,0.2v0.3c-0.4,0.9-0.6,2.4-0.6,3.5c0,1,0.1,1.5,0.8,1.5c0.5,0,1.1-0.2,2.4-1.6
				c0.1-0.1,0.5-0.6,0.8-0.7c1-0.6,2-1.6,2.6-2.1c0.1-0.1,0.2-0.2,0.4-0.2c0.1,0,0.2,0.1,0.2,0.2v0.2c-0.2,0.4-0.9,1.1-1,1.1
				c-0.5,0-1.4,1.7-1.9,1.8c-0.4,0.2-0.8,0.5-1.1,0.8c-0.2,0.2-0.4,0.4-0.5,0.6c-0.1,0-0.2,0-0.2,0.1c-0.1,0.1-0.2,0.2-0.4,0.5
				c0,0-0.2,0.1-0.4,0.2c-0.2,0.1-0.3,0.1-0.4,0.2c-0.2,0.2-0.3,0.3-0.5,0.4c-0.3,0.2-0.6,0.3-0.8,0.3c-0.1,0-0.2,0-0.2-0.1
				c-0.1-0.1-0.2-0.1-0.2-0.1c-0.2,0-0.2,0.1-0.6,0.1l-0.2-0.2c-0.1-0.1-0.2-0.1-0.3-0.2c-0.3,0-1.2-1.1-1.2-3.3
				c0-0.8,0.2-1.8,0.5-3c0.2-0.5,0.5-1.4,0.8-2.1c0.4-0.8,0.6-1.5,0.7-1.7c0-0.1,0.1-0.2,0.1-0.5v-0.2c-1.1,0.8-2,1.7-3,2.5
				c-1.6,1.4-3.5,3.2-4.6,4.5c-1.1,1.2-1.7,1.4-2.5,2.4c-0.8,1.1-2.6,2.9-4.5,2.9h-0.3c-0.1-0.2-1.4-0.4-1.4-1.2
				c0-0.2,0.1-0.5,0.3-0.8c0.3-0.5,0.5-1.2,0.7-1.4c0.3-0.2,0.5-1.1,0.7-1.3c0.2-0.2,0.4-0.2,0.4-0.4c1.6-3.4,2.2-3.6,2.4-3.9l3-5.6
				c0-0.2-3.2,3.9-4.7,4.9c-0.2,0.1-0.5,1.1-1.1,1.3c-0.6,0.4-1.1,1-1.7,1.6c-0.1,0.1-0.2,0.4-0.5,0.4c-0.2,0-0.2-0.2-0.2-0.4
				c0.8-1.1,2-2,3.3-3.7c0.1-0.1,0.3,0,0.4-0.2c0.3-0.6,1.5-1.6,1.5-1.7c0-0.2,0.3-0.2,0.4-0.5C85,40.6,87.2,38.5,88.2,37.4z"/>
			<path class="st0" d="M105.9,44.8c-0.1,0,2.7-2.9,3.3-3.3c1.1-1.3,2.7-2.5,2.8-2.7c0.2-0.3,2.4-1.5,2.4-1.6c0.5-0.8,1.7-1.2,3-1.2
				c0.6,0,1.7,0.2,2.1,0.4c0.1,0.1,0.2,0.2,0.3,0.3c0.2,0.2,0.5,0.4,0.8,0.6c0.3,0.2,0.7,0.6,0.9,1.1l0.2-0.4
				c0.2-0.2,1.6-3.2,1.7-3.3c0.2-0.2,0.7-1.3,1.3-1.3l0.8,0.5c0.5,0.4,0.8,0.8,0.8,1.2c0,0.2-0.1,0.4-0.3,0.6
				c-0.1,0.1-0.1,0.2-0.1,0.4c0,0.2-0.1,0.3-0.2,0.4c-0.5,0.2-0.5,0.2-0.5,0.5c-0.1,0.4-1,1.1-1,1.4c0,0.2,0,0.2-0.1,0.3l-0.2,0.6
				c-0.8,1.2-1.4,2.2-1.8,2.9c-0.2,0.4-0.4,0.8-0.6,1.1c-0.1,0.1-0.1,0.1-0.1,0.2c-0.1,0.1-0.1,0.2-0.2,0.3
				c-0.1,0.3-0.7,0.6-0.7,0.9c-0.2,0.5-1,2-2.9,4.9c-0.1,0.1-1.1,1.7-2.2,3.3c-0.6,1-1.3,2-2.1,3.3c0.8-0.5,1.5-1,2.4-1.5
				c1.4-0.9,3-2.1,4.4-3.3s3.6-3.3,5-4.4c0.1-0.1,0.2-0.1,0.2-0.1c0.2,0,0.2,0.1,0.2,0.2c-0.1,0.3-0.5,0.5-0.5,0.7
				c-0.1,0.3-1,0.5-2.5,2.3c-0.2,0.3-0.4,0.4-0.6,0.6c-0.8,0.8-2.7,2-3,2.4c-1.6,1-4.6,3.3-6.4,4.3c-0.2,0.3-0.3,0.6-0.5,0.8
				c-0.2,0.5-0.6,0.8-0.7,1.1c-0.1,0.2-0.5,0.6-0.8,1.1c-0.2,0.3-0.4,0.6-0.6,1c-0.1,0.2-0.2,0.3-0.2,0.5c-0.2,0.3-0.4,0.6-0.8,1
				c-0.2,0.2,0,0.3-0.2,0.5c-0.5,0.5-0.5,0.9-0.7,1c-0.2,0.2-0.4,0.4-0.5,0.7c-0.1,0.2-0.2,0.4-0.3,0.5c-0.1,0.1-0.2,0.2-0.3,0.4
				c-0.2,0.4-0.7,1.1-1.5,2.3c-0.1,0.2-0.5,0.8-0.7,1.1c-1.1,2.1-3.3,4.9-4.5,6.4c-0.2,0.3-0.5,0.5-0.8,0.8
				c-0.2,0.2-0.3,0.2-0.4,0.3c-0.3,0.5-0.7,0.9-1.1,1.4c-0.7,0.8-1.7,1.9-3,2.8c-0.5,0.4-0.9,0.8-1.3,1.1c-0.6,0.4-1.9,1.1-2.7,1.1
				c-0.3,0-0.5-0.1-0.6-0.2c-0.5-0.4-1.5-0.3-1.5-1.9v-0.4c0-0.5,0.2-0.8,0.2-1.5v-0.2c0-0.1,0-0.1,0.1-0.1c0.2-0.3,0.5-0.8,0.5-1.4
				c0-0.2,0-0.3,0.1-0.4c0.2-0.5,0.5-1.3,1.1-2.1c0-0.3,1-1.7,1.9-2.6c1.2-1.8,4.3-5.4,6.7-7c0.3-0.2,0.8-1,1.4-1.2
				c0.3-0.2,0.5-0.4,0.7-0.5c1-0.9,2-1.2,3.7-2.4c0.2-0.2,0.3-0.2,0.5-0.4c0.2-0.3,0.4-0.2,0.6-0.5l2.7-1.7c0.7-1.1,1.3-2,1.9-3
				c1-1.7,2.2-3.6,2.9-4.7c0.5-0.7,0.7-1.1,0.8-1.3c0,0,0.1-0.2,0.3-0.5c0.1-0.1,0.2-0.2,0.2-0.4c-0.5,0.4-1,0.8-1.5,1.2
				c-0.9,0.7-2,1.5-3.1,2c-1,0.5-1.2,0.8-2.2,1.2c-0.5,0.2-1,0.2-1.3,0.2h-0.5c-0.6,0-2.5-0.8-2.7-2.1c0-0.9,0.2-1.9,0.2-2.2
				c0-0.2-0.1-0.3-0.1-0.4V49c0-0.1,0-0.2,0.1-0.2c0-0.1,0-0.2,0.1-0.3l0.4-0.8c0.2-0.5,0.6-1,0.9-1.5c-0.6,0.5-1.4,1.4-1.7,1.4
				c-0.1,0-0.2-0.1-0.2-0.2c0-0.2,0.2-0.4,0.5-0.7L105.9,44.8z M107.6,61.8c0.4-0.6,0.6-1.1,0.8-1.4c0.1-0.2,0.2-0.4,0.3-0.5
				c-0.8,0.5-1.6,1.1-2.4,1.7c-1.4,1.1-3.3,2.4-5.1,3.9c-0.5,0.5-2.2,2.6-2.5,2.6c-0.4,0.1-0.1,0.1-0.3,0.3
				c-0.5,0.5-3.2,3.5-3.2,4.2c-0.4,0.6-1.8,2.6-2,4.1c-0.1,0.6-0.2,0.4-0.2,0.9c0,0.2-0.2,0.5-0.2,0.7c0,0.8-0.4,1.2-0.4,1.7
				c0,0.8,0.2,1.8,0.5,1.8c0.5,0,3.1-2.5,4.1-3.7c3.6-4.6,4.9-6.5,5.2-7.1c0.1-0.2,0.5-0.7,0.7-0.9c0-0.2,0.2-0.3,0.2-0.5l0.2-0.2
				l1.7-3c0.2-0.2,0.1-0.3,0.3-0.5c0.1-0.1,0.1-0.2,0.2-0.2c0-0.1,0-0.1,0.1-0.2c0-0.1,0.1-0.2,0.2-0.4l0.2-0.2l0.5-0.8L107.6,61.8z
				 M119.5,41.7c0.1-0.2,0.2-0.5,0.3-0.7h-0.2h-0.2c-0.1,0-0.1,0-0.1-0.1c-0.5,0-0.5-1-0.5-1.3c-0.1-0.1-0.1-0.2-0.1-0.3
				c0-0.5,0.3-0.8,0.3-1.4c0-0.3-0.1-1-1.5-1c-0.3,0-0.8,0-1.2,0.2l-0.7,0.3c-1.7,0.8-2.7,2-3.7,3.2l-0.2,0.3
				c-0.7,0.8-1.6,2.7-2.5,3.9c-0.8,1.1-0.9,1.7-1.1,2c-0.9,1.2-1.3,2.6-1.3,3.7c0,0.9,0.2,1.4,0.6,1.6c0.3,0.2,0.9,0.4,1,0.4
				c1.9-0.5,2.6-1.4,3.1-1.7c0.6-0.2,3.4-2.3,4.3-3.3c0.3-0.4,0.2-0.2,0.7-0.8l0.6-0.8c0.3-0.4,0.2-0.3,0.5-0.8
				c0.9-1.2,1.1-2,1.4-2.6C119.2,42.5,119.3,42.1,119.5,41.7z"/>
			<path class="st0" d="M145.7,53.2c-0.5,0.2-0.8,0.3-1,0.3c-0.1,0-0.3,0.1-0.5,0.1c-0.2,0-0.6,0.3-0.8,0.3c-0.3,0-1.1,0.1-1.6,0.1
				h-0.3c-0.2-0.1-0.4,0.1-0.6-0.2c-0.2-0.2-1.9-0.3-2.7-2c-0.1-0.1-0.1-0.2-0.1-0.5c-0.3-0.6-0.5-0.6-0.5-1.4
				c0-0.2-0.1-0.6-0.1-0.9c0-0.2,0.1-0.4,0.2-0.5c0.2-0.1,0.3-1.4,0.9-3.2c-0.3,0.3-1.4,1.7-2,2c-0.1,0.1-0.2,0.1-0.3,0.1
				c-0.1,0-0.2-0.1-0.2-0.2c0-0.2,0.1-0.3,0.3-0.5c0.9-0.9,2-2.4,3.1-3.6l0.4-0.5l0.5-0.5c0.7-0.8,2.4-2.7,3.5-3.2
				c0.1-0.1,0.2-0.2,0.2-0.4c0.2-0.2,0.3-0.4,0.5-0.5c3.2-1.8,4-1.9,4-2c0.2-0.2,0.4-0.3,0.6-0.3c0.1,0,0.2,0.1,0.3,0.1h0.1
				c0.7,0,1.7,0.2,2.8,1.4c0.2,0.2,0.2,0.5,0.6,1.6c0.1,0.2,0.1,0.4,0.1,0.7c0,1.4-0.8,2.9-2.3,2.9c-0.4,0-0.6-0.1-0.8-0.2
				c-0.5-0.2-0.3-0.8-0.5-1c-0.1-0.2-0.2-0.3-0.2-0.4c0.5-0.8,0.2-0.9,0.4-1.2c0.5-0.5,0.7-1.1,0.7-1.5c0-0.2-0.1-0.4-0.2-0.4
				c-0.2,0.1,0.2-0.9-0.8-0.9c-1,0-3.7,1.5-4.3,3c-0.1,0.2-0.1,0.5-0.3,0.5c-0.3,0-4.1,4.7-4.1,9c0,1.2,0.7,3,2.6,3.1l1.3-0.1
				c0.3,0,0.8-0.4,1.1-0.4c2-0.6,2.7-1.4,4.2-2.4l0.4-0.2c1.4-0.8,2.6-2.5,3.3-2.5c0.1,0,0.2,0.1,0.2,0.2c0,0.7-1.9,1.9-2.7,2.7
				c-0.3,0.3-0.8,0.8-1,0.9c-0.2,0-2.7,2-3.3,2C146.2,52.6,146.5,52.9,145.7,53.2z"/>
			<path class="st0" d="M156.1,43.8c0.4-0.4,0.6-0.7,0.7-0.8l0.5-0.5c0-0.6,3.1-2.7,3.1-2.9c0-0.2,0.2-0.3,0.5-0.4
				c0.2,0,0.5-0.5,0.9-0.7c0.4-0.2,0.8-0.2,0.8-0.5c0.3-0.7,1.1-0.9,1.3-1.1c0.9-0.5,1.7-1.4,2.7-1.4c0.2,0,0.2,0.1,0.5,0.1
				c0.1,0,0.1,0,0.2-0.1c0.1,0,0.2-0.1,0.3-0.1c0.4,0,1.9,0.7,2.1,0.7c0-0.1,0,0.3,0.2,0.3c0.8,0.1,1.9,1.4,1.9,2
				c-0.1,0.2-0.1,0.4-0.3,0.6l-0.2,0.5c0.2,0,0.3,0,0.5,0.1c0.3,0.1,0.5,0.2,0.5,0.4c-0.4,0.8-0.8,1.4-1.1,2c-0.5,1.1-1.1,2-1.4,2.3
				c-0.2,0.2-0.2,0.5-0.7,0.8c-0.1,0.1-0.1,0.2-0.2,0.2c-0.1,0.1-0.1,0.2-0.1,0.4c0,1.1-1.9,3.2-1.9,4.6c-0.1,0.2-0.1,0.3-0.1,0.5
				c0,0.4,0.2,1.1,0.8,1.1c1.2,0,3.7-2.7,3.9-2.7c0.6-0.2,2.4-2.6,3-2.6c0.2,0,0.2,0.1,0.2,0.3c0,0.2-0.3,0.5-0.5,0.7l-3.3,3.4
				c-0.2,0.2-0.4,0.3-0.7,0.4c-0.2,0-1.8,2-4.5,2h-0.3c-0.7,0-1.1-0.2-1.3-0.8c-0.2-0.3-0.3-0.4-0.3-0.6v-0.4c0-0.6,0.4-1.6,0.8-2.4
				c0.2-0.5,0.5-1,0.8-1.4c-0.9,0.8-1.7,1.6-2.6,2.3c-1.4,1.1-2.7,2.3-3.3,2.3c-0.2,0.1-0.1,0.1-0.3,0.3c-1.3,0.7-2.4,1.1-3.2,1.1
				c-1.6,0-2.4-1-2.4-3c0-0.2,0.1-0.5,0.1-0.8v-0.5c0-0.9,0.3-1.7,0.6-2.4c0.1-0.2,0.2-0.5,0.4-0.7l0.2-0.5L154,47
				c-0.5,0.4-0.8,0.5-0.9,0.5c-0.1,0-0.2-0.1-0.2-0.2c0-0.2,0.2-0.5,0.3-0.5c1.5-1.6,2.4-2.4,2.7-2.7L156.1,43.8z M163.4,44.7
				c0-0.2,0.1-0.3,0.2-0.3c0.6,0,2.7-1.7,2.7-1.8c0.1,0,0.2-0.3,0.5-0.3c0.3,0,0.4-0.5,0.7-0.7c0.4-0.3,0.6-0.6,0.6-0.9
				s0.2-0.2,0.4-0.4c0.1-0.2,0.2-0.5,0.2-0.8c0-0.5-0.5-1.1-1.3-1.1c-0.2,0-0.2-0.1-0.5-0.1s-0.3-0.1-0.4-0.1c-0.1,0-0.5,0-0.8-0.2
				c-0.2,0-1.8,0-1.9,0.5c0,0.2-4.9,2.1-7.1,10.5v0.4c0,0.2-0.2,0.5-0.3,0.6c0,0.1,0.2,0.2,0.2,0.4v0.4c0,0.2,0.1,0.7,0.2,0.8
				c0.2,0.3,0.1,0.5,0.9,0.5h0.4c0.4,0,0.8,0,1.6-0.5c0.6-0.4,1.4-1,1.7-1.2c1-0.8,1.7-1.9,1.9-1.8c0.1,0.1,0.5-0.5,0.7-0.7
				c0.6-0.4,2.2-1.9,3-3.3c0.3-0.5,0.6-1.1,1-1.6l0.5-0.7c-0.2,0.2-0.3,0.3-0.5,0.4c-0.3,0.2-0.5,0.3-0.6,0.3
				c-0.1-0.1-2.7,2.1-3.7,2C163.5,44.9,163.4,44.7,163.4,44.7z M162.1,45.7c-0.1,0-0.2-0.1-0.2-0.2c0-0.2,0.1-0.2,0.3-0.2
				C162.2,45.6,162.1,45.7,162.1,45.7z M162.6,45.3c0-0.2,0.1-0.4,0.3-0.5c0.2,0,0.3,0.3,0.3,0.4c0.1,0.1-0.2,0.3-0.5,0.3
				C162.7,45.5,162.6,45.4,162.6,45.3z M172.6,29.2c0.3,0.5,0.9,1.5,1.3,1.9c0.2,0,0.2,0.4,0.2,0.6l0.2,0.4c0.2,0.1,0.2,0.4,0.8,0.9
				c0.2,0.2,0.2,0.5,0.2,0.8c0,0.1-0.1,0.2-0.2,0.2l-0.2,0.2c-0.2,0.2-0.2,0.5-0.8,0.5h-0.4c-0.2,0-0.3,0-0.3-0.1
				c-0.2-0.2-0.4-0.2-0.7-0.6c-0.5-0.6-0.3-0.6-0.9-1.5l-0.5-0.8c-0.2-0.2-0.2-0.3-0.4-0.5c-0.3-0.2-0.2-0.3-0.5-0.5l-0.3,0.2
				c-0.2,0.1-0.3,0.2-0.5,0.3c-0.2,0.1-0.6-0.1-1,0.3c-0.5,0.4-1,0.5-1.4,0.7c-0.2,0.1-0.4,0.2-0.6,0.2c-0.3,0.2-0.6,0.6-1.1,0.6
				c-0.4,0.2-0.6,0.4-0.8,0.4h-0.4c-0.1-0.1-0.1-0.2-0.1-0.4c0.2-0.3,0.8-0.4,1-0.6c0-0.2,0.5-0.5,0.8-0.5c0-0.1,0.6-0.5,1.1-0.8
				c0.3-0.2,0.7-0.5,1.1-0.7c0.5-0.3,1-0.7,1.5-1.1c0.2-0.2,0.5-0.4,0.8-0.6l0.4-0.2h0.3c0.2,0,0.3-0.1,0.4-0.1c0.2,0,0.2,0,0.3,0.1
				L172.6,29.2z M178.9,27.2c0.2-0.2,0.5-0.2,0.8-0.2l0.8-0.5c1.5-0.6,0.6-0.8,1.3-0.8c0.2-0.2,0.5-0.5,0.7-0.5
				c0.2,0,0.2-0.2,0.5-0.2c0.6-0.4,1.1-0.6,1.3-0.8c0.2-0.1,0.3-0.2,0.4-0.2c0.6,0.2,1.2,0.2,1.3,1.1l0.1,0.6
				c-0.1,0.4-0.4,0.7-1,0.9l-3.1,0.9c-0.4,0-0.3,0-0.8,0.2c-0.1,0-0.2,0.1-0.3,0.1c-1.5,0.5-1.7,0.8-2.6,1.1
				c-0.6,0.3-1.2,0.2-1.4,0.6c-0.1,0-0.5,0.2-0.5,0.2c-0.3,0-0.5-0.2-0.5-0.8C175.8,28.7,177.7,28,178.9,27.2z"/>
			<path class="st0" d="M175.5,55c-0.2,0.4-0.4,0.8-0.6,1.1c-0.1,0.2-0.2,0.4-0.3,0.6c-0.1,0.2-0.2,0.3-0.2,0.5
				c-0.2,0.3-0.4,0.7-0.5,0.9c-0.2,0.4-0.3,0.7-0.5,1c-0.1,0.2-0.2,0.4-0.2,0.5l-0.7,1.4c-0.2,0.2-1.1,2.5-2.9,5.5l-0.2,0.3
				c-0.7,1.7-1.2,2-1.5,2.7c-0.5,0.8-3.7,5.5-5.8,8c-0.2,0.3-0.5,0.4-0.5,0.6l-0.2,0.2c-0.5,0.7-1.1,1.3-1.6,1.8
				c-0.8,0.9-1.9,1.8-2.5,1.8c-0.1,0-0.2,0-0.2-0.1c-0.5-0.3-0.5-0.8-0.5-1.1v-0.3c-0.2-0.2-0.2-0.5-0.2-0.6c0-1.5,1.7-5.4,2.6-6.6
				c0.2-0.4,0.6-0.8,1-1.3c0.5-0.6,0.9-1.1,1.5-2.2c1.1-1.6,1.8-2,3.3-4.1c0.2-0.2,0.7-1,1.4-1.5c0.8-0.6,4.7-6.1,4.7-6.2
				c0-0.2,3.5-4.6,3.5-5c0.1-0.1,0.2-0.2,0.3-0.2c0-0.2,0.1-0.2,0.1-0.2c0.1-0.1,0.1-0.2,0.1-0.2c0-0.1,0.2-0.5,0.5-0.8
				c0.5-0.7,1.2-1.9,1.3-2.2c0.2-0.5,0.8-0.4,0.8-1.2s0.8-1.3,0.8-1.5c0-0.2,0.4-1.1,1.4-2.4c0.2-0.3,0.9-1.3,1.5-2.3
				c0.4-0.5,0.7-1.2,1.1-1.9c-0.6,0.7-1.3,1.4-1.8,2c-0.3,0.4-0.6,0.7-0.8,1c-0.2,0.4-0.7,0.7-1.2,0.9c-0.4,0.3-1.3,1.7-1.7,1.7
				c-0.3,0-1.5,1.8-2.2,1.8c-0.1,0-0.2-0.1-0.2-0.2c0-0.4,0.8-0.9,0.8-1c1.2-1.2,4.3-4.5,4.4-4.5c0.2-0.2,0.5-0.5,0.7-0.8
				c0.4-0.4,0.8-0.9,1.1-1.2c2.1-2.4,2.4-3.3,2.7-3.5c1.1-0.9,0.7-1.2,1.1-1.6c0.3-0.4,0.3-0.5,0.8-1c0.5-0.5,0.2-0.8,0.6-1.4
				l0.3-0.6c0.2-0.3,0.3-0.7,0.5-0.9c1.1-1.4,1.8-3.2,2-3.4c0.2-0.1,0.7-1.2,1-1.7c0.2-0.3,0.3-0.6,0.5-0.8c0.2-0.5,0.5-1,0.5-1.5
				c0-0.1,0.5-0.8,0.8-1.4c0.1-0.2,0.2-0.2,0.2-0.2c0.2,0,0.3,0.4,0.5,0.6c0.1,0.1,0.2,0.2,0.2,0.2c0.1,0,0.2,0,0.2-0.1
				c0.1,0,0.1,0,0.1-0.1c0.3,0,1.6,0.1,1.6,1.2c0,0.3-0.1,0.6-0.2,1c-0.1,0.2-1.1,0.6-1.1,1.2c-0.1,0.3-0.4,0.5-0.4,0.7
				c0,0.2-0.2,0.5-0.4,0.8c-0.4,0.4-3.4,5.4-4.6,7.4l-0.8,1.4c-0.7,1.3-1.7,2.2-2.2,3c-0.2,0.2-0.4,0.5-0.6,0.8
				c-0.3,0.5-0.7,1-0.8,1.2c-0.1,0.2-0.4,0.6-0.7,1.1c-0.2,0.2-0.5,0.5-0.7,0.9c1.4-1.2,2.1-2.1,3-3l0.8-0.8c1.4-2,3.9-3.2,5.3-3.2
				h0.5c0.1,0,0.2,0,0.3-0.1c0.2,0,0.4,0.2,0.6,0.2c0.2,0.1,0.3,0.2,0.4,0.2c0.2,0.1,0.5,0.4,0.6,0.5c0.4,0.5,1,1.2,1.1,2.5v0.3
				c0,0.5,0.2,1,0.2,1.5c0,1-0.3,2.6-1.3,4.8c-0.2,0.3-0.8,1-0.8,1.3c-0.1,0.2-0.2,0.4-0.5,0.6l-0.4,0.4c-1.4,2.4-2.7,3.3-3.9,4.1
				c0.8-0.2,2.7-0.9,3-1.3c0.5-0.3,0.8-0.5,1.4-0.8c0.1,0,0.5-0.1,1.7-1c0.2-0.2,0.3-0.2,0.4-0.3c0.2-0.1,0.2-0.2,0.2-0.2l0.2-0.2
				c0.2-0.2,0.5-0.2,0.7-0.5c0.2-0.2,0.2-0.2,0.3-0.2c0.7-0.6,1.3-1.1,1.5-1.1c0.2,0,0.2,0.1,0.2,0.2c0,0.5-1.7,1.6-2.6,2.3
				l-0.4,0.3c-0.2,0.3-1.1,0.8-1.3,0.9c-0.7,0.5-1.5,1-2.4,1.4c-1.4,0.8-3.3,1.5-5.4,1.8c-0.1,0-0.9,0.2-1.1,0.2H184
				c-0.4,0-0.3-0.1-0.7-0.1c-0.4,0-0.9-0.2-1.6-0.5c-0.2,0-0.2-0.5-0.4-0.5c-0.7-0.7-1.1-1.3-1.1-1.8c0-0.7,0.1-1.1,0.1-1.4
				c0-0.7,0.6-0.8,0.6-0.8c0.1-0.3,0.2-0.6,0.8-0.6h0.5c0.2,0,0.4,0.1,0.4,0.2c0,0.3,0.4,0.1,0.7,0.6c0.2,0.2,0.2,0.4,0.2,0.6
				c0,0.6-0.2,0.8-0.2,1.1c0,0.5-1,0.9-1,1.5c0,0.2,0.2,0.5,0.4,0.6c0.2,0.1,0.4,0.3,1.1,0.3c0.5,0,1-0.1,1.5-0.5
				c0.7-0.3,0.8-0.7,1-0.8c0.2-0.1,1.1-1.2,1.3-1.4c1.1-1.1,2-2.6,2-2.7c0.1-0.1,0.1-0.2,0.2-0.2c0-0.1,0-0.1,0.1-0.1
				c0.3-0.4,0.6-0.8,0.8-1.3c0.5-0.8,0.9-2,1.1-3.4c0-0.1,0.1-0.2,0.2-0.4v-0.5c0-0.2,0.1-0.3,0.1-1.1c0-0.1-0.1-0.2-0.2-0.5
				c0-0.1-0.1-0.4-0.1-0.5c-0.1-0.2-0.5-0.7-0.5-1.1c-0.1-0.1-0.2-0.2-0.3-0.2c-0.3-0.2-0.6-0.3-0.9-0.3c-0.8,0-2.4,0.3-3.9,2.4
				c-0.1,0.1-0.5,0.6-1.1,1.1c-0.2,0.2-0.3,0.3-0.5,0.6c-0.1,0.1-0.7,0.5-0.9,1c-0.3,0.7-2.7,3.5-7.3,10.5L175.5,55z M170.7,59.8
				c-0.5,0.8-1,1.6-1.5,2.3c-0.8,1.1-1.7,2.4-2,2.6c-0.6,0.5-0.7,1-1.5,2.1c-0.4,0.4-1.8,2.7-2.3,3.2c-0.5,0.5-2.2,3.4-3.6,6.7
				c-0.2,0.3-0.5,2.1-0.5,2.4c0.7,0,2.4-2,3-3c1.1-1.4,1.5-2.4,1.7-2.6c1.5-1.7,2.8-4.4,4.3-7.1c0.2-0.5,0.7-1,0.8-1.5
				c0.1-0.4,0.2-0.5,0.3-0.7c0.2-0.2,0.2-0.6,0.4-0.7c0.2-0.1,0-0.2,0.2-0.5c0.2-0.2,0.2-0.3,0.2-0.5c0.7-1.5,1.4-2.8,1.7-3.8
				c0.2-0.5,0.4-1.1,0.6-1.6L170.7,59.8z"/>
			<path class="st0" d="M212.8,51.9c-0.1,0.2-0.2,0.4-0.2,0.6l1-0.8c1.8-2.8,9.6-9.9,11-11.3l0.2-0.2c0.9-1,2.3-1.9,2.6-2.2
				c0.2-0.2,0.3-0.5,0.5-0.5c0.8-0.1,1.4-1.2,1.9-1.2c0.5,0.2,0.3,0.2,0.5,0.4c0.2,0,1,0.5,1.1,0.7c0,0.2,0,0.4-0.1,0.5
				c0,0.1,0.2,0.4,0.2,0.6c0,0.1-0.1,0.2-0.2,0.3l-0.5,0.7c-0.2,0.4-0.4,0.7-0.4,0.8l-1.3,2.4c0,0.2-0.1,0.3-0.2,0.5
				c-0.1,0.2-0.2,0.3-0.2,0.5c-0.1,0.1-0.1,0.2-0.2,0.2l-0.3,0.5c-0.2,0.3-0.3,0.5-0.3,0.6c0,0.2-0.9,2.1-0.9,2.4
				c-0.2,0.7-0.5,2.1-0.5,2.7c0,0.6,0.2,0.9,0.3,1.4c0,0.1,0.3,0.4,0.6,0.4s0.6-0.1,0.9-0.2c0.5-0.2,0.6-0.3,1.4-1.1
				c0-0.2,1.9-1.6,2-1.6c0.2,0,0.2-0.1,0.2-0.2c0.2-0.4,0.3-0.6,0.5-0.6c0.2,0,0.2,0.2,0.2,0.4c-0.2,0.4-0.8,0.5-0.8,0.8
				c0,0.2-0.9,0.9-1.4,1.4l-0.4,0.2c0,0.2,0,0.2-0.1,0.2c-1.1,0.6-2.4,2.1-4,2.1c-0.5,0-1.3-0.4-1.4-0.4c-0.1,0-0.2-0.1-0.2-0.1
				c-0.1,0-0.3-0.8-0.6-0.8c-0.2-0.1-0.3-0.3-0.3-0.7V50c0-1.8,0.4-3.6,0.9-5.1c0.2-0.1,0.2-0.2,0.2-0.5c0-0.2,0.6-1.6,0.8-1.8
				c0-0.1,0.1-0.1,0.1-0.3l0.8-1.5c0.2-0.5,0.5-0.9,0.8-1.4c-0.4,0.2-0.8,0.5-1.2,0.8c-0.7,0.5-1.7,1.2-2.5,2.4
				c-0.2,0-2.6,2.3-2.7,2.4c-0.8,0.5-3.6,4-3.7,4l-0.6,0.3c-0.1,0.1-0.2,0.1-0.2,0.2c0.1,0.1-3.9,4.9-4.9,4.9
				c-0.1,0-0.2-0.2-0.4-0.2h-0.4c-1.1,0-1.4-1.1-1.4-1.4c0-0.2,0.2-0.2,0.2-0.5c0-1.1,0.6-1.4,0.6-1.7c0.1-0.2,0.3-1,0.5-1.2
				c0.2-0.2,0.3-0.3,0.3-0.4l1.2-2.4c0.1-0.2,0.5-0.2,0.5-0.5c0.1-0.5,0.3-0.8,0.5-1.2c0.2-0.2,0.3-0.4,0.5-0.5c0-0.1,0-0.2,0.1-0.2
				c0.1-0.2,0.2-0.3,0.4-0.7l2.7-4.2l-1.6,1.8l-0.6,0.6c-0.7,0.5-1.6,1.7-1.8,1.9c-0.9,0.8-1.7,1.5-2.2,2l-0.9,0.9l-0.3,0.3
				c-0.2,0.2-0.4,0.4-0.6,0.5c-0.1,0.1-0.2,0.2-0.3,0.2c-0.2,0-0.2-0.1-0.2-0.2c0-0.2,0.1-0.3,0.2-0.5c0,0,2.1-1.8,2.7-2.7l0.5-0.5
				c0.2-0.4,5.2-5,5.6-6.1c0.2-0.5,0.8-0.6,0.8-0.8c0-0.2,0.2-0.5,0.5-0.8c1.4-2,2.2-3.5,4.5-7l0.5-1c0.1-0.2,0-0.2,0.3-0.5
				c0.3-0.3,0.8-0.9,0.8-1.4c0.8-1.6,2-3.3,2.5-4.2c0-0.2,0.2-0.6,0.3-0.7c0.6-0.3,0.8-1.1,1-1.5c2.2-3.4,3.6-5.3,3.6-5.5
				c0-0.1,0.4-0.8,0.7-1c0.2-0.1,1-1.1,1.2-1.3c0.5-0.7,1.1-1.1,1.7-1.8c0.1-0.2,1.4-0.9,2-1.6c0.2-0.2,0.8-0.5,1.1-0.5
				c0.8-0.3,1.1-0.8,2-0.8c0.4,0,0.7,0.3,1.1,0.8v0.3c0,0.2,0,0.3,0.1,0.3c-0.1,0.1-0.1,0.2-0.1,0.2v0.3c0,0.8-0.1,1.7-0.7,3.3
				c-0.2,0.5-0.5,1.1-0.5,1.4c-1.2,2.2-3.6,5.2-4.8,6.4l-3.2,3.4c-0.8,0.8-1.3,1.4-1.8,2l-0.7,0.9v0.2c0,0.1-0.1,0.1-0.2,0.1
				c-0.3,0-0.5,0.5-0.7,0.7c-1,1.1-2.4,2.2-4.5,4.3c-0.3,0.3-1.1,0.8-1.5,1.7l-0.3,0.5c-1.2,1.9-4,6.8-4.3,7.1
				c-0.1,0.1-0.2,0.8-0.5,1c-0.2,0.2-0.9,1.4-1,1.4c-0.1,0.1-0.2,0.4-0.5,0.8c0.1-0.2-0.8,1.5-1.9,3.6c-0.2,0.4-1.4,2.6-1.6,3
				C213,51.3,212.9,51.6,212.8,51.9z M228.9,26.6c0.1-0.2,0.2-0.3,0.5-0.5l0.3-0.3c0.6-0.7,1.2-1.4,1.7-2c0.9-1.1,1.9-2.3,2.4-2.9
				c0.1-0.2,0.3-0.2,0.5-0.4c0.8-1.1,1-0.8,1.1-1.1c0-0.5,1.4-2.2,1.6-2.6c2.4-3,2.8-5.2,2.8-5.5c-0.1,0-0.1,0-0.1-0.1v-0.2
				c0-0.5,0.3-0.8,0.3-1.3c0-0.2-0.1-0.4-0.2-0.4c-1.2,0-6.1,6.2-6.2,6.4c-0.1,0.1-0.5,1-0.7,1.1c-0.2,0.1-0.4,1-0.8,1.2
				c-0.2,0.2-1.1,1.6-1,1.5c0.2-0.2-3.1,5.2-3.6,6c-0.1,0.1-0.3,0.5-0.5,0.8l-0.5,0.8c-0.1,0.2-0.7,1.1-1.3,2
				c-0.4,0.5-0.8,1.2-1.1,1.9c0.9-0.8,1.7-1.6,2.4-2.3L228.9,26.6z M234,46.9c0.2,0,0.2,0.1,0.2,0.3c-0.2,0.4-0.8,0.8-1.1,0.8
				C233.2,47.4,233.9,46.9,234,46.9z"/>
			<path class="st0" d="M234.2,46.6l0.5-0.5l0.6-0.7c1.4-1.4,2.5-2.9,3.4-3.8c0.4-0.4,0.4-0.5,0.6-0.8c0.2-0.4,0.4-0.4,0.4-0.6
				c0-0.1,0-0.2,0.1-0.2c0.7-1.1,1.1-2,1.6-2.8c0.2-0.4,0.3-1,0.3-1.7c0-0.3,0.5-0.4,0.5-0.4c0.2,0.1,1,1.1,1.4,1.4
				c0.5,0.1,0.7,0.5,0.7,1.1c-0.5,1.1-0.9,1.8-1.1,2c-0.5,0.4-1.2,2-2.4,3.7c-0.3,0.5-0.3,0.8-0.8,1.3c-0.2,0.2-0.5,0.8-0.8,1.4
				s-0.8,1.8-1.1,2.4c-0.1,0.1-0.2,0.2-0.2,0.5c0,0.2-0.2,0.5-0.2,0.6c-0.1,0.2-0.3,0.6-0.3,1.2c0,0.2,0.1,0.2,0.1,0.5
				c0,0.2,0.1,0.3,0.2,0.5c0.2,0.4,0.7,0.5,1.2,0.5c1.3,0,2.1-0.7,2.4-0.9c0.3-0.2,0.8-0.7,0.9-0.7c0.4-0.2,0.8-0.6,1.2-0.9
				c2.4-1.8,4.1-4,4.9-4.9c0.2-0.2,0.2-0.5,0.5-0.8s0.3-1.1,1.1-2L251,40c0.3-0.5,0.5-0.9,1.1-1.7c0.1-0.2,0.7-0.6,0.9-0.6
				c0.5,0,1.6,0.2,1.6,0.8c0,0.1-0.1,0.2-0.1,0.4c0,0.1,0,0.2,0.1,0.2c0,0.1-0.1,0.7-0.7,1.3c-0.2,0.2-0.8,1.4-1.4,2
				c0.8-0.2,1.7-0.5,2.3-1.1c0.8-0.2,0.8-0.9,1.3-1.2v-0.4c0-0.2-0.1-0.4-0.2-0.6c-0.5-0.5-0.6-2.1-0.6-2.7l0.3-0.3
				c0.2-0.4,0.5-0.9,1.3-0.9c0.2-0.1,0.3-0.1,0.5-0.2c0.3-0.1,0.6-0.1,0.8,0c0.3,0.1,0.4,0.3,0.5,0.5c0.2,0.1,0.3,0.5,0.5,0.8
				c0.5,0.2,0.4,0.8,0.5,0.8c0.2,0.4,0.4,1.4-0.3,2.6c-0.1,0.2-0.2,0.5-0.5,0.8c-1.4,1.4-2,1.6-2.9,2c-0.5,0.2-2.6,0.7-4.1,0.9
				c-0.1,0.1-0.1,0.1-0.1,0.2c-0.4,0.8-1.2,2.1-2.4,4.3c0,0.3-0.6,1.2-0.7,1.4c-0.1,0.6-0.7,1.4-0.7,2.3c0,0.4,0.1,0.8,0.7,0.8
				c0.2,0,0.5-0.1,0.9-0.3c0.4-0.2,0.8-0.5,1.1-0.7c0.2-0.1,0.4-0.2,0.5-0.3c0.5-0.5,1.3-1,3.1-2.6c0.5-0.5,1.1-1,1.3-1.2
				c0.3-0.2,0.4-0.5,0.6-0.5c0.2,0,0.2,0.1,0.2,0.2c0,0.2-0.1,0.2-0.2,0.3c-0.4,0.6-2.4,2.4-2.9,3c-0.6,0.5-1.1,1-1.4,1.2
				c-0.4,0.2-0.9,0.8-1.5,1.3l-0.8,0.5c-0.5,0.2-0.9,0.5-1.2,0.5c-0.2,0.1-0.4,0.2-0.5,0.2h-0.5c-0.2,0-0.2-0.1-0.5-0.1
				c-0.8,0-0.7-0.5-1.1-0.8c-0.2-0.1,0-0.4-0.2-0.5c-0.2-0.2-0.4-1.1-0.4-1.3c0-0.3,0.2-0.4,0.2-0.9c0.5-1.5,1.3-2.9,1.5-3.1
				c0,0.1-2.6,2.7-3.1,3.1l-0.4,0.3c-0.1,0.1-0.3,0.2-0.5,0.5l-1,0.8c-1.1,0.9-2.9,2-4.3,2h-0.5c-0.5,0-0.7,0-0.7-0.1
				c-0.1-0.2-0.5-0.2-0.5-0.2c-0.2-0.2-0.8-0.3-0.8-0.5c-0.1-0.2-0.5-0.8-0.5-1.1c0-0.1-0.1-0.4-0.1-0.6V51
				c-0.1-0.1-0.2-0.2-0.2-0.4c0-0.2,0.1-0.4,0.2-0.6c0.1-0.3-0.1-0.8,0.2-1.2c0.4-0.8,0.6-1.8,1.1-2.4c0.2-0.2,0.3-0.6,0.5-0.9
				l1-1.4l-2.1,2c-0.5,0.6-1.2,1.3-1.5,1.3c-0.1,0-0.2-0.1-0.2-0.2c0-0.1,0.1-0.2,0.3-0.5L234.2,46.6z"/>
			<path class="st0" d="M275.4,36.5c0.4-0.2,0.7-0.2,1-0.2c0.1,0.1,0.3,0.2,0.5,0.5c0.2,0.2,0.4,0.6,0.6,0.6
				c0.6,0.3,0.6,0.6,0.5,0.8c0.2,0.2,0.8,1.3,0.4,2.7c-0.1,0.3-0.2,0.5-0.3,0.8c-1.1,1.8-1.7,2.1-2.7,2.8c-0.4,0.4-3.2,1.5-4.6,1.9
				c-0.1,0.2-0.2,0.3-0.2,0.4c-0.4,0.6-1.1,1.4-1.6,2c-0.4,0.4-0.7,0.7-1.1,1h0.8c0.4,0,0.7,0,0.8-0.1c0.2-0.1,1.4-0.2,2-0.8
				c1.4-0.7,2.3-1.8,3-2c0.2,0,0.2,0.1,0.2,0.2c0,0.5-1.5,1.5-2.7,2.4c-0.2,0.1-0.3,0.2-0.5,0.3l-0.4,0.1c-0.4,0.1-0.5,0.4-0.8,0.4
				l-1.1,0.3c-0.1,0.1-0.2,0.1-0.2,0.1h-0.7l-0.3,0.1h-0.6c-0.1,0-0.2,0-0.2-0.1l-0.2,0.2c-0.2,0.2-0.4,0.3-0.5,0.3
				c-0.4,0.2-0.9,1.2-2.1,1.7c-0.4,0.2-1.2,1-2.8,1.2c-0.2,0-0.1-0.1-0.3-0.2c-0.1,0-0.8,0.2-1.4,0.2c-0.4-0.1-0.6-0.2-0.8-0.3
				l-0.1-0.1c-0.5-0.2-0.9-0.4-1.3-0.6c-0.6-0.5-1.2-1.3-1.2-2.5v-0.5c0-0.4,0-0.8,0.2-1.3c0.1-0.2,0.2-0.4,0.2-0.6v-0.3
				c0.1,0,0.1-0.1,0.2-0.2c0.1-0.1,0.1-0.2,0.2-0.5c0.1-0.3,0.2-0.6,0.4-1c0.1-0.2,0.2-0.4,0.2-0.5c-0.2,0.1-0.3,0.2-0.5,0.5
				c-0.3,0.3-0.6,0.7-0.9,1c-0.2,0.2-0.4,0.4-0.7,0.4c-0.1,0-0.2-0.1-0.2-0.2c0-0.1,0.2-0.3,0.4-0.5l0.5-0.6c1.4-1.5,3-3.5,4.2-4.8
				l0.2-0.3l0.6-0.8c1.5-1.7,4.4-4.2,6.6-4.6c0.2,0,0.4-0.1,0.6-0.1c0.7,0,1.5,0.2,1.6,0.4c0.2,0.2-0.2,0.5,0.5,0.5
				c0.1,0,0.4,0.5,0.5,0.7c0,0.2,0.6,0.2,0.7,0.6c0.1,0.5,0.2,0.8,0.2,0.9c0,0.3-0.1,0.6-0.1,0.8c0,0.2,0.3,0.6,0.3,1.7
				c0,0.9-0.2,2.2-1.1,4c0.8-0.2,2.1-0.7,2.8-1.8c0.5-0.3,0.4-1.1,0.9-1.6c0.1-0.1,0.1-0.2,0-0.3c-0.1-0.2-0.2-0.4-0.5-0.5
				c-0.5-0.4-1.3-1.9-1.3-2.9l0.2-0.3c0.2-0.5,0.5-0.9,1.4-1.1C275,36.7,275.2,36.5,275.4,36.5z M263.8,40.6
				c-0.2,0.2-0.8,1.1-1.1,1.3c-0.4,0.3-0.7,1.4-0.9,1.5l-0.2,0.2v0.2c-0.4,0.5-0.8,1.1-1.1,1.7c-0.5,1-1,2.4-1,3.5v0.5
				c0,0.7,0.2,1.1,0.4,1.5c0.1,0.2,0.2,0.3,0.4,0.4c0.2,0.2,0.2,0.5,0.4,0.5c0.1,0,0.3,0.2,0.4,0.2c0.2,0,0.8,0,1,0.1
				c0.2,0.1,0.4,0.1,0.6,0.1c1.3,0,2.5-1,3.5-1.8c-0.7-0.2-2-1.1-2.2-1.7c-0.2-0.5-0.7-1.1-0.7-1.7v-0.2c0-0.1-0.1-0.2-0.1-0.2
				c-0.2-0.4-0.2-0.7-0.2-1.1c0-0.3,0.1-0.5,0.1-0.7l-0.1-1.1c0-0.2,0.1-0.3,0.1-0.4c0-0.2,0-0.5,0.2-1.1c0-0.1,0.1-0.2,0.1-0.4
				S263.5,40.9,263.8,40.6z M269.8,45.7c0-0.3,0.4-0.5,0.4-0.8c0-0.1,0.8-1.5,0.8-3.6c-0.1-2-1.1-3.1-1.7-3.3
				c-0.2-0.1-0.4-0.1-0.6-0.1c-2,0-3.9,3.2-4.1,5.5c-0.1,0.1-0.1,0.2-0.1,0.5c-0.1,0.3-0.1,0.7-0.1,1c0,1.1,0.2,2.8,0.8,3.4
				c0.1,0.2,0.2,0.4,0.5,0.5c0.3,0.3,0.8,0.5,1.3,0.7c1.3-1.4,2.4-3.1,2.5-3.2C269.5,46.1,269.8,45.9,269.8,45.7z"/>
			<path class="st0" d="M283.1,37.4c0.2-0.2,0.6-0.5,0.6-0.8c0-0.3,0.5-0.7,1-0.9c0.1-0.1,0.2-0.1,0.4-0.1c0.5,0,0.8,0.6,1.5,0.8
				c0.2,0,0.4,0.2,0.4,0.4c0,0.1-0.1,0.2-0.1,0.2c-0.8,2-2.4,4.6-3.4,5.8c-0.1,0.1-0.1,0.2-0.1,0.3c-0.2,0.4-1.5,2.7-1.5,2.8
				l-0.3,0.5c-1.9,3.1-3.1,5.8-3.1,6.3c0.2,0,0.8-0.5,1.4-1.2l1.9-2c2-2.4,3-3.5,3.6-4c0.4-0.3,0.6-0.5,0.7-0.5c0-0.1,0-0.2,0.1-0.3
				c0.1-0.2,0.2-0.3,0.4-0.3c0.3,0,2.4-2.2,2.8-2.6c1-0.6,0.8-1.6,2.3-2c0.1,0,0.2-0.1,0.2-0.2c0.2-0.6,1-0.7,1.5-0.7
				c0.1,0,0.2,0,0.2,0.1c0.2,0.2,0.2,0.4,0.4,0.5c0.4,0.1,1,0.4,1,0.6v0.4c0,1-0.7,1.5-0.7,2c0,0.8-1,1.4-1,2.2c0,0.2,0,0.2-0.1,0.3
				l-0.5,0.9c-0.1,0.1-0.1,0.2-0.1,0.2v0.3c-0.4,0.9-0.6,2.4-0.6,3.5c0,1,0.1,1.5,0.8,1.5c0.5,0,1.1-0.2,2.4-1.6
				c0.1-0.1,0.5-0.6,0.8-0.7c1-0.6,2-1.6,2.6-2.1c0.1-0.1,0.2-0.2,0.4-0.2c0.1,0,0.2,0.1,0.2,0.2v0.2c-0.2,0.4-0.9,1.1-1,1.1
				c-0.5,0-1.4,1.7-1.9,1.8c-0.4,0.2-0.8,0.5-1.1,0.8c-0.2,0.2-0.4,0.4-0.5,0.6c-0.1,0-0.2,0-0.2,0.1c-0.1,0.1-0.2,0.2-0.4,0.5
				c0,0-0.2,0.1-0.4,0.2c-0.2,0.1-0.3,0.1-0.4,0.2c-0.2,0.2-0.3,0.3-0.5,0.4c-0.3,0.2-0.6,0.3-0.8,0.3c-0.1,0-0.2,0-0.2-0.1
				c-0.1-0.1-0.2-0.1-0.2-0.1c-0.2,0-0.2,0.1-0.6,0.1l-0.2-0.2c-0.1-0.1-0.2-0.1-0.3-0.2c-0.3,0-1.2-1.1-1.2-3.3
				c0-0.8,0.2-1.8,0.5-3c0.2-0.5,0.5-1.4,0.8-2.1c0.4-0.8,0.6-1.5,0.7-1.7c0-0.1,0.1-0.2,0.1-0.5v-0.2c-1.1,0.8-2,1.7-3,2.5
				c-1.6,1.4-3.5,3.2-4.6,4.5c-1.1,1.2-1.7,1.4-2.5,2.4c-0.8,1.1-2.6,2.9-4.5,2.9h-0.3c-0.1-0.2-1.4-0.4-1.4-1.2
				c0-0.2,0.1-0.5,0.3-0.8c0.3-0.5,0.5-1.2,0.7-1.4c0.3-0.2,0.5-1.1,0.7-1.3c0.2-0.2,0.4-0.2,0.4-0.4c1.6-3.4,2.2-3.6,2.4-3.9l3-5.6
				c0-0.2-3.2,3.9-4.7,4.9c-0.2,0.1-0.5,1.1-1.1,1.3c-0.6,0.4-1.1,1-1.7,1.6c-0.1,0.1-0.2,0.4-0.5,0.4c-0.2,0-0.2-0.2-0.2-0.4
				c0.8-1.1,2-2,3.3-3.7c0.1-0.1,0.3,0,0.4-0.2c0.3-0.6,1.5-1.6,1.5-1.7c0-0.2,0.3-0.2,0.4-0.5C279.9,40.6,282.1,38.5,283.1,37.4z"
				/>
			<path class="st0" d="M300.8,44.8c-0.1,0,2.7-2.9,3.3-3.3c1.1-1.3,2.7-2.5,2.8-2.7c0.2-0.3,2.4-1.5,2.4-1.6c0.5-0.8,1.7-1.2,3-1.2
				c0.6,0,1.7,0.2,2.1,0.4c0.1,0.1,0.2,0.2,0.3,0.3c0.2,0.2,0.5,0.4,0.8,0.6c0.3,0.2,0.7,0.6,0.9,1.1l0.2-0.4
				c0.2-0.2,1.6-3.2,1.7-3.3c0.2-0.2,0.7-1.3,1.3-1.3l0.8,0.5c0.5,0.4,0.8,0.8,0.8,1.2c0,0.2-0.1,0.4-0.3,0.6
				c-0.1,0.1-0.1,0.2-0.1,0.4c0,0.2-0.1,0.3-0.2,0.4c-0.5,0.2-0.5,0.2-0.5,0.5c-0.1,0.4-1,1.1-1,1.4c0,0.2,0,0.2-0.1,0.3l-0.2,0.6
				c-0.8,1.2-1.4,2.2-1.8,2.9c-0.2,0.4-0.4,0.8-0.6,1.1c-0.1,0.1-0.1,0.1-0.1,0.2c-0.1,0.1-0.1,0.2-0.2,0.3
				c-0.1,0.3-0.7,0.6-0.7,0.9c-0.2,0.5-1,2-2.9,4.9c-0.1,0.1-1.1,1.7-2.2,3.3c-0.6,1-1.3,2-2.1,3.3c0.8-0.5,1.5-1,2.4-1.5
				c1.4-0.9,3-2.1,4.4-3.3s3.6-3.3,5-4.4c0.1-0.1,0.2-0.1,0.2-0.1c0.2,0,0.2,0.1,0.2,0.2c-0.1,0.3-0.5,0.5-0.5,0.7
				c-0.1,0.3-1,0.5-2.5,2.3c-0.2,0.3-0.4,0.4-0.6,0.6c-0.8,0.8-2.7,2-3,2.4c-1.6,1-4.6,3.3-6.4,4.3c-0.2,0.3-0.3,0.6-0.5,0.8
				c-0.2,0.5-0.6,0.8-0.7,1.1c-0.1,0.2-0.5,0.6-0.8,1.1c-0.2,0.3-0.4,0.6-0.6,1c-0.1,0.2-0.2,0.3-0.2,0.5c-0.2,0.3-0.4,0.6-0.8,1
				c-0.2,0.2,0,0.3-0.2,0.5c-0.5,0.5-0.5,0.9-0.7,1c-0.2,0.2-0.4,0.4-0.5,0.7c-0.1,0.2-0.2,0.4-0.3,0.5c-0.1,0.1-0.2,0.2-0.3,0.4
				c-0.2,0.4-0.7,1.1-1.5,2.3c-0.1,0.2-0.5,0.8-0.7,1.1c-1.1,2.1-3.3,4.9-4.5,6.4c-0.2,0.3-0.5,0.5-0.8,0.8
				c-0.2,0.2-0.3,0.2-0.4,0.3c-0.3,0.5-0.7,0.9-1.1,1.4c-0.7,0.8-1.7,1.9-3,2.8c-0.5,0.4-0.9,0.8-1.3,1.1c-0.6,0.4-1.9,1.1-2.7,1.1
				c-0.3,0-0.5-0.1-0.6-0.2c-0.5-0.4-1.5-0.3-1.5-1.9v-0.4c0-0.5,0.2-0.8,0.2-1.5v-0.2c0-0.1,0-0.1,0.1-0.1c0.2-0.3,0.5-0.8,0.5-1.4
				c0-0.2,0-0.3,0.1-0.4c0.2-0.5,0.5-1.3,1.1-2.1c0-0.3,1-1.7,1.9-2.6c1.2-1.8,4.3-5.4,6.7-7c0.3-0.2,0.8-1,1.4-1.2
				c0.3-0.2,0.5-0.4,0.7-0.5c1-0.9,2-1.2,3.7-2.4c0.2-0.2,0.3-0.2,0.5-0.4c0.2-0.3,0.4-0.2,0.6-0.5l2.7-1.7c0.7-1.1,1.3-2,1.9-3
				c1-1.7,2.2-3.6,2.9-4.7c0.5-0.7,0.7-1.1,0.8-1.3c0,0,0.1-0.2,0.3-0.5c0.1-0.1,0.2-0.2,0.2-0.4c-0.5,0.4-1,0.8-1.5,1.2
				c-0.9,0.7-2,1.5-3.1,2c-1,0.5-1.2,0.8-2.2,1.2c-0.5,0.2-1,0.2-1.3,0.2h-0.5c-0.6,0-2.5-0.8-2.7-2.1c0-0.9,0.2-1.9,0.2-2.2
				c0-0.2-0.1-0.3-0.1-0.4V49c0-0.1,0-0.2,0.1-0.2c0-0.1,0-0.2,0.1-0.3l0.4-0.8c0.2-0.5,0.6-1,0.9-1.5c-0.6,0.5-1.4,1.4-1.7,1.4
				c-0.1,0-0.2-0.1-0.2-0.2c0-0.2,0.2-0.4,0.5-0.7L300.8,44.8z M302.6,61.8c0.4-0.6,0.6-1.1,0.8-1.4c0.1-0.2,0.2-0.4,0.3-0.5
				c-0.8,0.5-1.6,1.1-2.4,1.7c-1.4,1.1-3.3,2.4-5.1,3.9c-0.5,0.5-2.2,2.6-2.5,2.6c-0.4,0.1-0.1,0.1-0.3,0.3
				c-0.5,0.5-3.2,3.5-3.2,4.2c-0.4,0.6-1.8,2.6-2,4.1c-0.1,0.6-0.2,0.4-0.2,0.9c0,0.2-0.2,0.5-0.2,0.7c0,0.8-0.4,1.2-0.4,1.7
				c0,0.8,0.2,1.8,0.5,1.8c0.5,0,3.1-2.5,4.1-3.7c3.6-4.6,4.9-6.5,5.2-7.1c0.1-0.2,0.5-0.7,0.7-0.9c0-0.2,0.2-0.3,0.2-0.5l0.2-0.2
				l1.7-3c0.2-0.2,0.1-0.3,0.3-0.5c0.1-0.1,0.1-0.2,0.2-0.2c0-0.1,0-0.1,0.1-0.2c0-0.1,0.1-0.2,0.2-0.4l0.2-0.2l0.5-0.8L302.6,61.8z
				 M314.5,41.7c0.1-0.2,0.2-0.5,0.3-0.7h-0.2h-0.2c-0.1,0-0.1,0-0.1-0.1c-0.5,0-0.5-1-0.5-1.3c-0.1-0.1-0.1-0.2-0.1-0.3
				c0-0.5,0.3-0.8,0.3-1.4c0-0.3-0.1-1-1.5-1c-0.3,0-0.8,0-1.2,0.2l-0.7,0.3c-1.7,0.8-2.7,2-3.7,3.2l-0.2,0.3
				c-0.7,0.8-1.6,2.7-2.5,3.9c-0.8,1.1-0.9,1.7-1.1,2c-0.9,1.2-1.3,2.6-1.3,3.7c0,0.9,0.2,1.4,0.6,1.6c0.3,0.2,0.9,0.4,1,0.4
				c1.9-0.5,2.6-1.4,3.1-1.7c0.6-0.2,3.4-2.3,4.3-3.3c0.3-0.4,0.2-0.2,0.7-0.8l0.6-0.8c0.3-0.4,0.2-0.3,0.5-0.8
				c0.9-1.2,1.1-2,1.4-2.6C314.1,42.5,314.2,42.1,314.5,41.7z"/>
			<path class="st0" d="M353.9,26.4c0.2,0,0.2,0.2,0.3,0.2l3.2-0.2c0.4,0,0.8-0.2,1-0.2c0.5,0,1-0.1,1.4-0.1h3l1.2,0.2
				c0.2,0,0.3,0.2,0.3,0.4c0,0.3-0.1,0.5-0.2,0.5c-0.5,0.3-0.8,0.3-1.3,0.3c0,0.1-0.2,0.2-0.7,0.2h-1c-0.2,0-0.4,0-0.5-0.1
				c-0.6,0-0.9-0.2-1.3-0.2c-0.2,0-0.4,0-0.5,0.1c-0.1,0-0.2-0.1-0.4-0.1c-0.5,0.2-0.6,0.2-0.7,0.2c-0.5,0-1.3-0.1-2.1-0.1h-4.9
				h-1.1c-0.4,0.6-0.8,1.1-1,1.7c-0.5,0.8-0.9,1.7-1.1,2c0,0.1,0,0.1-0.1,0.2c-0.1,0.1-0.1,0.1-0.1,0.2c0,0.1,0,0.1-0.1,0.1
				c-0.2,0.4-0.3,0.3-0.3,0.4c-0.5,1.5-1.3,2.4-1.4,2.5c-2,3.2-5,7.7-6.6,10.8c0,0.1,0,0.1-0.1,0.1h-0.2c-0.1,0.1-0.1,0.2-0.2,0.2
				c-0.1,0.1-0.1,0.2-0.1,0.4c-0.2,0.7-0.8,1.2-0.9,1.6c-0.2,0.9-1.1,2-1.1,3.3c0,0.2,0.1,0.5,0.1,0.7c0,0.3,0.1,0.5,0.2,0.8
				c0.2,0.2,0.6,0.2,0.9,0.2l0.3,0.1c1.4,0,2-0.6,2.4-0.8c0.1,0,0.5-0.2,0.5-0.3l2-1.5c0.8-0.5,2.3-1.8,2.9-2.4
				c0.3-0.3,0.5-0.5,0.7-0.5c0.2,0,0.2,0.1,0.2,0.2c-0.3,0.6-1.3,1.4-1.4,1.4c-0.2,0.2-0.2,0.2-0.4,0.5c-1.3,0.8-2.7,2.5-3.8,3.1
				c-1,0.5-1.7,1.4-2.2,1.4c-0.1,0-0.2-0.1-0.2-0.1c-0.1,0,0.1,0.1-0.5,0.3l-1.6,0.3l-0.4-0.2c-0.2,0-0.3,0-0.4,0.1
				c-0.3,0-2.2-0.5-2.2-3.1c0-0.8,0.2-1.7,0.8-3c0-0.2,0.1-0.2,0.3-0.2c-0.1,0-0.1-0.1-0.1-0.2l0.3-0.6c0.2-0.3,0.3-0.6,0.5-0.9
				c0.4-0.5,1-1.6,1.5-2.5l0.9-1.6l-1.7,1.8c-0.8,0.9-1.8,1.8-1.9,1.9c-0.3,0.2-1.7,2-2.1,2c-0.2,0-0.2-0.1-0.2-0.2
				c0-0.2,0.1-0.3,0.3-0.5c1.8-1.8,6.2-7,6.8-7.7c0.2-0.4,0.3-0.5,0.5-0.8v-0.2c0-0.1,0.1-0.2,0.2-0.2c0.8-0.5,0.9-1.3,1.1-1.5
				c0.3-0.3,2.1-3.3,2.4-3.3l0.2-0.4c0.2-0.8,0.6-0.5,0.9-1.6c0.2-0.5,0.6-1.1,0.7-1.4c0.1-0.1,0.4-0.8,0.8-1.3
				c0.2-0.3,0.5-0.7,0.7-1.1h-0.5c-0.5,0-1.4,0.1-3.2,0.1c-0.2,0.1-0.4,0.1-0.6,0.1h-0.5c-0.3,0-0.5-0.1-0.8-0.1
				c-0.2,0-0.5,0.1-0.5,0.2c-0.1,0-0.2-0.1-0.2-0.2c0-0.1,0.1-0.3,0.1-0.4c0.1-0.2,0.4,0,0.5-0.2c0.1-0.2,0.2-0.3,0.5-0.3h0.4
				c0.1-0.1,0.2-0.1,0.4-0.1c0.5,0,1,0.2,1.5,0.2c0.2,0,0.4-0.1,0.6-0.2l0.6,0.1h0.8c0.1,0,0.5-0.1,1.1-0.1h0.5
				c0.2-0.4,0.4-0.7,0.6-0.9c0.3-0.5,0.7-1,0.9-1.3c0-0.1,0-0.1,0.1-0.2c0,0,0.1-0.1,0.2-0.3l0.3-0.5l0.9-1.7c0.5-0.8,0.9-1.7,1-2
				c0.6-1.7,2.1-3.2,2.7-4.3c0-0.1,0.2-0.4,0.2-0.6c0-0.1,0.1-0.2,0.2-0.2s1.1-0.5,1.1-1c0.2-0.2,0.5-0.4,0.8-0.4
				c0.4,0,0.9,0.3,0.9,0.6c0,0.1-0.1,0.2-0.2,0.2c-0.3,0.4-0.3,0.8-0.3,1.1c0,0.3,0,0.5-0.1,0.5c-0.2,0.2-0.2,0.2-0.2,0.3
				c0,0.1-0.2,0.8-0.2,1.3c0,0.5-0.8,0.8-0.8,1.1c-0.1,0.5-0.7,0.9-0.7,1.2c0,0.7-0.7,0.8-1.3,1.6l-3.2,5.3l1.6,0.1
				c0.8,0,1.6,0,1.8-0.1C353.8,26.4,353.8,26.4,353.9,26.4z"/>
			<path class="st0" d="M352.2,51.9c-0.1,0.2-0.2,0.4-0.2,0.6l1-0.8c1.8-2.8,9.6-9.9,11-11.3l0.2-0.2c0.9-1,2.3-1.9,2.6-2.2
				c0.2-0.2,0.3-0.5,0.5-0.5c0.8-0.1,1.4-1.2,1.9-1.2c0.5,0.2,0.3,0.2,0.5,0.4c0.2,0,1,0.5,1.1,0.7c0,0.2,0,0.4-0.1,0.5
				c0,0.1,0.2,0.4,0.2,0.6c0,0.1-0.1,0.2-0.2,0.3l-0.5,0.7c-0.2,0.4-0.4,0.7-0.4,0.8l-1.3,2.4c0,0.2-0.1,0.3-0.2,0.5
				c-0.1,0.2-0.2,0.3-0.2,0.5c-0.1,0.1-0.1,0.2-0.2,0.2l-0.3,0.5c-0.2,0.3-0.3,0.5-0.3,0.6c0,0.2-0.9,2.1-0.9,2.4
				c-0.2,0.7-0.5,2.1-0.5,2.7c0,0.6,0.2,0.9,0.3,1.4c0,0.1,0.3,0.4,0.6,0.4s0.6-0.1,0.9-0.2c0.5-0.2,0.6-0.3,1.4-1.1
				c0-0.2,1.9-1.6,2-1.6c0.2,0,0.2-0.1,0.2-0.2c0.2-0.4,0.3-0.6,0.5-0.6c0.2,0,0.2,0.2,0.2,0.4c-0.2,0.4-0.8,0.5-0.8,0.8
				c0,0.2-0.9,0.9-1.4,1.4l-0.4,0.2c0,0.2,0,0.2-0.1,0.2c-1.1,0.6-2.4,2.1-4,2.1c-0.5,0-1.3-0.4-1.4-0.4s-0.2-0.1-0.2-0.1
				s-0.3-0.8-0.6-0.8c-0.2-0.1-0.3-0.3-0.3-0.7V50c0-1.8,0.4-3.6,0.9-5.1c0.2-0.1,0.2-0.2,0.2-0.5c0-0.2,0.6-1.6,0.8-1.8
				c0-0.1,0.1-0.1,0.1-0.3l0.8-1.5c0.2-0.5,0.5-0.9,0.8-1.4c-0.4,0.2-0.8,0.5-1.2,0.8c-0.7,0.5-1.7,1.2-2.5,2.4
				c-0.2,0-2.6,2.3-2.7,2.4c-0.8,0.5-3.6,4-3.7,4l-0.6,0.3c-0.1,0.1-0.2,0.1-0.2,0.2c0.1,0.1-3.9,4.9-4.9,4.9
				c-0.1,0-0.2-0.2-0.4-0.2h-0.4c-1.1,0-1.4-1.1-1.4-1.4c0-0.2,0.2-0.2,0.2-0.5c0-1.1,0.6-1.4,0.6-1.7c0.1-0.2,0.3-1,0.5-1.2
				c0.2-0.2,0.3-0.3,0.3-0.4l1.2-2.4c0.1-0.2,0.5-0.2,0.5-0.5c0.1-0.5,0.3-0.8,0.5-1.2c0.2-0.2,0.3-0.4,0.5-0.5c0-0.1,0-0.2,0.1-0.2
				c0.1-0.2,0.2-0.3,0.4-0.7l2.7-4.2l-1.6,1.8l-0.6,0.6c-0.7,0.5-1.6,1.7-1.8,1.9c-0.9,0.8-1.7,1.5-2.2,2l-0.9,0.9l-0.3,0.3
				c-0.2,0.2-0.4,0.4-0.6,0.5c-0.1,0.1-0.2,0.2-0.3,0.2c-0.2,0-0.2-0.1-0.2-0.2c0-0.2,0.1-0.3,0.2-0.5c0,0,2.1-1.8,2.7-2.7l0.5-0.5
				c0.2-0.4,5.2-5,5.6-6.1c0.2-0.5,0.8-0.6,0.8-0.8c0-0.2,0.2-0.5,0.5-0.8c1.4-2,2.2-3.5,4.5-7l0.5-1c0.1-0.2,0-0.2,0.3-0.5
				c0.3-0.3,0.8-0.9,0.8-1.4c0.8-1.6,2-3.3,2.5-4.2c0-0.2,0.2-0.6,0.3-0.7c0.6-0.3,0.8-1.1,1-1.5c2.2-3.4,3.6-5.3,3.6-5.5
				c0-0.1,0.4-0.8,0.7-1c0.2-0.1,1-1.1,1.2-1.3c0.5-0.7,1.1-1.1,1.7-1.8c0.1-0.2,1.4-0.9,2-1.6c0.2-0.2,0.8-0.5,1.1-0.5
				c0.8-0.3,1.1-0.8,2-0.8c0.4,0,0.7,0.3,1.1,0.8v0.3c0,0.2,0,0.3,0.1,0.3C381,8.8,381,8.8,381,8.9v0.3c0,0.8-0.1,1.7-0.7,3.3
				c-0.2,0.5-0.5,1.1-0.5,1.4c-1.2,2.2-3.6,5.2-4.8,6.4l-3.2,3.4c-0.8,0.8-1.3,1.4-1.8,2l-0.7,0.9v0.2c0,0.1-0.1,0.1-0.2,0.1
				c-0.3,0-0.5,0.5-0.7,0.7c-1,1.1-2.4,2.2-4.5,4.3c-0.3,0.3-1.1,0.8-1.5,1.7l-0.3,0.5c-1.2,1.9-4,6.8-4.3,7.1
				c-0.1,0.1-0.2,0.8-0.5,1c-0.2,0.2-0.9,1.4-1,1.4c-0.1,0.1-0.2,0.4-0.5,0.8c0.1-0.2-0.8,1.5-1.9,3.6c-0.2,0.4-1.4,2.6-1.6,3
				C352.3,51.3,352.3,51.6,352.2,51.9z M368.3,26.6c0.1-0.2,0.2-0.3,0.5-0.5l0.3-0.3c0.6-0.7,1.2-1.4,1.7-2c0.9-1.1,1.9-2.3,2.4-2.9
				c0.1-0.2,0.3-0.2,0.5-0.4c0.8-1.1,1-0.8,1.1-1.1c0-0.5,1.4-2.2,1.6-2.6c2.4-3,2.8-5.2,2.8-5.5c-0.1,0-0.1,0-0.1-0.1v-0.2
				c0-0.5,0.3-0.8,0.3-1.3c0-0.2-0.1-0.4-0.2-0.4c-1.2,0-6.1,6.2-6.2,6.4c-0.1,0.1-0.5,1-0.7,1.1c-0.2,0.1-0.4,1-0.8,1.2
				c-0.2,0.2-1.1,1.6-1,1.5c0.2-0.2-3.1,5.2-3.6,6c-0.1,0.1-0.3,0.5-0.5,0.8l-0.5,0.8c-0.1,0.2-0.7,1.1-1.3,2
				c-0.4,0.5-0.8,1.2-1.1,1.9c0.9-0.8,1.7-1.6,2.4-2.3L368.3,26.6z M373.4,46.9c0.2,0,0.2,0.1,0.2,0.3c-0.2,0.4-0.8,0.8-1.1,0.8
				C372.5,47.4,373.3,46.9,373.4,46.9z"/>
			<path class="st0" d="M392.6,36.5c0.4-0.2,0.7-0.2,1-0.2c0.1,0.1,0.3,0.2,0.5,0.5s0.4,0.6,0.6,0.6c0.6,0.3,0.6,0.6,0.5,0.8
				c0.2,0.2,0.8,1.3,0.4,2.7c-0.1,0.3-0.2,0.5-0.3,0.8c-1.1,1.8-1.7,2.1-2.7,2.8c-0.4,0.4-3.2,1.5-4.6,1.9c-0.1,0.2-0.2,0.3-0.2,0.4
				c-0.4,0.6-1.1,1.4-1.6,2c-0.4,0.4-0.7,0.7-1.1,1h0.8c0.4,0,0.7,0,0.8-0.1c0.2-0.1,1.4-0.2,2-0.8c1.4-0.7,2.3-1.8,3-2
				c0.2,0,0.2,0.1,0.2,0.2c0,0.5-1.5,1.5-2.7,2.4c-0.2,0.1-0.3,0.2-0.5,0.3l-0.4,0.1c-0.4,0.1-0.5,0.4-0.8,0.4l-1.1,0.3
				c-0.1,0.1-0.2,0.1-0.2,0.1h-0.7l-0.3,0.1h-0.6c-0.1,0-0.2,0-0.2-0.1l-0.2,0.2c-0.2,0.2-0.4,0.3-0.5,0.3c-0.4,0.2-0.9,1.2-2.1,1.7
				c-0.4,0.2-1.2,1-2.8,1.2c-0.2,0-0.1-0.1-0.3-0.2c-0.1,0-0.8,0.2-1.4,0.2c-0.4-0.1-0.6-0.2-0.8-0.3l-0.1-0.1
				c-0.5-0.2-0.9-0.4-1.3-0.6c-0.6-0.5-1.2-1.3-1.2-2.5v-0.5c0-0.4,0-0.8,0.2-1.3c0.1-0.2,0.2-0.4,0.2-0.6v-0.3
				c0.1,0,0.1-0.1,0.2-0.2c0.1-0.1,0.1-0.2,0.2-0.5c0.1-0.3,0.2-0.6,0.4-1c0.1-0.2,0.2-0.4,0.2-0.5c-0.2,0.1-0.3,0.2-0.5,0.5
				c-0.3,0.3-0.6,0.7-0.9,1c-0.2,0.2-0.4,0.4-0.7,0.4c-0.1,0-0.2-0.1-0.2-0.2c0-0.1,0.2-0.3,0.4-0.5l0.5-0.6c1.4-1.5,3-3.5,4.2-4.8
				l0.2-0.3l0.6-0.8c1.5-1.7,4.4-4.2,6.6-4.6c0.2,0,0.4-0.1,0.6-0.1c0.7,0,1.5,0.2,1.6,0.4c0.2,0.2-0.2,0.5,0.5,0.5
				c0.1,0,0.4,0.5,0.5,0.7c0,0.2,0.6,0.2,0.7,0.6c0.1,0.5,0.2,0.8,0.2,0.9c0,0.3-0.1,0.6-0.1,0.8c0,0.2,0.3,0.6,0.3,1.7
				c0,0.9-0.2,2.2-1.1,4c0.8-0.2,2.1-0.7,2.8-1.8c0.5-0.3,0.4-1.1,0.9-1.6c0.1-0.1,0.1-0.2,0-0.3c-0.1-0.2-0.2-0.4-0.5-0.5
				c-0.5-0.4-1.3-1.9-1.3-2.9l0.2-0.3c0.2-0.5,0.5-0.9,1.4-1.1C392.2,36.7,392.3,36.5,392.6,36.5z M381,40.6
				c-0.2,0.2-0.8,1.1-1.1,1.3c-0.4,0.3-0.7,1.4-0.9,1.5l-0.2,0.2v0.2c-0.4,0.5-0.8,1.1-1.1,1.7c-0.5,1-1,2.4-1,3.5v0.5
				c0,0.7,0.2,1.1,0.4,1.5c0.1,0.2,0.2,0.3,0.4,0.4c0.2,0.2,0.2,0.5,0.4,0.5c0.1,0,0.3,0.2,0.4,0.2c0.2,0,0.8,0,1,0.1
				c0.2,0.1,0.4,0.1,0.6,0.1c1.3,0,2.5-1,3.5-1.8c-0.7-0.2-2-1.1-2.2-1.7c-0.2-0.5-0.7-1.1-0.7-1.7v-0.2c0-0.1-0.1-0.2-0.1-0.2
				c-0.2-0.4-0.2-0.7-0.2-1.1c0-0.3,0.1-0.5,0.1-0.7l-0.1-1.1c0-0.2,0.1-0.3,0.1-0.4c0-0.2,0-0.5,0.2-1.1c0-0.1,0.1-0.2,0.1-0.4
				S380.7,40.9,381,40.6z M387,45.7c0-0.3,0.4-0.5,0.4-0.8c0-0.1,0.8-1.5,0.8-3.6c-0.1-2-1.1-3.1-1.7-3.3c-0.2-0.1-0.4-0.1-0.6-0.1
				c-2,0-3.9,3.2-4.1,5.5c-0.1,0.1-0.1,0.2-0.1,0.5c-0.1,0.3-0.1,0.7-0.1,1c0,1.1,0.2,2.8,0.8,3.4c0.1,0.2,0.2,0.4,0.5,0.5
				c0.3,0.3,0.8,0.5,1.3,0.7c1.3-1.4,2.4-3.1,2.5-3.2C386.7,46.1,387,45.9,387,45.7z"/>
			<path class="st0" d="M393,46.1c-0.2,0.2-1.1,1.4-1.4,1.4c-0.2,0-0.3-0.1-0.3-0.2c0-0.2,0.2-0.3,0.4-0.5c0.2-0.1,0.2-0.2,0.4-0.3
				c0-0.2,0.5-0.5,0.5-0.6c0.2-0.3,0.2-0.6,0.8-0.8c0-0.1,0.8-0.8,0.8-1c0-0.1,1.8-1.7,2.3-2.7c0-0.2,0.7-0.7,1.2-1.2
				c1.1-1.3,1.7-2,2-2.3l1.1-1.1c0.5-0.5,0.5-1.5,1.1-1.5c0.1,0,0.2,0.1,0.2,0.1c0.4,0,0.8,0.2,1,0.2c0.7,0.2,1,0.5,1,0.9v0.4
				c0,0.1,0,0.1,0.1,0.2l-0.2,0.5c0,0.1-0.1,0.3-0.2,0.6c-0.1,0.2-0.1,0.3-0.2,0.4c0,0.5-0.8,1.4-0.8,1.5c-0.2,0.5-0.8,1.8-1.7,3.3
				c-0.2,0.3-0.4,0.6-0.6,0.8c-0.2,0.2-0.2,0.3-0.3,0.4l-4.2,7.7c0.5-0.4,1.1-0.8,1.6-1.3c1-0.8,2.2-1.8,3.4-3.3
				c0.5-0.6,0.7-0.5,0.8-0.7c0.6-0.8,1.3-1,1.3-1.2c0-0.2,0.5-0.8,0.8-0.8c0-0.2,3.9-3.9,5.9-5.5l2-2.2c0.1-0.1,0.2-0.1,0.2-0.1
				c0.2,0,0.3-0.1,0.4-0.2c0.1-0.1,0.2-0.1,0.3-0.1h0.5c0.5,0,1.4,0.4,1.4,1.3c0,0.3-0.2,0.6-0.5,1.1c-0.1,0.3-0.2,0.5-0.2,0.6
				c0,0.2-0.5,0.8-0.8,1.5c-0.2,0.6-1.1,3-1.4,3.2c-0.2,0-0.2,0.2-0.2,0.5c0,0.2-0.1,0.6-0.3,1c-0.1,0.2-0.2,0.4-0.2,0.5
				c-0.2,0.4-0.3,0.8-0.5,1.3c-0.3,0.8-0.6,1.6-0.9,2.4c-0.1,0.1-0.2,0.2-0.2,0.5c0,0.2,0,0.3,0.1,0.3c0,0.1,5.9-5.4,6.1-5.5
				c1.1-1.1,1.7-1.1,3-2.7c0.3-0.4,1.1-0.7,2-1.8c0.2-0.2,0.8-0.5,1.6-1.2c0.1-0.3,0.7-0.4,0.8-0.6l0.8-0.8c0.2-0.2,0.3-0.3,0.5-0.4
				c0.1,0.1,0.2-0.2,0.4-0.2c0.7,0,1.9,0.7,1.9,1.2c0,0.2,0.2,0.2,0.2,0.4c0,0.2-0.5,0.9-0.9,1.4c-0.7,0.7-1.7,3.9-2.2,3.9l-0.3,0.9
				c0,0.2-0.4,0.2-0.6,1.1c-0.1,0.2-0.2,0.3-0.3,0.5l-0.2,0.2c-0.2,0.3-0.3,0.6-0.4,0.8c-0.2,0.5-0.4,1.1-0.5,1.4
				c-0.1,0.5-0.2,0.8-0.2,1c0,0.7,0.4,0.8,0.9,0.8c1.1,0,2.7-0.5,4.6-2.3c0.2-0.1,0.5-0.2,0.8-0.7c0.1-0.1,0.2-0.2,0.5-0.4
				c0.9-0.6,0.8-0.7,1.3-1.1c0.1-0.1,0.2-0.2,0.2-0.2c0.2,0,0.2,0.1,0.2,0.2c0,0.1,0,0.2-0.1,0.2c-0.6,0.6-3.1,3.5-3.7,3.5
				c-0.2,0.1-0.5,0.2-0.5,0.2c-0.1,0.1-0.1,0.1-0.1,0.2c-0.1,0.1-0.2,0.2-0.3,0.2c-0.2,0.2-0.4,0.3-0.6,0.3c-0.2,0-1.7,1.4-3.4,1.4
				h-0.5c-0.5,0-0.8,0-1.4-0.3c-0.7,0-0.5-0.5-0.8-0.6c-0.1-0.1-0.1-0.2-0.1-0.4c-0.1,0-0.2-0.2-0.2-0.4v-0.8c0-0.2,0.2-0.5,0.2-0.8
				c0-0.4,0.2-0.8,0.5-1.5c0-0.2,0.2-0.3,0.4-0.8c0.6-1.9,1-1.4,1-1.8c0.1-0.4,0.2-0.6,0.5-0.9c0.6-1.1,1.1-2.1,1.4-2.8
				c0.2-0.4,0.4-0.8,0.5-1.1c-0.2-0.2-3.4,2.6-4.9,4c-2.4,2.4-3.6,3-3.6,3.3c-0.1,0.3-1.1,1.2-2,2.1c-0.5,0.5-1.2,1.1-1.9,1.7
				c-0.5,0.9-1.5,1.1-3,1.4c-0.8-0.1-1.3-0.2-1.3-1.4c0-0.3,0.2-0.5,0.2-1c0-0.7,0.3-1,0.5-1.2c0.2-0.2,1.4-3,1.4-3.3
				c0-0.5,0.5-0.5,0.5-0.8c0.2-1,1.7-4.5,2-4.9c0-0.1,0.1-0.3,0.3-0.8c0.1-0.2,0.2-0.5,0.4-0.7l-1.9,1.9c-1,1-1.9,1.9-2,1.9
				c-0.5,0-4.4,3.9-5.6,5.1c-0.2,0.2-1.1,1.4-1.5,1.6c-1.2,0.9-2.2,2.6-2.8,2.9c-0.8,0.3-1.1,1.1-1.2,1.1c-0.3,0.3-0.8,0-1.4,0.4
				c-0.1,0.1-0.2,0.1-0.2,0.1c-0.5,0-1.3-0.7-1.3-1.4c0-0.1,0.1-0.1,0.1-0.3s-0.1-0.2-0.1-0.8c0-0.5,0.2-1.1,1.1-2
				c0.3-0.3,0.9-2.1,1.2-2.5c0.4-0.6,2.3-3.3,2.3-3.9c0.1-0.2,0.2-0.2,0.3-0.5c0.1-0.1,0.1-0.2,0.2-0.2c0.3-0.4,0.6-0.8,0.8-1.4
				c0.5-0.8,0.9-1.8,1.3-2.8c0.1-0.2-0.4,0.6-2.7,3c-0.2,0.2-0.6,0.9-1.1,1.3l-1.1,1.1L393,46.1z"/>
			<path class="st0" d="M444.4,40.5c1.1,0,1.9,0.2,3.2,0.2h1.1c0.1,0,0.2,0.1,0.5,0.1l0.5-0.2c0.1,0.1,0.2,0.1,0.5,0.1
				c0.4,0,0.9-0.1,1.6-0.1h2.2c0.2-0.1,0.5-0.1,0.9-0.1h0.4c0.3,0,0.7,0,0.7,0.2c0,0.1,0,0.2-0.1,0.2c-0.2,0.2-0.2,1-0.8,1l-1.1-0.1
				c-0.3,0-0.8,0.2-0.8,0.2c-0.5-0.1-0.8-0.2-1.1-0.2c-1,0-0.4,0.1-1,0.1c-0.2,0-0.5,0-0.5-0.1c-0.2,0.1-0.5,0.1-0.8,0.1h-2.4h-1.1
				c-0.3,0-1,0.1-1.6,0.1h-1.2c-0.2,0-0.4,0-0.5-0.1c-0.2,0-0.5-0.2-0.5-0.4c0-0.1-0.1-0.2-0.1-0.2c-0.1-0.1-0.1-0.1-0.1-0.2
				c-0.1,0-0.1,0-0.1-0.1v-0.2c0-0.5,0.6-0.4,1.4-0.5H444.4z"/>
			<path class="st0" d="M501.3,51.5l-0.1,0.7c0,0.3-0.5,0.9-0.6,0.9s-0.2,0.1-0.2,0.1l-0.1,0.1c-0.2,0.2-0.6,0.8-1.3,0.8
				c-0.2,0-0.4,0.1-0.5,0.1c-0.1-0.1-0.2-0.2-0.2-0.5c0-0.1-0.4-0.1-0.6-0.4l-0.2-0.7c0-0.4-0.1-0.5-0.2-0.5c-0.2,0-0.2-1.9-0.2-3.9
				l0.2-1c0-0.8,0.4-3.3,0.4-4.5v-0.2c0-0.1,0.1-0.2,0.1-0.5v-0.5c0.2-0.2,0.2-0.9,0.4-3.6l0.1-0.8c0.1-0.6,0.3-0.7,0.3-1.4
				c0-0.2,0-0.4-0.1-0.5c0-0.2,0.2-0.7,0.2-0.8c-0.1-0.1-0.1-0.2-0.1-0.4c0.6-3.4,1-8.1,1-8.4c0.1,0,0.1-0.1,0.1-0.2v-0.3
				c0-0.5,0.1-1,0.1-1.1c0-0.3,0.2-0.6,0.2-0.9c0-0.2,0.2-0.4,0.2-0.5c-0.1,0-0.1,0-0.1-0.1v-0.4l0.2-2.5c-0.8,1.5-3.2,5.7-3.6,5.7
				c-0.3,0.2-0.2,0.3-0.3,0.7c-0.2,0.6-2.6,3.9-2.7,3.9c-0.2,0.2-1.3,1.8-2.4,3.3c-0.7,0.9-1.4,1.9-2.1,2.9
				c-0.2,0.2-0.3,0.5-0.5,0.6c-0.2,0.1-0.2,0.4-0.4,0.7s-0.4,0.2-0.9,1c-0.2,0.3-0.5,0.7-0.7,0.9c-0.6,0.6-5,5.8-8.1,8.5
				c-0.1,0.1,0,0.3-0.2,0.3c-1.6,1.2-2,2.1-5.2,4.3c-0.5,0-0.6,0.6-1.1,0.6c-0.1,0-1.2,1.6-3.9,1.8l-1-0.2c-0.2,0-0.2,0.2-0.7,0.2
				c-1,0-1.5-0.5-1.5-1.4c0-1,0.4-1.2,1-1.4c0.3-0.2,0.1-0.4,0.6-0.4c0.2,0,0.5,0.1,0.8,0.1c0.1,0,0.5-0.2,0.8-0.3
				c0.1-0.1,0.2-0.1,0.2-0.1c0.2,0,0.5,0.2,1.1,0.2c0.8,0,2.9-0.6,4.5-1.6c3.6-2.4,5.1-3.9,6.1-4.7c0.5-0.2,1.1-1.1,1.4-1.3
				c1.8-1.7,3.4-3.7,3.6-4c0.2-0.2,0.7-1,0.9-1.2c0.3-0.5,1-1.1,1.2-1.4c0.5-1,1.5-1.9,3.7-5.2c1.7-2.3,1.7-2.4,3.5-5.3l0.5-0.8
				c0.2-0.4,1.4-2.4,1.6-2.8c1.1-2.4,1.7-3.8,2-4c0-0.2,1-2,1-2.2c1.3-2.4,1.7-4.3,1.7-4.8c0.3-0.3,0.5-0.7,0.5-2.1
				c0.2-0.5,0.8-0.7,1.1-1.1l0.4-0.2c0-0.2,0.1-0.2,0.2-0.3c0.2,0,0.5-0.1,0.8-0.1c0.2,0,0.4,0.1,0.7,0.2c0.1,0,0.2,0.1,0.3,0.1
				c0.5,0,0.8,0.1,0.8,0.2c0,0.1-0.1,0.2-0.2,0.2c0.1,0,0.2,0.1,0.2,0.2c-0.2,0.5-0.8,1.5-0.8,2.1c0,0.3-0.2,0.9-0.2,1.9
				c0,0.7-0.2,1.2-0.4,1.8c0,0.8-0.5,2.4-0.5,2.5c0,0.2-0.1,0.3-0.1,0.5c0,0.1,0.1,0.2,0.1,0.4c0,0.1-0.1,0.8-0.2,0.8
				s-1.1,7.7-1.1,7.9c0,0.1,0,0.4-0.1,0.4c-0.1,0.1-0.1,0.2-0.2,0.5v0.4c0,1.7-0.4,4.2-0.9,7.5v0.3c0,0.2-0.1,0.4-0.1,0.8
				c-0.1,0.1-0.1,0.2-0.1,0.4v0.5c0,0.6-0.3,1.9-0.4,2.2c-0.1,0.1-0.1,0.2-0.1,0.5v0.8l-0.2,0.8c0,1.1-0.3,2.2-0.3,3.3l-0.3,3.7
				c0,0.9,0.1,1.6,0.3,2l0.7-2.4c0.1-0.2,0-0.5,0.2-0.7c0.2-0.8,2.4-6.8,2.6-7c0.2-0.1,0.2-0.2,0.2-0.5c0-0.2,0.2-0.4,0.2-0.6
				c0-0.2,0.2-0.3,0.2-0.6c0.2-0.2,2-5.2,2.1-5.2v-0.1c0,0,0-0.1,0.1-0.2c0-0.1,0.2-0.3,0.2-0.4c0-0.1,0.1-0.2,0.2-0.3
				c0.2-0.5,0.3-1,0.5-1.4c0.3-0.8,0.7-1.6,1-2l0.2-0.2l0.1-0.2l0.2-0.4c0.2-1,0.7-1.7,1.2-2.6c0-0.1,0.1-0.6,0.2-0.7l0.2-0.2
				c0-0.1,0.5-1.1,0.7-1.6c0.6-1,0.5-1,0.8-1.5l0.2-0.2l-0.1-0.2l0.2-0.5c0.2-0.2,0.2-0.5,0.5-0.8l0.3-0.4c0-0.2,0.3-0.6,0.5-1
				c0.3-0.7,0.4-1.1,0.9-1.7l0.3-0.3l0.8-1.4c0.2-0.8,0.7-1.3,0.9-1.5c0.3-0.5,0.5-0.8,0.5-1c0.2,0,0.2-0.2,0.3-0.5
				c0-0.1,0.1-0.2,0.2-0.2c0.2-0.2,0.5-1,0.9-1c0.2,0,1.3-2.7,4.9-4.2c0.3-0.2,0.3-0.4,0.6-0.4h0.3c0.5,0,0.9-0.5,1.7-0.5
				c0.4,0,0.5,0.5,1.1,0.6c0.3,0.1,0.4,0.5,0.4,0.8c0,0.2-0.1,0.2-0.1,0.3v0.1c-0.1,0.1-0.2,0.1-0.2,0.1c-0.3,0-0.5-0.4-0.6-0.5
				c-0.1-0.1-0.5-0.1-0.5-0.1c-0.2,0-0.4,0.2-0.5,0.2c-1.1,0.3-2.8,1.7-3.1,2c-1.1,1.1-2.7,2.4-4.4,4.6l-1.8,2.7
				c-0.5,0.7-1.5,2.2-3.1,4.9c-0.2,0.2-0.4,0.8-0.6,1l-0.2,0.2c-0.3,0.7-0.6,1.1-1.1,2.2l-2.2,4.7c-0.2,0.3-1.2,2.9-1.4,3.5
				c-0.3,0.6-0.5,1.4-0.8,1.7c-0.3,0-1.7,4.6-1.9,4.6c-0.2,0.2-0.4,0.8-0.4,1.1c0,0.1-0.2,0.5-0.3,0.8c-0.2,0.4-2.1,5.9-3,8.4
				L501.3,51.5z"/>
			<path class="st0" d="M511.2,43.8c0.4-0.4,0.6-0.7,0.7-0.8l0.5-0.5c0-0.6,3.1-2.7,3.1-2.9c0-0.2,0.2-0.3,0.5-0.4
				c0.2,0,0.5-0.5,0.9-0.7c0.4-0.2,0.8-0.2,0.8-0.5c0.3-0.7,1.1-0.9,1.3-1.1c0.9-0.5,1.7-1.4,2.7-1.4c0.2,0,0.2,0.1,0.5,0.1
				c0.1,0,0.1,0,0.2-0.1c0.1,0,0.2-0.1,0.3-0.1c0.4,0,1.9,0.7,2.1,0.7c0-0.1,0,0.3,0.2,0.3c0.8,0.1,1.9,1.4,1.9,2
				c-0.1,0.2-0.1,0.4-0.3,0.6l-0.2,0.5c0.2,0,0.3,0,0.5,0.1c0.3,0.1,0.5,0.2,0.5,0.4c-0.4,0.8-0.8,1.4-1.1,2c-0.5,1.1-1.1,2-1.4,2.3
				c-0.2,0.2-0.2,0.5-0.7,0.8c-0.1,0.1-0.1,0.2-0.2,0.2c-0.1,0.1-0.1,0.2-0.1,0.4c0,1.1-1.9,3.2-1.9,4.6c-0.1,0.2-0.1,0.3-0.1,0.5
				c0,0.4,0.2,1.1,0.8,1.1c1.2,0,3.7-2.7,3.9-2.7c0.6-0.2,2.4-2.6,3-2.6c0.2,0,0.2,0.1,0.2,0.3c0,0.2-0.3,0.5-0.5,0.7l-3.3,3.4
				c-0.2,0.2-0.4,0.3-0.7,0.4c-0.2,0-1.8,2-4.5,2h-0.3c-0.7,0-1.1-0.2-1.3-0.8c-0.2-0.3-0.3-0.4-0.3-0.6v-0.4c0-0.6,0.4-1.6,0.8-2.4
				c0.2-0.5,0.5-1,0.8-1.4c-0.9,0.8-1.7,1.6-2.6,2.3c-1.4,1.1-2.7,2.3-3.3,2.3c-0.2,0.1-0.1,0.1-0.3,0.3c-1.3,0.7-2.4,1.1-3.2,1.1
				c-1.6,0-2.4-1-2.4-3c0-0.2,0.1-0.5,0.1-0.8v-0.5c0-0.9,0.3-1.7,0.6-2.4c0.1-0.2,0.2-0.5,0.4-0.7l0.2-0.5l-0.8,0.8
				c-0.5,0.4-0.8,0.5-0.9,0.5c-0.1,0-0.2-0.1-0.2-0.2c0-0.2,0.2-0.5,0.3-0.5c1.5-1.6,2.4-2.4,2.7-2.7L511.2,43.8z M518.5,44.7
				c0-0.2,0.1-0.3,0.2-0.3c0.6,0,2.7-1.7,2.7-1.8c0.1,0,0.2-0.3,0.5-0.3c0.3,0,0.4-0.5,0.7-0.7c0.4-0.3,0.6-0.6,0.6-0.9
				s0.2-0.2,0.4-0.4c0.1-0.2,0.2-0.5,0.2-0.8c0-0.5-0.5-1.1-1.3-1.1c-0.2,0-0.2-0.1-0.5-0.1s-0.3-0.1-0.4-0.1s-0.5,0-0.8-0.2
				c-0.2,0-1.8,0-1.9,0.5c0,0.2-4.9,2.1-7.1,10.5v0.4c0,0.2-0.2,0.5-0.3,0.6c0,0.1,0.2,0.2,0.2,0.4v0.4c0,0.2,0.1,0.7,0.2,0.8
				c0.2,0.3,0.1,0.5,0.9,0.5h0.4c0.4,0,0.8,0,1.6-0.5c0.6-0.4,1.4-1,1.7-1.2c1-0.8,1.7-1.9,1.9-1.8c0.1,0.1,0.5-0.5,0.7-0.7
				c0.6-0.4,2.2-1.9,3-3.3c0.3-0.5,0.6-1.1,1-1.6l0.5-0.7c-0.2,0.2-0.3,0.3-0.5,0.4c-0.3,0.2-0.5,0.3-0.6,0.3
				c-0.1-0.1-2.7,2.1-3.7,2C518.6,44.9,518.5,44.7,518.5,44.7z M517.1,45.7c-0.1,0-0.2-0.1-0.2-0.2c0-0.2,0.1-0.2,0.3-0.2
				C517.3,45.6,517.2,45.7,517.1,45.7z M517.7,45.3c0-0.2,0.1-0.4,0.3-0.5c0.2,0,0.3,0.3,0.3,0.4c0.1,0.1-0.2,0.3-0.5,0.3
				C517.7,45.5,517.7,45.4,517.7,45.3z M527.7,29.2c0.3,0.5,0.9,1.5,1.3,1.9c0.2,0,0.2,0.4,0.2,0.6l0.2,0.4c0.2,0.1,0.2,0.4,0.8,0.9
				c0.2,0.2,0.2,0.5,0.2,0.8c0,0.1-0.1,0.2-0.2,0.2l-0.2,0.2c-0.2,0.2-0.2,0.5-0.8,0.5h-0.4c-0.2,0-0.3,0-0.3-0.1
				c-0.2-0.2-0.4-0.2-0.7-0.6c-0.5-0.6-0.3-0.6-0.9-1.5l-0.5-0.8c-0.2-0.2-0.2-0.3-0.4-0.5c-0.3-0.2-0.2-0.3-0.5-0.5l-0.3,0.2
				c-0.2,0.1-0.3,0.2-0.5,0.3c-0.2,0.1-0.6-0.1-1,0.3c-0.5,0.4-1,0.5-1.4,0.7c-0.2,0.1-0.4,0.2-0.6,0.2c-0.3,0.2-0.6,0.6-1.1,0.6
				c-0.4,0.2-0.6,0.4-0.8,0.4h-0.4c-0.1-0.1-0.1-0.2-0.1-0.4c0.2-0.3,0.8-0.4,1-0.6c0-0.2,0.5-0.5,0.8-0.5c0-0.1,0.6-0.5,1.1-0.8
				c0.3-0.2,0.7-0.5,1.1-0.7c0.5-0.3,1-0.7,1.5-1.1c0.2-0.2,0.5-0.4,0.8-0.6l0.4-0.2h0.3c0.2,0,0.3-0.1,0.4-0.1c0.2,0,0.2,0,0.3,0.1
				L527.7,29.2z"/>
			<path class="st0" d="M538.2,37.4c0.2-0.2,0.6-0.5,0.6-0.8c0-0.3,0.5-0.7,1-0.9c0.1-0.1,0.2-0.1,0.4-0.1c0.5,0,0.8,0.6,1.5,0.8
				c0.2,0,0.4,0.2,0.4,0.4c0,0.1-0.1,0.2-0.1,0.2c-0.8,2-2.4,4.6-3.4,5.8c-0.1,0.1-0.1,0.2-0.1,0.3c-0.2,0.4-1.5,2.7-1.5,2.8
				l-0.3,0.5c-1.9,3.1-3.1,5.8-3.1,6.3c0.2,0,0.8-0.5,1.4-1.2l1.9-2c2-2.4,3-3.5,3.6-4c0.4-0.3,0.6-0.5,0.7-0.5c0-0.1,0-0.2,0.1-0.3
				c0.1-0.2,0.2-0.3,0.4-0.3c0.3,0,2.4-2.2,2.8-2.6c1-0.6,0.8-1.6,2.3-2c0.1,0,0.2-0.1,0.2-0.2c0.2-0.6,1-0.7,1.5-0.7
				c0.1,0,0.2,0,0.2,0.1c0.2,0.2,0.2,0.4,0.4,0.5c0.4,0.1,1,0.4,1,0.6v0.4c0,1-0.7,1.5-0.7,2c0,0.8-1,1.4-1,2.2c0,0.2,0,0.2-0.1,0.3
				l-0.5,0.9c-0.1,0.1-0.1,0.2-0.1,0.2v0.3c-0.4,0.9-0.6,2.4-0.6,3.5c0,1,0.1,1.5,0.8,1.5c0.5,0,1.1-0.2,2.4-1.6
				c0.1-0.1,0.5-0.6,0.8-0.7c1-0.6,2-1.6,2.6-2.1c0.1-0.1,0.2-0.2,0.4-0.2c0.1,0,0.2,0.1,0.2,0.2v0.2c-0.2,0.4-0.9,1.1-1,1.1
				c-0.5,0-1.4,1.7-1.9,1.8c-0.4,0.2-0.8,0.5-1.1,0.8c-0.2,0.2-0.4,0.4-0.5,0.6c-0.1,0-0.2,0-0.2,0.1c-0.1,0.1-0.2,0.2-0.4,0.5
				c0,0-0.2,0.1-0.4,0.2c-0.2,0.1-0.3,0.1-0.4,0.2c-0.2,0.2-0.3,0.3-0.5,0.4c-0.3,0.2-0.6,0.3-0.8,0.3c-0.1,0-0.2,0-0.2-0.1
				c-0.1-0.1-0.2-0.1-0.2-0.1c-0.2,0-0.2,0.1-0.6,0.1l-0.2-0.2c-0.1-0.1-0.2-0.1-0.3-0.2c-0.3,0-1.2-1.1-1.2-3.3
				c0-0.8,0.2-1.8,0.5-3c0.2-0.5,0.5-1.4,0.8-2.1c0.4-0.8,0.6-1.5,0.7-1.7c0-0.1,0.1-0.2,0.1-0.5v-0.2c-1.1,0.8-2,1.7-3,2.5
				c-1.6,1.4-3.5,3.2-4.6,4.5c-1.1,1.2-1.7,1.4-2.5,2.4c-0.8,1.1-2.6,2.9-4.5,2.9h-0.3c-0.1-0.2-1.4-0.4-1.4-1.2
				c0-0.2,0.1-0.5,0.3-0.8c0.3-0.5,0.5-1.2,0.7-1.4c0.3-0.2,0.5-1.1,0.7-1.3c0.2-0.2,0.4-0.2,0.4-0.4c1.6-3.4,2.2-3.6,2.4-3.9l3-5.6
				c0-0.2-3.2,3.9-4.7,4.9c-0.2,0.1-0.5,1.1-1.1,1.3c-0.6,0.4-1.1,1-1.7,1.6c-0.1,0.1-0.2,0.4-0.5,0.4c-0.2,0-0.2-0.2-0.2-0.4
				c0.8-1.1,2-2,3.3-3.7c0.1-0.1,0.3,0,0.4-0.2c0.3-0.6,1.5-1.6,1.5-1.7c0-0.2,0.3-0.2,0.4-0.5C535,40.6,537.2,38.5,538.2,37.4z"/>
			<path class="st0" d="M555.8,44.8c-0.1,0,2.7-2.9,3.3-3.3c1.1-1.3,2.7-2.5,2.8-2.7c0.2-0.3,2.4-1.5,2.4-1.6c0.5-0.8,1.7-1.2,3-1.2
				c0.6,0,1.7,0.2,2.1,0.4c0.1,0.1,0.2,0.2,0.3,0.3c0.2,0.2,0.5,0.4,0.8,0.6c0.3,0.2,0.7,0.6,0.9,1.1l0.2-0.4
				c0.2-0.2,1.6-3.2,1.7-3.3c0.2-0.2,0.7-1.3,1.3-1.3l0.8,0.5c0.5,0.4,0.8,0.8,0.8,1.2c0,0.2-0.1,0.4-0.3,0.6
				c-0.1,0.1-0.1,0.2-0.1,0.4c0,0.2-0.1,0.3-0.2,0.4c-0.5,0.2-0.5,0.2-0.5,0.5c-0.1,0.4-1,1.1-1,1.4c0,0.2,0,0.2-0.1,0.3l-0.2,0.6
				c-0.8,1.2-1.4,2.2-1.8,2.9c-0.2,0.4-0.4,0.8-0.6,1.1c-0.1,0.1-0.1,0.1-0.1,0.2c-0.1,0.1-0.1,0.2-0.2,0.3
				c-0.1,0.3-0.7,0.6-0.7,0.9c-0.2,0.5-1,2-2.9,4.9c-0.1,0.1-1.1,1.7-2.2,3.3c-0.6,1-1.3,2-2.1,3.3c0.8-0.5,1.5-1,2.4-1.5
				c1.4-0.9,3-2.1,4.4-3.3s3.6-3.3,5-4.4c0.1-0.1,0.2-0.1,0.2-0.1c0.2,0,0.2,0.1,0.2,0.2c-0.1,0.3-0.5,0.5-0.5,0.7
				c-0.1,0.3-1,0.5-2.5,2.3c-0.2,0.3-0.4,0.4-0.6,0.6c-0.8,0.8-2.7,2-3,2.4c-1.6,1-4.6,3.3-6.4,4.3c-0.2,0.3-0.3,0.6-0.5,0.8
				c-0.2,0.5-0.6,0.8-0.7,1.1c-0.1,0.2-0.5,0.6-0.8,1.1c-0.2,0.3-0.4,0.6-0.6,1c-0.1,0.2-0.2,0.3-0.2,0.5c-0.2,0.3-0.4,0.6-0.8,1
				c-0.2,0.2,0,0.3-0.2,0.5c-0.5,0.5-0.5,0.9-0.7,1c-0.2,0.2-0.4,0.4-0.5,0.7c-0.1,0.2-0.2,0.4-0.3,0.5c-0.1,0.1-0.2,0.2-0.3,0.4
				c-0.2,0.4-0.7,1.1-1.5,2.3c-0.1,0.2-0.5,0.8-0.7,1.1c-1.1,2.1-3.3,4.9-4.5,6.4c-0.2,0.3-0.5,0.5-0.8,0.8
				c-0.2,0.2-0.3,0.2-0.4,0.3c-0.3,0.5-0.7,0.9-1.1,1.4c-0.7,0.8-1.7,1.9-3,2.8c-0.5,0.4-0.9,0.8-1.3,1.1c-0.6,0.4-1.9,1.1-2.7,1.1
				c-0.3,0-0.5-0.1-0.6-0.2c-0.5-0.4-1.5-0.3-1.5-1.9v-0.4c0-0.5,0.2-0.8,0.2-1.5v-0.2c0-0.1,0-0.1,0.1-0.1c0.2-0.3,0.5-0.8,0.5-1.4
				c0-0.2,0-0.3,0.1-0.4c0.2-0.5,0.5-1.3,1.1-2.1c0-0.3,1-1.7,1.9-2.6c1.2-1.8,4.3-5.4,6.7-7c0.3-0.2,0.8-1,1.4-1.2
				c0.3-0.2,0.5-0.4,0.7-0.5c1-0.9,2-1.2,3.7-2.4c0.2-0.2,0.3-0.2,0.5-0.4c0.2-0.3,0.4-0.2,0.6-0.5l2.7-1.7c0.7-1.1,1.3-2,1.9-3
				c1-1.7,2.2-3.6,2.9-4.7c0.5-0.7,0.7-1.1,0.8-1.3c0,0,0.1-0.2,0.3-0.5c0.1-0.1,0.2-0.2,0.2-0.4c-0.5,0.4-1,0.8-1.5,1.2
				c-0.9,0.7-2,1.5-3.1,2c-1,0.5-1.2,0.8-2.2,1.2c-0.5,0.2-1,0.2-1.3,0.2h-0.5c-0.6,0-2.5-0.8-2.7-2.1c0-0.9,0.2-1.9,0.2-2.2
				c0-0.2-0.1-0.3-0.1-0.4V49c0-0.1,0-0.2,0.1-0.2c0-0.1,0-0.2,0.1-0.3l0.4-0.8c0.2-0.5,0.6-1,0.9-1.5c-0.6,0.5-1.4,1.4-1.7,1.4
				c-0.1,0-0.2-0.1-0.2-0.2c0-0.2,0.2-0.4,0.5-0.7L555.8,44.8z M557.6,61.8c0.4-0.6,0.6-1.1,0.8-1.4c0.1-0.2,0.2-0.4,0.3-0.5
				c-0.8,0.5-1.6,1.1-2.4,1.7c-1.4,1.1-3.3,2.4-5.1,3.9c-0.5,0.5-2.2,2.6-2.5,2.6c-0.4,0.1-0.1,0.1-0.3,0.3
				c-0.5,0.5-3.2,3.5-3.2,4.2c-0.4,0.6-1.8,2.6-2,4.1c-0.1,0.6-0.2,0.4-0.2,0.9c0,0.2-0.2,0.5-0.2,0.7c0,0.8-0.4,1.2-0.4,1.7
				c0,0.8,0.2,1.8,0.5,1.8c0.5,0,3.1-2.5,4.1-3.7c3.6-4.6,4.9-6.5,5.2-7.1c0.1-0.2,0.5-0.7,0.7-0.9c0-0.2,0.2-0.3,0.2-0.5l0.2-0.2
				l1.7-3c0.2-0.2,0.1-0.3,0.3-0.5c0.1-0.1,0.1-0.2,0.2-0.2c0-0.1,0-0.1,0.1-0.2c0-0.1,0.1-0.2,0.2-0.4l0.2-0.2l0.5-0.8L557.6,61.8z
				 M569.5,41.7c0.1-0.2,0.2-0.5,0.3-0.7h-0.2h-0.2c-0.1,0-0.1,0-0.1-0.1c-0.5,0-0.5-1-0.5-1.3c-0.1-0.1-0.1-0.2-0.1-0.3
				c0-0.5,0.3-0.8,0.3-1.4c0-0.3-0.1-1-1.5-1c-0.3,0-0.8,0-1.2,0.2l-0.7,0.3c-1.7,0.8-2.7,2-3.7,3.2l-0.2,0.3
				c-0.7,0.8-1.6,2.7-2.5,3.9c-0.8,1.1-0.9,1.7-1.1,2c-0.9,1.2-1.3,2.6-1.3,3.7c0,0.9,0.2,1.4,0.6,1.6c0.3,0.2,0.9,0.4,1,0.4
				c1.9-0.5,2.6-1.4,3.1-1.7c0.6-0.2,3.4-2.3,4.3-3.3c0.3-0.4,0.2-0.2,0.7-0.8l0.6-0.8c0.3-0.4,0.2-0.3,0.5-0.8
				c0.9-1.2,1.1-2,1.4-2.6C569.1,42.5,569.3,42.1,569.5,41.7z"/>
			<path class="st0" d="M608.9,26.4c0.2,0,0.2,0.2,0.3,0.2l3.2-0.2c0.4,0,0.8-0.2,1-0.2c0.5,0,1-0.1,1.4-0.1h3l1.2,0.2
				c0.2,0,0.3,0.2,0.3,0.4c0,0.3-0.1,0.5-0.2,0.5c-0.5,0.3-0.8,0.3-1.3,0.3c0,0.1-0.2,0.2-0.7,0.2h-1c-0.2,0-0.4,0-0.5-0.1
				c-0.6,0-0.9-0.2-1.3-0.2c-0.2,0-0.4,0-0.5,0.1c-0.1,0-0.2-0.1-0.4-0.1c-0.5,0.2-0.6,0.2-0.7,0.2c-0.5,0-1.3-0.1-2.1-0.1h-4.9
				h-1.1c-0.4,0.6-0.8,1.1-1,1.7c-0.5,0.8-0.9,1.7-1.1,2c0,0.1,0,0.1-0.1,0.2c-0.1,0.1-0.1,0.1-0.1,0.2c0,0.1,0,0.1-0.1,0.1
				c-0.2,0.4-0.3,0.3-0.3,0.4c-0.5,1.5-1.3,2.4-1.4,2.5c-2,3.2-5,7.7-6.6,10.8c0,0.1,0,0.1-0.1,0.1h-0.2c-0.1,0.1-0.1,0.2-0.2,0.2
				c-0.1,0.1-0.1,0.2-0.1,0.4c-0.2,0.7-0.8,1.2-0.9,1.6c-0.2,0.9-1.1,2-1.1,3.3c0,0.2,0.1,0.5,0.1,0.7c0,0.3,0.1,0.5,0.2,0.8
				c0.2,0.2,0.6,0.2,0.9,0.2l0.3,0.1c1.4,0,2-0.6,2.4-0.8c0.1,0,0.5-0.2,0.5-0.3l2-1.5c0.8-0.5,2.3-1.8,2.9-2.4
				c0.3-0.3,0.5-0.5,0.7-0.5c0.2,0,0.2,0.1,0.2,0.2c-0.3,0.6-1.3,1.4-1.4,1.4c-0.2,0.2-0.2,0.2-0.4,0.5c-1.3,0.8-2.7,2.5-3.8,3.1
				c-1,0.5-1.7,1.4-2.2,1.4c-0.1,0-0.2-0.1-0.2-0.1s0.1,0.1-0.5,0.3l-1.6,0.3l-0.4-0.2c-0.2,0-0.3,0-0.4,0.1c-0.3,0-2.2-0.5-2.2-3.1
				c0-0.8,0.2-1.7,0.8-3c0-0.2,0.1-0.2,0.3-0.2c-0.1,0-0.1-0.1-0.1-0.2l0.3-0.6c0.2-0.3,0.3-0.6,0.5-0.9c0.4-0.5,1-1.6,1.5-2.5
				l0.9-1.6l-1.7,1.8c-0.8,0.9-1.8,1.8-1.9,1.9c-0.3,0.2-1.7,2-2.1,2c-0.2,0-0.2-0.1-0.2-0.2c0-0.2,0.1-0.3,0.3-0.5
				c1.8-1.8,6.2-7,6.8-7.7c0.2-0.4,0.3-0.5,0.5-0.8v-0.2c0-0.1,0.1-0.2,0.2-0.2c0.8-0.5,0.9-1.3,1.1-1.5c0.3-0.3,2.1-3.3,2.4-3.3
				l0.2-0.4c0.2-0.8,0.6-0.5,0.9-1.6c0.2-0.5,0.6-1.1,0.7-1.4c0.1-0.1,0.4-0.8,0.8-1.3c0.2-0.3,0.5-0.7,0.7-1.1h-0.5
				c-0.5,0-1.4,0.1-3.2,0.1c-0.2,0.1-0.4,0.1-0.6,0.1h-0.5c-0.3,0-0.5-0.1-0.8-0.1c-0.2,0-0.5,0.1-0.5,0.2c-0.1,0-0.2-0.1-0.2-0.2
				c0-0.1,0.1-0.3,0.1-0.4c0.1-0.2,0.4,0,0.5-0.2c0.1-0.2,0.2-0.3,0.5-0.3h0.4c0.1-0.1,0.2-0.1,0.4-0.1c0.5,0,1,0.2,1.5,0.2
				c0.2,0,0.4-0.1,0.6-0.2l0.6,0.1h0.8c0.1,0,0.5-0.1,1.1-0.1h0.5c0.2-0.4,0.4-0.7,0.6-0.9c0.3-0.5,0.7-1,0.9-1.3
				c0-0.1,0-0.1,0.1-0.2c0,0,0.1-0.1,0.2-0.3l0.3-0.5l0.9-1.7c0.5-0.8,0.9-1.7,1-2c0.6-1.7,2.1-3.2,2.7-4.3c0-0.1,0.2-0.4,0.2-0.6
				c0-0.1,0.1-0.2,0.2-0.2c0.1,0,1.1-0.5,1.1-1c0.2-0.2,0.5-0.4,0.8-0.4c0.4,0,0.9,0.3,0.9,0.6c0,0.1-0.1,0.2-0.2,0.2
				c-0.3,0.4-0.3,0.8-0.3,1.1c0,0.3,0,0.5-0.1,0.5c-0.2,0.2-0.2,0.2-0.2,0.3c0,0.1-0.2,0.8-0.2,1.3c0,0.5-0.8,0.8-0.8,1.1
				c-0.1,0.5-0.7,0.9-0.7,1.2c0,0.7-0.7,0.8-1.3,1.6l-3.2,5.3l1.6,0.1c0.8,0,1.6,0,1.8-0.1C608.8,26.4,608.8,26.4,608.9,26.4z"/>
			<path class="st0" d="M605.8,43.8c0.4-0.4,0.6-0.7,0.7-0.8l0.5-0.5c0-0.6,3.1-2.7,3.1-2.9c0-0.2,0.2-0.3,0.5-0.4
				c0.2,0,0.5-0.5,0.9-0.7c0.4-0.2,0.8-0.2,0.8-0.5c0.3-0.7,1.1-0.9,1.3-1.1c0.9-0.5,1.7-1.4,2.7-1.4c0.2,0,0.2,0.1,0.5,0.1
				c0.1,0,0.1,0,0.2-0.1c0.1,0,0.2-0.1,0.3-0.1c0.4,0,1.9,0.7,2.1,0.7c0-0.1,0,0.3,0.2,0.3c0.8,0.1,1.9,1.4,1.9,2
				c-0.1,0.2-0.1,0.4-0.3,0.6l-0.2,0.5c0.2,0,0.3,0,0.5,0.1c0.3,0.1,0.5,0.2,0.5,0.4c-0.4,0.8-0.8,1.4-1.1,2c-0.5,1.1-1.1,2-1.4,2.3
				c-0.2,0.2-0.2,0.5-0.7,0.8c-0.1,0.1-0.1,0.2-0.2,0.2c-0.1,0.1-0.1,0.2-0.1,0.4c0,1.1-1.9,3.2-1.9,4.6c-0.1,0.2-0.1,0.3-0.1,0.5
				c0,0.4,0.2,1.1,0.8,1.1c1.2,0,3.7-2.7,3.9-2.7c0.6-0.2,2.4-2.6,3-2.6c0.2,0,0.2,0.1,0.2,0.3c0,0.2-0.3,0.5-0.5,0.7l-3.3,3.4
				c-0.2,0.2-0.4,0.3-0.7,0.4c-0.2,0-1.8,2-4.5,2H615c-0.7,0-1.1-0.2-1.3-0.8c-0.2-0.3-0.3-0.4-0.3-0.6v-0.4c0-0.6,0.4-1.6,0.8-2.4
				c0.2-0.5,0.5-1,0.8-1.4c-0.9,0.8-1.7,1.6-2.6,2.3c-1.4,1.1-2.7,2.3-3.3,2.3c-0.2,0.1-0.1,0.1-0.3,0.3c-1.3,0.7-2.4,1.1-3.2,1.1
				c-1.6,0-2.4-1-2.4-3c0-0.2,0.1-0.5,0.1-0.8v-0.5c0-0.9,0.3-1.7,0.6-2.4c0.1-0.2,0.2-0.5,0.4-0.7l0.2-0.5l-0.8,0.8
				c-0.5,0.4-0.8,0.5-0.9,0.5c-0.1,0-0.2-0.1-0.2-0.2c0-0.2,0.2-0.5,0.3-0.5c1.5-1.6,2.4-2.4,2.7-2.7L605.8,43.8z M613.1,44.7
				c0-0.2,0.1-0.3,0.2-0.3c0.6,0,2.7-1.7,2.7-1.8c0.1,0,0.2-0.3,0.5-0.3c0.3,0,0.4-0.5,0.7-0.7c0.4-0.3,0.6-0.6,0.6-0.9
				s0.2-0.2,0.4-0.4c0.1-0.2,0.2-0.5,0.2-0.8c0-0.5-0.5-1.1-1.3-1.1c-0.2,0-0.2-0.1-0.5-0.1s-0.3-0.1-0.4-0.1s-0.5,0-0.8-0.2
				c-0.2,0-1.8,0-1.9,0.5c0,0.2-4.9,2.1-7.1,10.5v0.4c0,0.2-0.2,0.5-0.3,0.6c0,0.1,0.2,0.2,0.2,0.4v0.4c0,0.2,0.1,0.7,0.2,0.8
				c0.2,0.3,0.1,0.5,0.9,0.5h0.4c0.4,0,0.8,0,1.6-0.5c0.6-0.4,1.4-1,1.7-1.2c1-0.8,1.7-1.9,1.9-1.8c0.1,0.1,0.5-0.5,0.7-0.7
				c0.6-0.4,2.2-1.9,3-3.3c0.3-0.5,0.6-1.1,1-1.6l0.5-0.7c-0.2,0.2-0.3,0.3-0.5,0.4c-0.3,0.2-0.5,0.3-0.6,0.3
				c-0.1-0.1-2.7,2.1-3.7,2C613.2,44.9,613.1,44.7,613.1,44.7z M611.7,45.7c-0.1,0-0.2-0.1-0.2-0.2c0-0.2,0.1-0.2,0.3-0.2
				C611.9,45.6,611.8,45.7,611.7,45.7z M612.2,45.3c0-0.2,0.1-0.4,0.3-0.5c0.2,0,0.3,0.3,0.3,0.4c0.1,0.1-0.2,0.3-0.5,0.3
				C612.3,45.5,612.2,45.4,612.2,45.3z M622.3,29.2c0.3,0.5,0.9,1.5,1.3,1.9c0.2,0,0.2,0.4,0.2,0.6l0.2,0.4c0.2,0.1,0.2,0.4,0.8,0.9
				c0.2,0.2,0.2,0.5,0.2,0.8c0,0.1-0.1,0.2-0.2,0.2l-0.2,0.2c-0.2,0.2-0.2,0.5-0.8,0.5h-0.4c-0.2,0-0.3,0-0.3-0.1
				c-0.2-0.2-0.4-0.2-0.7-0.6c-0.5-0.6-0.3-0.6-0.9-1.5l-0.5-0.8c-0.2-0.2-0.2-0.3-0.4-0.5c-0.3-0.2-0.2-0.3-0.5-0.5l-0.3,0.2
				c-0.2,0.1-0.3,0.2-0.5,0.3c-0.2,0.1-0.6-0.1-1,0.3c-0.5,0.4-1,0.5-1.4,0.7c-0.2,0.1-0.4,0.2-0.6,0.2c-0.3,0.2-0.6,0.6-1.1,0.6
				c-0.4,0.2-0.6,0.4-0.8,0.4h-0.4c-0.1-0.1-0.1-0.2-0.1-0.4c0.2-0.3,0.8-0.4,1-0.6c0-0.2,0.5-0.5,0.8-0.5c0-0.1,0.6-0.5,1.1-0.8
				c0.3-0.2,0.7-0.5,1.1-0.7c0.5-0.3,1-0.7,1.5-1.1c0.2-0.2,0.5-0.4,0.8-0.6l0.4-0.2h0.3c0.2,0,0.3-0.1,0.4-0.1c0.2,0,0.2,0,0.3,0.1
				L622.3,29.2z M626.6,28.3c-0.1,0-0.4-0.2-0.5-0.2c-0.2-0.5-0.8-0.5-1.4-0.8l-0.6-0.5l-0.9-0.5c-0.1,0-0.2-0.2-0.3-0.2
				c-0.5-0.3-0.4-0.3-0.8-0.4l-2.9-1.4c-0.5-0.3-0.8-0.7-0.9-1.1l0.2-0.6c0.3-0.8,0.8-0.8,1.5-0.8c0.1,0.1,0.2,0.2,0.3,0.3
				c0.2,0.2,0.5,0.5,1.1,0.9c0.2,0,0.2,0.2,0.5,0.2c0.3,0.1,0.8,0.9,1.7,1.6c0.2,0.1,0.5,0.2,0.7,0.5c1.1,1,2.8,1.9,2.8,2.2
				C627.1,28,626.7,28.3,626.6,28.3z"/>
			<path class="st0" d="M625.4,46.1c-0.2,0.2-1.1,1.4-1.4,1.4c-0.2,0-0.3-0.1-0.3-0.2c0-0.2,0.2-0.3,0.4-0.5
				c0.2-0.1,0.2-0.2,0.4-0.3c0-0.2,0.5-0.5,0.5-0.6c0.2-0.3,0.2-0.6,0.8-0.8c0-0.1,0.8-0.8,0.8-1c0-0.1,1.8-1.7,2.3-2.7
				c0-0.2,0.7-0.7,1.2-1.2c1.1-1.3,1.7-2,2-2.3l1.1-1.1c0.5-0.5,0.5-1.5,1.1-1.5c0.1,0,0.2,0.1,0.2,0.1c0.4,0,0.8,0.2,1,0.2
				c0.7,0.2,1,0.5,1,0.9v0.4c0,0.1,0,0.1,0.1,0.2l-0.2,0.5c0,0.1-0.1,0.3-0.2,0.6c-0.1,0.2-0.1,0.3-0.2,0.4c0,0.5-0.8,1.4-0.8,1.5
				c-0.2,0.5-0.8,1.8-1.7,3.3c-0.2,0.3-0.4,0.6-0.6,0.8c-0.2,0.2-0.2,0.3-0.3,0.4l-4.2,7.7c0.5-0.4,1.1-0.8,1.6-1.3
				c1-0.8,2.2-1.8,3.4-3.3c0.5-0.6,0.7-0.5,0.8-0.7c0.6-0.8,1.3-1,1.3-1.2c0-0.2,0.5-0.8,0.8-0.8c0-0.2,3.9-3.9,5.9-5.5l2-2.2
				c0.1-0.1,0.2-0.1,0.2-0.1c0.2,0,0.3-0.1,0.4-0.2c0.1-0.1,0.2-0.1,0.3-0.1h0.5c0.5,0,1.4,0.4,1.4,1.3c0,0.3-0.2,0.6-0.5,1.1
				c-0.1,0.3-0.2,0.5-0.2,0.6c0,0.2-0.5,0.8-0.8,1.5c-0.2,0.6-1.1,3-1.4,3.2c-0.2,0-0.2,0.2-0.2,0.5c0,0.2-0.1,0.6-0.3,1
				c-0.1,0.2-0.2,0.4-0.2,0.5c-0.2,0.4-0.3,0.8-0.5,1.3c-0.3,0.8-0.6,1.6-0.9,2.4c-0.1,0.1-0.2,0.2-0.2,0.5c0,0.2,0,0.3,0.1,0.3
				c0,0.1,5.9-5.4,6.1-5.5c1.1-1.1,1.7-1.1,3-2.7c0.3-0.4,1.1-0.7,2-1.8c0.2-0.2,0.8-0.5,1.6-1.2c0.1-0.3,0.7-0.4,0.8-0.6l0.8-0.8
				c0.2-0.2,0.3-0.3,0.5-0.4c0.1,0.1,0.2-0.2,0.4-0.2c0.7,0,1.9,0.7,1.9,1.2c0,0.2,0.2,0.2,0.2,0.4c0,0.2-0.5,0.9-0.9,1.4
				c-0.7,0.7-1.7,3.9-2.2,3.9l-0.3,0.9c0,0.2-0.4,0.2-0.6,1.1c-0.1,0.2-0.2,0.3-0.3,0.5l-0.2,0.2c-0.2,0.3-0.3,0.6-0.4,0.8
				c-0.2,0.5-0.4,1.1-0.5,1.4c-0.1,0.5-0.2,0.8-0.2,1c0,0.7,0.4,0.8,0.9,0.8c1.1,0,2.7-0.5,4.6-2.3c0.2-0.1,0.5-0.2,0.8-0.7
				c0.1-0.1,0.2-0.2,0.5-0.4c0.9-0.6,0.8-0.7,1.3-1.1c0.1-0.1,0.2-0.2,0.2-0.2c0.2,0,0.2,0.1,0.2,0.2c0,0.1,0,0.2-0.1,0.2
				c-0.6,0.6-3.1,3.5-3.7,3.5c-0.2,0.1-0.5,0.2-0.5,0.2c-0.1,0.1-0.1,0.1-0.1,0.2c-0.1,0.1-0.2,0.2-0.3,0.2
				c-0.2,0.2-0.4,0.3-0.6,0.3c-0.2,0-1.7,1.4-3.4,1.4h-0.5c-0.5,0-0.8,0-1.4-0.3c-0.7,0-0.5-0.5-0.8-0.6c-0.1-0.1-0.1-0.2-0.1-0.4
				c-0.1,0-0.2-0.2-0.2-0.4v-0.8c0-0.2,0.2-0.5,0.2-0.8c0-0.4,0.2-0.8,0.5-1.5c0-0.2,0.2-0.3,0.4-0.8c0.6-1.9,1-1.4,1-1.8
				c0.1-0.4,0.2-0.6,0.5-0.9c0.6-1.1,1.1-2.1,1.4-2.8c0.2-0.4,0.4-0.8,0.5-1.1c-0.2-0.2-3.4,2.6-4.9,4c-2.4,2.4-3.6,3-3.6,3.3
				c-0.1,0.3-1.1,1.2-2,2.1c-0.5,0.5-1.2,1.1-1.9,1.7c-0.5,0.9-1.5,1.1-3,1.4c-0.8-0.1-1.3-0.2-1.3-1.4c0-0.3,0.2-0.5,0.2-1
				c0-0.7,0.3-1,0.5-1.2c0.2-0.2,1.4-3,1.4-3.3c0-0.5,0.5-0.5,0.5-0.8c0.2-1,1.7-4.5,2-4.9c0-0.1,0.1-0.3,0.3-0.8
				c0.1-0.2,0.2-0.5,0.4-0.7l-1.9,1.9c-1,1-1.9,1.9-2,1.9c-0.5,0-4.4,3.9-5.6,5.1c-0.2,0.2-1.1,1.4-1.5,1.6
				c-1.2,0.9-2.2,2.6-2.8,2.9c-0.8,0.3-1.1,1.1-1.2,1.1c-0.3,0.3-0.8,0-1.4,0.4c-0.1,0.1-0.2,0.1-0.2,0.1c-0.5,0-1.3-0.7-1.3-1.4
				c0-0.1,0.1-0.1,0.1-0.3s-0.1-0.2-0.1-0.8c0-0.5,0.2-1.1,1.1-2c0.3-0.3,0.9-2.1,1.2-2.5c0.4-0.6,2.3-3.3,2.3-3.9
				c0.1-0.2,0.2-0.2,0.3-0.5c0.1-0.1,0.1-0.2,0.2-0.2c0.3-0.4,0.6-0.8,0.8-1.4c0.5-0.8,0.9-1.8,1.3-2.8c0.1-0.2-0.4,0.6-2.7,3
				c-0.2,0.2-0.6,0.9-1.1,1.3l-1.1,1.1L625.4,46.1z"/>
			<path class="st0" d="M695.1,26.4c0.2,0,0.2,0.2,0.3,0.2l3.2-0.2c0.4,0,0.8-0.2,1-0.2c0.5,0,1-0.1,1.4-0.1h3l1.2,0.2
				c0.2,0,0.3,0.2,0.3,0.4c0,0.3-0.1,0.5-0.2,0.5c-0.5,0.3-0.8,0.3-1.3,0.3c0,0.1-0.2,0.2-0.7,0.2h-1c-0.2,0-0.4,0-0.5-0.1
				c-0.6,0-0.9-0.2-1.3-0.2c-0.2,0-0.4,0-0.5,0.1c-0.1,0-0.2-0.1-0.4-0.1c-0.5,0.2-0.6,0.2-0.7,0.2c-0.5,0-1.3-0.1-2.1-0.1H692h-1.1
				c-0.4,0.6-0.8,1.1-1,1.7c-0.5,0.8-0.9,1.7-1.1,2c0,0.1,0,0.1-0.1,0.2c-0.1,0.1-0.1,0.1-0.1,0.2c0,0.1,0,0.1-0.1,0.1
				c-0.2,0.4-0.3,0.3-0.3,0.4c-0.5,1.5-1.3,2.4-1.4,2.5c-2,3.2-5,7.7-6.6,10.8c0,0.1,0,0.1-0.1,0.1H680c-0.1,0.1-0.1,0.2-0.2,0.2
				c-0.1,0.1-0.1,0.2-0.1,0.4c-0.2,0.7-0.8,1.2-0.9,1.6c-0.2,0.9-1.1,2-1.1,3.3c0,0.2,0.1,0.5,0.1,0.7c0,0.3,0.1,0.5,0.2,0.8
				c0.2,0.2,0.6,0.2,0.9,0.2l0.3,0.1c1.4,0,2-0.6,2.4-0.8c0.1,0,0.5-0.2,0.5-0.3l2-1.5c0.8-0.5,2.3-1.8,2.9-2.4
				c0.3-0.3,0.5-0.5,0.7-0.5c0.2,0,0.2,0.1,0.2,0.2c-0.3,0.6-1.3,1.4-1.4,1.4c-0.2,0.2-0.2,0.2-0.4,0.5c-1.3,0.8-2.7,2.5-3.8,3.1
				c-1,0.5-1.7,1.4-2.2,1.4c-0.1,0-0.2-0.1-0.2-0.1s0.1,0.1-0.5,0.3L678,54l-0.4-0.2c-0.2,0-0.3,0-0.4,0.1c-0.3,0-2.2-0.5-2.2-3.1
				c0-0.8,0.2-1.7,0.8-3c0-0.2,0.1-0.2,0.3-0.2c-0.1,0-0.1-0.1-0.1-0.2l0.3-0.6c0.2-0.3,0.3-0.6,0.5-0.9c0.4-0.5,1-1.6,1.5-2.5
				l0.9-1.6l-1.7,1.8c-0.8,0.9-1.8,1.8-1.9,1.9c-0.3,0.2-1.7,2-2.1,2c-0.2,0-0.2-0.1-0.2-0.2c0-0.2,0.1-0.3,0.3-0.5
				c1.8-1.8,6.2-7,6.8-7.7c0.2-0.4,0.3-0.5,0.5-0.8v-0.2c0-0.1,0.1-0.2,0.2-0.2c0.8-0.5,0.9-1.3,1.1-1.5c0.3-0.3,2.1-3.3,2.4-3.3
				l0.2-0.4c0.2-0.8,0.6-0.5,0.9-1.6c0.2-0.5,0.6-1.1,0.7-1.4c0.1-0.1,0.4-0.8,0.8-1.3c0.2-0.3,0.5-0.7,0.7-1.1h-0.5
				c-0.5,0-1.4,0.1-3.2,0.1c-0.2,0.1-0.4,0.1-0.6,0.1h-0.5c-0.3,0-0.5-0.1-0.8-0.1c-0.2,0-0.5,0.1-0.5,0.2c-0.1,0-0.2-0.1-0.2-0.2
				c0-0.1,0.1-0.3,0.1-0.4c0.1-0.2,0.4,0,0.5-0.2c0.1-0.2,0.2-0.3,0.5-0.3h0.4c0.1-0.1,0.2-0.1,0.4-0.1c0.5,0,1,0.2,1.5,0.2
				c0.2,0,0.4-0.1,0.6-0.2l0.6,0.1h0.8c0.1,0,0.5-0.1,1.1-0.1h0.5c0.2-0.4,0.4-0.7,0.6-0.9c0.3-0.5,0.7-1,0.9-1.3
				c0-0.1,0-0.1,0.1-0.2c0,0,0.1-0.1,0.2-0.3l0.3-0.5l0.9-1.7c0.5-0.8,0.9-1.7,1-2c0.6-1.7,2.1-3.2,2.7-4.3c0-0.1,0.2-0.4,0.2-0.6
				c0-0.1,0.1-0.2,0.2-0.2c0.1,0,1.1-0.5,1.1-1c0.2-0.2,0.5-0.4,0.8-0.4c0.4,0,0.9,0.3,0.9,0.6c0,0.1-0.1,0.2-0.2,0.2
				c-0.3,0.4-0.3,0.8-0.3,1.1c0,0.3,0,0.5-0.1,0.5c-0.2,0.2-0.2,0.2-0.2,0.3c0,0.1-0.2,0.8-0.2,1.3c0,0.5-0.8,0.8-0.8,1.1
				c-0.1,0.5-0.7,0.9-0.7,1.2c0,0.7-0.7,0.8-1.3,1.6l-3.2,5.3l1.6,0.1c0.8,0,1.6,0,1.8-0.1C695.1,26.4,695.1,26.4,695.1,26.4z"/>
			<path class="st0" d="M693.5,51.9c-0.1,0.2-0.2,0.4-0.2,0.6l1-0.8c1.8-2.8,9.6-9.9,11-11.3l0.2-0.2c0.9-1,2.3-1.9,2.6-2.2
				c0.2-0.2,0.3-0.5,0.5-0.5c0.8-0.1,1.4-1.2,1.9-1.2c0.5,0.2,0.3,0.2,0.5,0.4c0.2,0,1,0.5,1.1,0.7c0,0.2,0,0.4-0.1,0.5
				c0,0.1,0.2,0.4,0.2,0.6c0,0.1-0.1,0.2-0.2,0.3l-0.5,0.7c-0.2,0.4-0.4,0.7-0.4,0.8l-1.3,2.4c0,0.2-0.1,0.3-0.2,0.5
				c-0.1,0.2-0.2,0.3-0.2,0.5c-0.1,0.1-0.1,0.2-0.2,0.2l-0.3,0.5c-0.2,0.3-0.3,0.5-0.3,0.6c0,0.2-0.9,2.1-0.9,2.4
				c-0.2,0.7-0.5,2.1-0.5,2.7c0,0.6,0.2,0.9,0.3,1.4c0,0.1,0.3,0.4,0.6,0.4s0.6-0.1,0.9-0.2c0.5-0.2,0.6-0.3,1.4-1.1
				c0-0.2,1.9-1.6,2-1.6c0.2,0,0.2-0.1,0.2-0.2c0.2-0.4,0.3-0.6,0.5-0.6c0.2,0,0.2,0.2,0.2,0.4c-0.2,0.4-0.8,0.5-0.8,0.8
				c0,0.2-0.9,0.9-1.4,1.4l-0.4,0.2c0,0.2,0,0.2-0.1,0.2c-1.1,0.6-2.4,2.1-4,2.1c-0.5,0-1.3-0.4-1.4-0.4c-0.1,0-0.2-0.1-0.2-0.1
				c-0.1,0-0.3-0.8-0.6-0.8c-0.2-0.1-0.3-0.3-0.3-0.7V50c0-1.8,0.4-3.6,0.9-5.1c0.2-0.1,0.2-0.2,0.2-0.5c0-0.2,0.6-1.6,0.8-1.8
				c0-0.1,0.1-0.1,0.1-0.3l0.8-1.5c0.2-0.5,0.5-0.9,0.8-1.4c-0.4,0.2-0.8,0.5-1.2,0.8c-0.7,0.5-1.7,1.2-2.5,2.4
				c-0.2,0-2.6,2.3-2.7,2.4c-0.8,0.5-3.6,4-3.7,4l-0.6,0.3c-0.1,0.1-0.2,0.1-0.2,0.2c0.1,0.1-3.9,4.9-4.9,4.9
				c-0.1,0-0.2-0.2-0.4-0.2h-0.4c-1.1,0-1.4-1.1-1.4-1.4c0-0.2,0.2-0.2,0.2-0.5c0-1.1,0.6-1.4,0.6-1.7c0.1-0.2,0.3-1,0.5-1.2
				c0.2-0.2,0.3-0.3,0.3-0.4l1.2-2.4c0.1-0.2,0.5-0.2,0.5-0.5c0.1-0.5,0.3-0.8,0.5-1.2c0.2-0.2,0.3-0.4,0.5-0.5c0-0.1,0-0.2,0.1-0.2
				c0.1-0.2,0.2-0.3,0.4-0.7l2.7-4.2l-1.6,1.8l-0.6,0.6c-0.7,0.5-1.6,1.7-1.8,1.9c-0.9,0.8-1.7,1.5-2.2,2l-0.9,0.9l-0.3,0.3
				c-0.2,0.2-0.4,0.4-0.6,0.5c-0.1,0.1-0.2,0.2-0.3,0.2c-0.2,0-0.2-0.1-0.2-0.2c0-0.2,0.1-0.3,0.2-0.5c0,0,2.1-1.8,2.7-2.7l0.5-0.5
				c0.2-0.4,5.2-5,5.6-6.1c0.2-0.5,0.8-0.6,0.8-0.8c0-0.2,0.2-0.5,0.5-0.8c1.4-2,2.2-3.5,4.5-7l0.5-1c0.1-0.2,0-0.2,0.3-0.5
				c0.3-0.3,0.8-0.9,0.8-1.4c0.8-1.6,2-3.3,2.5-4.2c0-0.2,0.2-0.6,0.3-0.7c0.6-0.3,0.8-1.1,1-1.5c2.2-3.4,3.6-5.3,3.6-5.5
				c0-0.1,0.4-0.8,0.7-1c0.2-0.1,1-1.1,1.2-1.3c0.5-0.7,1.1-1.1,1.7-1.8c0.1-0.2,1.4-0.9,2-1.6c0.2-0.2,0.8-0.5,1.1-0.5
				c0.8-0.3,1.1-0.8,2-0.8c0.4,0,0.7,0.3,1.1,0.8v0.3c0,0.2,0,0.3,0.1,0.3c-0.1,0.1-0.1,0.2-0.1,0.2v0.3c0,0.8-0.1,1.7-0.7,3.3
				c-0.2,0.5-0.5,1.1-0.5,1.4c-1.2,2.2-3.6,5.2-4.8,6.4l-3.2,3.4c-0.8,0.8-1.3,1.4-1.8,2l-0.7,0.9v0.2c0,0.1-0.1,0.1-0.2,0.1
				c-0.3,0-0.5,0.5-0.7,0.7c-1,1.1-2.4,2.2-4.5,4.3c-0.3,0.3-1.1,0.8-1.5,1.7l-0.3,0.5c-1.2,1.9-4,6.8-4.3,7.1
				c-0.1,0.1-0.2,0.8-0.5,1c-0.2,0.2-0.9,1.4-1,1.4c-0.1,0.1-0.2,0.4-0.5,0.8c0.1-0.2-0.8,1.5-1.9,3.6c-0.2,0.4-1.4,2.6-1.6,3
				C693.6,51.3,693.5,51.6,693.5,51.9z M709.6,26.6c0.1-0.2,0.2-0.3,0.5-0.5l0.3-0.3c0.6-0.7,1.2-1.4,1.7-2c0.9-1.1,1.9-2.3,2.4-2.9
				c0.1-0.2,0.3-0.2,0.5-0.4c0.8-1.1,1-0.8,1.1-1.1c0-0.5,1.4-2.2,1.6-2.6c2.4-3,2.8-5.2,2.8-5.5c-0.1,0-0.1,0-0.1-0.1v-0.2
				c0-0.5,0.3-0.8,0.3-1.3c0-0.2-0.1-0.4-0.2-0.4c-1.2,0-6.1,6.2-6.2,6.4c-0.1,0.1-0.5,1-0.7,1.1c-0.2,0.1-0.4,1-0.8,1.2
				c-0.2,0.2-1.1,1.6-1,1.5c0.2-0.2-3.1,5.2-3.6,6c-0.1,0.1-0.3,0.5-0.5,0.8l-0.5,0.8c-0.1,0.2-0.7,1.1-1.3,2
				c-0.4,0.5-0.8,1.2-1.1,1.9c0.9-0.8,1.7-1.6,2.4-2.3L709.6,26.6z M714.6,46.9c0.2,0,0.2,0.1,0.2,0.3c-0.2,0.4-0.8,0.8-1.1,0.8
				C713.8,47.4,714.6,46.9,714.6,46.9z"/>
			<path class="st0" d="M714.8,46.6l0.5-0.5l0.6-0.7c1.4-1.4,2.5-2.9,3.4-3.8c0.4-0.4,0.4-0.5,0.6-0.8c0.2-0.4,0.4-0.4,0.4-0.6
				c0-0.1,0-0.2,0.1-0.2c0.7-1.1,1.1-2,1.6-2.8c0.2-0.4,0.3-1,0.3-1.7c0-0.3,0.5-0.4,0.5-0.4c0.2,0.1,1,1.1,1.4,1.4
				c0.5,0.1,0.7,0.5,0.7,1.1c-0.5,1.1-0.9,1.8-1.1,2c-0.5,0.4-1.2,2-2.4,3.7c-0.3,0.5-0.3,0.8-0.8,1.3c-0.2,0.2-0.5,0.8-0.8,1.4
				s-0.8,1.8-1.1,2.4c-0.1,0.1-0.2,0.2-0.2,0.5c0,0.2-0.2,0.5-0.2,0.6c-0.1,0.2-0.3,0.6-0.3,1.2c0,0.2,0.1,0.2,0.1,0.5
				c0,0.2,0.1,0.3,0.2,0.5c0.2,0.4,0.7,0.5,1.2,0.5c1.3,0,2.1-0.7,2.4-0.9c0.3-0.2,0.8-0.7,0.9-0.7c0.4-0.2,0.8-0.6,1.2-0.9
				c2.4-1.8,4.1-4,4.9-4.9c0.2-0.2,0.2-0.5,0.5-0.8s0.3-1.1,1.1-2l1.1-1.9c0.3-0.5,0.5-0.9,1.1-1.7c0.1-0.2,0.7-0.6,0.9-0.6
				c0.5,0,1.6,0.2,1.6,0.8c0,0.1-0.1,0.2-0.1,0.4c0,0.1,0,0.2,0.1,0.2c0,0.1-0.1,0.7-0.7,1.3c-0.2,0.2-0.8,1.4-1.4,2
				c0.8-0.2,1.7-0.5,2.3-1.1c0.8-0.2,0.8-0.9,1.3-1.2v-0.4c0-0.2-0.1-0.4-0.2-0.6c-0.5-0.5-0.6-2.1-0.6-2.7l0.3-0.3
				c0.2-0.4,0.5-0.9,1.3-0.9c0.2-0.1,0.3-0.1,0.5-0.2c0.3-0.1,0.6-0.1,0.8,0c0.3,0.1,0.4,0.3,0.5,0.5c0.2,0.1,0.3,0.5,0.5,0.8
				c0.5,0.2,0.4,0.8,0.5,0.8c0.2,0.4,0.4,1.4-0.3,2.6c-0.1,0.2-0.2,0.5-0.5,0.8c-1.4,1.4-2,1.6-2.9,2c-0.5,0.2-2.6,0.7-4.1,0.9
				c-0.1,0.1-0.1,0.1-0.1,0.2c-0.4,0.8-1.2,2.1-2.4,4.3c0,0.3-0.6,1.2-0.7,1.4c-0.1,0.6-0.7,1.4-0.7,2.3c0,0.4,0.1,0.8,0.7,0.8
				c0.2,0,0.5-0.1,0.9-0.3c0.4-0.2,0.8-0.5,1.1-0.7c0.2-0.1,0.4-0.2,0.5-0.3c0.5-0.5,1.3-1,3.1-2.6c0.5-0.5,1.1-1,1.3-1.2
				c0.3-0.2,0.4-0.5,0.6-0.5c0.2,0,0.2,0.1,0.2,0.2c0,0.2-0.1,0.2-0.2,0.3c-0.4,0.6-2.4,2.4-2.9,3c-0.6,0.5-1.1,1-1.4,1.2
				c-0.4,0.2-0.9,0.8-1.5,1.3l-0.8,0.5c-0.5,0.2-0.9,0.5-1.2,0.5c-0.2,0.1-0.4,0.2-0.5,0.2h-0.5c-0.2,0-0.2-0.1-0.5-0.1
				c-0.8,0-0.7-0.5-1.1-0.8c-0.2-0.1,0-0.4-0.2-0.5c-0.2-0.2-0.4-1.1-0.4-1.3c0-0.3,0.2-0.4,0.2-0.9c0.5-1.5,1.3-2.9,1.5-3.1
				c0,0.1-2.6,2.7-3.1,3.1l-0.4,0.3c-0.1,0.1-0.3,0.2-0.5,0.5l-1,0.8c-1.1,0.9-2.9,2-4.3,2h-0.5c-0.5,0-0.7,0-0.7-0.1
				c-0.1-0.2-0.5-0.2-0.5-0.2c-0.2-0.2-0.8-0.3-0.8-0.5c-0.1-0.2-0.5-0.8-0.5-1.1c0-0.1-0.1-0.4-0.1-0.6V51
				c-0.1-0.1-0.2-0.2-0.2-0.4c0-0.2,0.1-0.4,0.2-0.6c0.1-0.3-0.1-0.8,0.2-1.2c0.4-0.8,0.6-1.8,1.1-2.4c0.2-0.2,0.3-0.6,0.5-0.9
				l1-1.4l-2.1,2c-0.5,0.6-1.2,1.3-1.5,1.3c-0.1,0-0.2-0.1-0.2-0.2c0-0.1,0.1-0.2,0.3-0.5L714.8,46.6z"/>
			<path class="st0" d="M756,36.5c0.4-0.2,0.7-0.2,1-0.2c0.1,0.1,0.3,0.2,0.5,0.5c0.2,0.2,0.4,0.6,0.6,0.6c0.6,0.3,0.6,0.6,0.5,0.8
				c0.2,0.2,0.8,1.3,0.4,2.7c-0.1,0.3-0.2,0.5-0.3,0.8c-1.1,1.8-1.7,2.1-2.7,2.8c-0.4,0.4-3.2,1.5-4.6,1.9c-0.1,0.2-0.2,0.3-0.2,0.4
				c-0.4,0.6-1.1,1.4-1.6,2c-0.4,0.4-0.7,0.7-1.1,1h0.8c0.4,0,0.7,0,0.8-0.1c0.2-0.1,1.4-0.2,2-0.8c1.4-0.7,2.3-1.8,3-2
				c0.2,0,0.2,0.1,0.2,0.2c0,0.5-1.5,1.5-2.7,2.4c-0.2,0.1-0.3,0.2-0.5,0.3l-0.4,0.1c-0.4,0.1-0.5,0.4-0.8,0.4l-1.1,0.3
				c-0.1,0.1-0.2,0.1-0.2,0.1H749l-0.3,0.1h-0.6c-0.1,0-0.2,0-0.2-0.1l-0.2,0.2c-0.2,0.2-0.4,0.3-0.5,0.3c-0.4,0.2-0.9,1.2-2.1,1.7
				c-0.4,0.2-1.2,1-2.8,1.2c-0.2,0-0.1-0.1-0.3-0.2c-0.1,0-0.8,0.2-1.4,0.2c-0.4-0.1-0.6-0.2-0.8-0.3l-0.1-0.1
				c-0.5-0.2-0.9-0.4-1.3-0.6c-0.6-0.5-1.2-1.3-1.2-2.5v-0.5c0-0.4,0-0.8,0.2-1.3c0.1-0.2,0.2-0.4,0.2-0.6v-0.3
				c0.1,0,0.1-0.1,0.2-0.2c0.1-0.1,0.1-0.2,0.2-0.5c0.1-0.3,0.2-0.6,0.4-1c0.1-0.2,0.2-0.4,0.2-0.5c-0.2,0.1-0.3,0.2-0.5,0.5
				c-0.3,0.3-0.6,0.7-0.9,1c-0.2,0.2-0.4,0.4-0.7,0.4c-0.1,0-0.2-0.1-0.2-0.2c0-0.1,0.2-0.3,0.4-0.5l0.5-0.6c1.4-1.5,3-3.5,4.2-4.8
				l0.2-0.3l0.6-0.8c1.5-1.7,4.4-4.2,6.6-4.6c0.2,0,0.4-0.1,0.6-0.1c0.7,0,1.5,0.2,1.6,0.4c0.2,0.2-0.2,0.5,0.5,0.5
				c0.1,0,0.4,0.5,0.5,0.7c0,0.2,0.6,0.2,0.7,0.6c0.1,0.5,0.2,0.8,0.2,0.9c0,0.3-0.1,0.6-0.1,0.8c0,0.2,0.3,0.6,0.3,1.7
				c0,0.9-0.2,2.2-1.1,4c0.8-0.2,2.1-0.7,2.8-1.8c0.5-0.3,0.4-1.1,0.9-1.6c0.1-0.1,0.1-0.2,0-0.3c-0.1-0.2-0.2-0.4-0.5-0.5
				c-0.5-0.4-1.3-1.9-1.3-2.9l0.2-0.3c0.2-0.5,0.5-0.9,1.4-1.1C755.6,36.7,755.8,36.5,756,36.5z M744.4,40.6
				c-0.2,0.2-0.8,1.1-1.1,1.3c-0.4,0.3-0.7,1.4-0.9,1.5l-0.2,0.2v0.2c-0.4,0.5-0.8,1.1-1.1,1.7c-0.5,1-1,2.4-1,3.5v0.5
				c0,0.7,0.2,1.1,0.4,1.5c0.1,0.2,0.2,0.3,0.4,0.4c0.2,0.2,0.2,0.5,0.4,0.5c0.1,0,0.3,0.2,0.4,0.2c0.2,0,0.8,0,1,0.1
				c0.2,0.1,0.4,0.1,0.6,0.1c1.3,0,2.5-1,3.5-1.8c-0.7-0.2-2-1.1-2.2-1.7c-0.2-0.5-0.7-1.1-0.7-1.7v-0.2c0-0.1-0.1-0.2-0.1-0.2
				c-0.2-0.4-0.2-0.7-0.2-1.1c0-0.3,0.1-0.5,0.1-0.7l-0.1-1.1c0-0.2,0.1-0.3,0.1-0.4c0-0.2,0-0.5,0.2-1.1c0-0.1,0.1-0.2,0.1-0.4
				S744.2,40.9,744.4,40.6z M750.4,45.7c0-0.3,0.4-0.5,0.4-0.8c0-0.1,0.8-1.5,0.8-3.6c-0.1-2-1.1-3.1-1.7-3.3
				c-0.2-0.1-0.4-0.1-0.6-0.1c-2,0-3.9,3.2-4.1,5.5c-0.1,0.1-0.1,0.2-0.1,0.5c-0.1,0.3-0.1,0.7-0.1,1c0,1.1,0.2,2.8,0.8,3.4
				c0.1,0.2,0.2,0.4,0.5,0.5c0.3,0.3,0.8,0.5,1.3,0.7c1.3-1.4,2.4-3.1,2.5-3.2C750.2,46.1,750.4,45.9,750.4,45.7z"/>
			<path class="st0" d="M763.7,37.4c0.2-0.2,0.6-0.5,0.6-0.8c0-0.3,0.5-0.7,1-0.9c0.1-0.1,0.2-0.1,0.4-0.1c0.5,0,0.8,0.6,1.5,0.8
				c0.2,0,0.4,0.2,0.4,0.4c0,0.1-0.1,0.2-0.1,0.2c-0.8,2-2.4,4.6-3.4,5.8c-0.1,0.1-0.1,0.2-0.1,0.3c-0.2,0.4-1.5,2.7-1.5,2.8
				l-0.3,0.5c-1.9,3.1-3.1,5.8-3.1,6.3c0.2,0,0.8-0.5,1.4-1.2l1.9-2c2-2.4,3-3.5,3.6-4c0.4-0.3,0.6-0.5,0.7-0.5c0-0.1,0-0.2,0.1-0.3
				c0.1-0.2,0.2-0.3,0.4-0.3c0.3,0,2.4-2.2,2.8-2.6c1-0.6,0.8-1.6,2.3-2c0.1,0,0.2-0.1,0.2-0.2c0.2-0.6,1-0.7,1.5-0.7
				c0.1,0,0.2,0,0.2,0.1c0.2,0.2,0.2,0.4,0.4,0.5c0.4,0.1,1,0.4,1,0.6v0.4c0,1-0.7,1.5-0.7,2c0,0.8-1,1.4-1,2.2c0,0.2,0,0.2-0.1,0.3
				l-0.5,0.9c-0.1,0.1-0.1,0.2-0.1,0.2v0.3c-0.4,0.9-0.6,2.4-0.6,3.5c0,1,0.1,1.5,0.8,1.5c0.5,0,1.1-0.2,2.4-1.6
				c0.1-0.1,0.5-0.6,0.8-0.7c1-0.6,2-1.6,2.6-2.1c0.1-0.1,0.2-0.2,0.4-0.2c0.1,0,0.2,0.1,0.2,0.2v0.2c-0.2,0.4-0.9,1.1-1,1.1
				c-0.5,0-1.4,1.7-1.9,1.8c-0.4,0.2-0.8,0.5-1.1,0.8c-0.2,0.2-0.4,0.4-0.5,0.6c-0.1,0-0.2,0-0.2,0.1c-0.1,0.1-0.2,0.2-0.4,0.5
				c0,0-0.2,0.1-0.4,0.2c-0.2,0.1-0.3,0.1-0.4,0.2c-0.2,0.2-0.3,0.3-0.5,0.4c-0.3,0.2-0.6,0.3-0.8,0.3c-0.1,0-0.2,0-0.2-0.1
				c-0.1-0.1-0.2-0.1-0.2-0.1c-0.2,0-0.2,0.1-0.6,0.1l-0.2-0.2c-0.1-0.1-0.2-0.1-0.3-0.2c-0.3,0-1.2-1.1-1.2-3.3
				c0-0.8,0.2-1.8,0.5-3c0.2-0.5,0.5-1.4,0.8-2.1c0.4-0.8,0.6-1.5,0.7-1.7c0-0.1,0.1-0.2,0.1-0.5v-0.2c-1.1,0.8-2,1.7-3,2.5
				c-1.6,1.4-3.5,3.2-4.6,4.5c-1.1,1.2-1.7,1.4-2.5,2.4c-0.8,1.1-2.6,2.9-4.5,2.9H757c-0.1-0.2-1.4-0.4-1.4-1.2
				c0-0.2,0.1-0.5,0.3-0.8c0.3-0.5,0.5-1.2,0.7-1.4c0.3-0.2,0.5-1.1,0.7-1.3c0.2-0.2,0.4-0.2,0.4-0.4c1.6-3.4,2.2-3.6,2.4-3.9l3-5.6
				c0-0.2-3.2,3.9-4.7,4.9c-0.2,0.1-0.5,1.1-1.1,1.3c-0.6,0.4-1.1,1-1.7,1.6c-0.1,0.1-0.2,0.4-0.5,0.4c-0.2,0-0.2-0.2-0.2-0.4
				c0.8-1.1,2-2,3.3-3.7c0.1-0.1,0.3,0,0.4-0.2c0.3-0.6,1.5-1.6,1.5-1.7c0-0.2,0.3-0.2,0.4-0.5C760.6,40.6,762.8,38.5,763.7,37.4z"
				/>
			<path class="st0" d="M781.4,44.8c-0.1,0,2.7-2.9,3.3-3.3c1.1-1.3,2.7-2.5,2.8-2.7c0.2-0.3,2.4-1.5,2.4-1.6c0.5-0.8,1.7-1.2,3-1.2
				c0.6,0,1.7,0.2,2.1,0.4c0.1,0.1,0.2,0.2,0.3,0.3c0.2,0.2,0.5,0.4,0.8,0.6c0.3,0.2,0.7,0.6,0.9,1.1l0.2-0.4
				c0.2-0.2,1.6-3.2,1.7-3.3c0.2-0.2,0.7-1.3,1.3-1.3l0.8,0.5c0.5,0.4,0.8,0.8,0.8,1.2c0,0.2-0.1,0.4-0.3,0.6
				c-0.1,0.1-0.1,0.2-0.1,0.4c0,0.2-0.1,0.3-0.2,0.4c-0.5,0.2-0.5,0.2-0.5,0.5c-0.1,0.4-1,1.1-1,1.4c0,0.2,0,0.2-0.1,0.3l-0.2,0.6
				c-0.8,1.2-1.4,2.2-1.8,2.9c-0.2,0.4-0.4,0.8-0.6,1.1c-0.1,0.1-0.1,0.1-0.1,0.2c-0.1,0.1-0.1,0.2-0.2,0.3
				c-0.1,0.3-0.7,0.6-0.7,0.9c-0.2,0.5-1,2-2.9,4.9c-0.1,0.1-1.1,1.7-2.2,3.3c-0.6,1-1.3,2-2.1,3.3c0.8-0.5,1.5-1,2.4-1.5
				c1.4-0.9,3-2.1,4.4-3.3s3.6-3.3,5-4.4c0.1-0.1,0.2-0.1,0.2-0.1c0.2,0,0.2,0.1,0.2,0.2c-0.1,0.3-0.5,0.5-0.5,0.7
				c-0.1,0.3-1,0.5-2.5,2.3c-0.2,0.3-0.4,0.4-0.6,0.6c-0.8,0.8-2.7,2-3,2.4c-1.6,1-4.6,3.3-6.4,4.3c-0.2,0.3-0.3,0.6-0.5,0.8
				c-0.2,0.5-0.6,0.8-0.7,1.1c-0.1,0.2-0.5,0.6-0.8,1.1c-0.2,0.3-0.4,0.6-0.6,1c-0.1,0.2-0.2,0.3-0.2,0.5c-0.2,0.3-0.4,0.6-0.8,1
				c-0.2,0.2,0,0.3-0.2,0.5c-0.5,0.5-0.5,0.9-0.7,1c-0.2,0.2-0.4,0.4-0.5,0.7c-0.1,0.2-0.2,0.4-0.3,0.5c-0.1,0.1-0.2,0.2-0.3,0.4
				c-0.2,0.4-0.7,1.1-1.5,2.3c-0.1,0.2-0.5,0.8-0.7,1.1c-1.1,2.1-3.3,4.9-4.5,6.4c-0.2,0.3-0.5,0.5-0.8,0.8
				c-0.2,0.2-0.3,0.2-0.4,0.3c-0.3,0.5-0.7,0.9-1.1,1.4c-0.7,0.8-1.7,1.9-3,2.8c-0.5,0.4-0.9,0.8-1.3,1.1c-0.6,0.4-1.9,1.1-2.7,1.1
				c-0.3,0-0.5-0.1-0.6-0.2c-0.5-0.4-1.5-0.3-1.5-1.9v-0.4c0-0.5,0.2-0.8,0.2-1.5v-0.2c0-0.1,0-0.1,0.1-0.1c0.2-0.3,0.5-0.8,0.5-1.4
				c0-0.2,0-0.3,0.1-0.4c0.2-0.5,0.5-1.3,1.1-2.1c0-0.3,1-1.7,1.9-2.6c1.2-1.8,4.3-5.4,6.7-7c0.3-0.2,0.8-1,1.4-1.2
				c0.3-0.2,0.5-0.4,0.7-0.5c1-0.9,2-1.2,3.7-2.4c0.2-0.2,0.3-0.2,0.5-0.4c0.2-0.3,0.4-0.2,0.6-0.5l2.7-1.7c0.7-1.1,1.3-2,1.9-3
				c1-1.7,2.2-3.6,2.9-4.7c0.5-0.7,0.7-1.1,0.8-1.3c0,0,0.1-0.2,0.3-0.5c0.1-0.1,0.2-0.2,0.2-0.4c-0.5,0.4-1,0.8-1.5,1.2
				c-0.9,0.7-2,1.5-3.1,2c-1,0.5-1.2,0.8-2.2,1.2c-0.5,0.2-1,0.2-1.3,0.2h-0.5c-0.6,0-2.5-0.8-2.7-2.1c0-0.9,0.2-1.9,0.2-2.2
				c0-0.2-0.1-0.3-0.1-0.4V49c0-0.1,0-0.2,0.1-0.2c0-0.1,0-0.2,0.1-0.3l0.4-0.8c0.2-0.5,0.6-1,0.9-1.5c-0.6,0.5-1.4,1.4-1.7,1.4
				c-0.1,0-0.2-0.1-0.2-0.2c0-0.2,0.2-0.4,0.5-0.7L781.4,44.8z M783.2,61.8c0.4-0.6,0.6-1.1,0.8-1.4c0.1-0.2,0.2-0.4,0.3-0.5
				c-0.8,0.5-1.6,1.1-2.4,1.7c-1.4,1.1-3.3,2.4-5.1,3.9c-0.5,0.5-2.2,2.6-2.5,2.6c-0.4,0.1-0.1,0.1-0.3,0.3
				c-0.5,0.5-3.2,3.5-3.2,4.2c-0.4,0.6-1.8,2.6-2,4.1c-0.1,0.6-0.2,0.4-0.2,0.9c0,0.2-0.2,0.5-0.2,0.7c0,0.8-0.4,1.2-0.4,1.7
				c0,0.8,0.2,1.8,0.5,1.8c0.5,0,3.1-2.5,4.1-3.7c3.6-4.6,4.9-6.5,5.2-7.1c0.1-0.2,0.5-0.7,0.7-0.9c0-0.2,0.2-0.3,0.2-0.5l0.2-0.2
				l1.7-3c0.2-0.2,0.1-0.3,0.3-0.5c0.1-0.1,0.1-0.2,0.2-0.2c0-0.1,0-0.1,0.1-0.2c0-0.1,0.1-0.2,0.2-0.4l0.2-0.2l0.5-0.8L783.2,61.8z
				 M795.1,41.7c0.1-0.2,0.2-0.5,0.3-0.7h-0.2h-0.2c-0.1,0-0.1,0-0.1-0.1c-0.5,0-0.5-1-0.5-1.3c-0.1-0.1-0.1-0.2-0.1-0.3
				c0-0.5,0.3-0.8,0.3-1.4c0-0.3-0.1-1-1.5-1c-0.3,0-0.8,0-1.2,0.2l-0.7,0.3c-1.7,0.8-2.7,2-3.7,3.2l-0.2,0.3
				c-0.7,0.8-1.6,2.7-2.5,3.9c-0.8,1.1-0.9,1.7-1.1,2c-0.9,1.2-1.3,2.6-1.3,3.7c0,0.9,0.2,1.4,0.6,1.6c0.3,0.2,0.9,0.4,1,0.4
				c1.9-0.5,2.6-1.4,3.1-1.7c0.6-0.2,3.4-2.3,4.3-3.3c0.3-0.4,0.2-0.2,0.7-0.8l0.6-0.8c0.3-0.4,0.2-0.3,0.5-0.8
				c0.9-1.2,1.1-2,1.4-2.6C794.7,42.5,794.9,42.1,795.1,41.7z"/>
			<path class="st0" d="M816.2,51.9c-0.1,0.2-0.2,0.4-0.2,0.6l1-0.8c1.8-2.8,9.6-9.9,11-11.3l0.2-0.2c0.9-1,2.3-1.9,2.6-2.2
				c0.2-0.2,0.3-0.5,0.5-0.5c0.8-0.1,1.4-1.2,1.9-1.2c0.5,0.2,0.3,0.2,0.5,0.4c0.2,0,1,0.5,1.1,0.7c0,0.2,0,0.4-0.1,0.5
				c0,0.1,0.2,0.4,0.2,0.6c0,0.1-0.1,0.2-0.2,0.3l-0.5,0.7c-0.2,0.4-0.4,0.7-0.4,0.8l-1.3,2.4c0,0.2-0.1,0.3-0.2,0.5
				c-0.1,0.2-0.2,0.3-0.2,0.5c-0.1,0.1-0.1,0.2-0.2,0.2l-0.3,0.5c-0.2,0.3-0.3,0.5-0.3,0.6c0,0.2-0.9,2.1-0.9,2.4
				c-0.2,0.7-0.5,2.1-0.5,2.7c0,0.6,0.2,0.9,0.3,1.4c0,0.1,0.3,0.4,0.6,0.4s0.6-0.1,0.9-0.2c0.5-0.2,0.6-0.3,1.4-1.1
				c0-0.2,1.9-1.6,2-1.6c0.2,0,0.2-0.1,0.2-0.2c0.2-0.4,0.3-0.6,0.5-0.6c0.2,0,0.2,0.2,0.2,0.4c-0.2,0.4-0.8,0.5-0.8,0.8
				c0,0.2-0.9,0.9-1.4,1.4l-0.4,0.2c0,0.2,0,0.2-0.1,0.2c-1.1,0.6-2.4,2.1-4,2.1c-0.5,0-1.3-0.4-1.4-0.4c-0.1,0-0.2-0.1-0.2-0.1
				c-0.1,0-0.3-0.8-0.6-0.8c-0.2-0.1-0.3-0.3-0.3-0.7V50c0-1.8,0.4-3.6,0.9-5.1c0.2-0.1,0.2-0.2,0.2-0.5c0-0.2,0.6-1.6,0.8-1.8
				c0-0.1,0.1-0.1,0.1-0.3l0.8-1.5c0.2-0.5,0.5-0.9,0.8-1.4c-0.4,0.2-0.8,0.5-1.2,0.8c-0.7,0.5-1.7,1.2-2.5,2.4
				c-0.2,0-2.6,2.3-2.7,2.4c-0.8,0.5-3.6,4-3.7,4l-0.6,0.3c-0.1,0.1-0.2,0.1-0.2,0.2c0.1,0.1-3.9,4.9-4.9,4.9
				c-0.1,0-0.2-0.2-0.4-0.2h-0.4c-1.1,0-1.4-1.1-1.4-1.4c0-0.2,0.2-0.2,0.2-0.5c0-1.1,0.6-1.4,0.6-1.7c0.1-0.2,0.3-1,0.5-1.2
				c0.2-0.2,0.3-0.3,0.3-0.4l1.2-2.4c0.1-0.2,0.5-0.2,0.5-0.5c0.1-0.5,0.3-0.8,0.5-1.2c0.2-0.2,0.3-0.4,0.5-0.5c0-0.1,0-0.2,0.1-0.2
				c0.1-0.2,0.2-0.3,0.4-0.7l2.7-4.2l-1.6,1.8l-0.6,0.6c-0.7,0.5-1.6,1.7-1.8,1.9c-0.9,0.8-1.7,1.5-2.2,2l-0.9,0.9l-0.3,0.3
				c-0.2,0.2-0.4,0.4-0.6,0.5c-0.1,0.1-0.2,0.2-0.3,0.2c-0.2,0-0.2-0.1-0.2-0.2c0-0.2,0.1-0.3,0.2-0.5c0,0,2.1-1.8,2.7-2.7l0.5-0.5
				c0.2-0.4,5.2-5,5.6-6.1c0.2-0.5,0.8-0.6,0.8-0.8c0-0.2,0.2-0.5,0.5-0.8c1.4-2,2.2-3.5,4.5-7l0.5-1c0.1-0.2,0-0.2,0.3-0.5
				c0.3-0.3,0.8-0.9,0.8-1.4c0.8-1.6,2-3.3,2.5-4.2c0-0.2,0.2-0.6,0.3-0.7c0.6-0.3,0.8-1.1,1-1.5c2.2-3.4,3.6-5.3,3.6-5.5
				c0-0.1,0.4-0.8,0.7-1c0.2-0.1,1-1.1,1.2-1.3c0.5-0.7,1.1-1.1,1.7-1.8c0.1-0.2,1.4-0.9,2-1.6c0.2-0.2,0.8-0.5,1.1-0.5
				c0.8-0.3,1.1-0.8,2-0.8c0.4,0,0.7,0.3,1.1,0.8v0.3c0,0.2,0,0.3,0.1,0.3C845,8.8,845,8.8,845,8.9v0.3c0,0.8-0.1,1.7-0.7,3.3
				c-0.2,0.5-0.5,1.1-0.5,1.4c-1.2,2.2-3.6,5.2-4.8,6.4l-3.2,3.4c-0.8,0.8-1.3,1.4-1.8,2l-0.7,0.9v0.2c0,0.1-0.1,0.1-0.2,0.1
				c-0.3,0-0.5,0.5-0.7,0.7c-1,1.1-2.4,2.2-4.5,4.3c-0.3,0.3-1.1,0.8-1.5,1.7l-0.3,0.5c-1.2,1.9-4,6.8-4.3,7.1
				c-0.1,0.1-0.2,0.8-0.5,1c-0.2,0.2-0.9,1.4-1,1.4c-0.1,0.1-0.2,0.4-0.5,0.8c0.1-0.2-0.8,1.5-1.9,3.6c-0.2,0.4-1.4,2.6-1.6,3
				C816.3,51.3,816.3,51.6,816.2,51.9z M832.3,26.6c0.1-0.2,0.2-0.3,0.5-0.5l0.3-0.3c0.6-0.7,1.2-1.4,1.7-2c0.9-1.1,1.9-2.3,2.4-2.9
				c0.1-0.2,0.3-0.2,0.5-0.4c0.8-1.1,1-0.8,1.1-1.1c0-0.5,1.4-2.2,1.6-2.6c2.4-3,2.8-5.2,2.8-5.5c-0.1,0-0.1,0-0.1-0.1v-0.2
				c0-0.5,0.3-0.8,0.3-1.3c0-0.2-0.1-0.4-0.2-0.4c-1.2,0-6.1,6.2-6.2,6.4c-0.1,0.1-0.5,1-0.7,1.1c-0.2,0.1-0.4,1-0.8,1.2
				c-0.2,0.2-1.1,1.6-1,1.5c0.2-0.2-3.1,5.2-3.6,6c-0.1,0.1-0.3,0.5-0.5,0.8l-0.5,0.8c-0.1,0.2-0.7,1.1-1.3,2
				c-0.4,0.5-0.8,1.2-1.1,1.9c0.9-0.8,1.7-1.6,2.4-2.3L832.3,26.6z M837.4,46.9c0.2,0,0.2,0.1,0.2,0.3c-0.2,0.4-0.8,0.8-1.1,0.8
				C836.5,47.4,837.3,46.9,837.4,46.9z"/>
			<path class="st0" d="M844,40l0.8-0.5c0.2-0.3,0.7-1.4,1-1.4c0.1-0.1,0.5-0.2,0.7-0.2c0.6-0.6,1.1-0.9,1.6-0.9
				c0.9,0,0.9,1.2,0.9,1.7c-0.4,0.2-0.6,0.5-0.7,1.1h-0.1c-0.1,0-0.2,0.1-0.2,0.2c0,0.1-1.5,2.7-3.6,5.6c-0.1,0.1-0.1,0.6-0.4,0.9
				c-0.1,0.1-0.1,0.2-0.3,0.4c-0.1,0.1-0.2,0.2-0.2,0.4c0,0.3-0.1,0.3-0.1,0.4c0,0.1-0.7,0.8-0.7,1.4c0,0.1-0.2,0.8-0.5,1
				c-0.2,0.1-0.2,0.3-0.2,0.5l-0.2,0.8c0,0.7,0.2,1.1,0.5,1.1c0.2,0,0.2,0.1,0.4,0.1c1.8,0.1,4.6-2.4,4.6-2.4l2.2-1.8
				c0.1-0.2,0.7-0.6,0.9-0.8c0.2-0.2,0.4-0.5,0.7-0.5c0.1,0,0.2,0.1,0.2,0.2c0,0.5-1.9,2.1-2,2.1c0.1-0.1-0.6,0.5-0.9,0.8
				c-1.1,0.8-2.4,2.3-3,2.5c-1.6,0.6-1.7,1.5-4.5,1.5c-1.7,0-2-1.1-2-1.3c-0.1-0.1-0.1-0.3-0.1-0.5v-0.4c0-0.1,0-0.1,0.1-0.2
				c-0.1-0.1-0.1-0.1-0.1-0.2c-0.1-0.1-0.1-0.2-0.1-0.4c0-0.2,0.1-0.5,0.2-1c0.5-0.5,0.2-0.6,0.4-0.8l0.5-0.8c3.2-5,3.7-5.9,4.3-7.1
				l-1.4,1.1c-0.8,0.7-1.7,1.5-2.4,2.4c-0.2,0.2-0.8,0.5-1.1,0.8c-1.1,1-1.5,1.7-2,1.9c-0.1,0-0.2,0-0.2-0.1
				c-0.1-0.1-0.1-0.2-0.1-0.2c0.2-0.3,0.6-0.6,0.7-0.8c0-0.1,0.1-0.2,0.2-0.2c0.1-0.1,0.1-0.1,0.2-0.1c0.3-0.2,0.8-0.8,1.1-1
				c1.2-1.1,2.6-2.6,2.8-2.8C842.2,41.9,843.6,40.6,844,40z M849.2,32.4V32c0-0.2,0.1-0.3,0.2-0.4c0.2-0.1,0.2-0.2,0.4-0.5
				c0.3-0.3,0.7-0.5,1.1-0.5c0.2,0,0-0.4,0.7-0.5c0.2,0,0.4-0.2,0.6-0.2c0.6,0,1.1,0.4,1.1,1v0.4c0,0.2,0,0.5-0.3,1
				c-0.2,0.2-0.5,0-0.5,0.2c0,0.7-0.5,1.1-1.6,1.1c-0.7,0-1.2-0.2-1.5-0.7C849.3,32.8,849.2,32.6,849.2,32.4z"/>
			<path class="st0" d="M856.2,46.2L856.2,46.2c-0.2,0-0.3-0.1-0.3-0.2h0.1c0.1,0,0.1-0.1,0.2-0.1c0.3-0.2,0.8-0.8,1.4-0.8h0.7
				c-0.1-0.1-0.1-0.2-0.1-0.2c0-0.2,1.3-0.8,1.6-0.8c0.6-0.2,0.8-0.6,1.4-0.8c0.8-0.2,0.1-0.1,1.3-0.9c0.1-0.2,0.8-0.6,0.8-1.1
				l0.8-1.3c0.2-0.2,0.4-1.1,0.4-1.7c0-0.4-0.1-0.7-0.2-0.8c-0.2-0.1-0.4-0.2-0.5-0.2h-0.4c-0.5,0-1.5,0.5-2.7,1.6
				c-0.2,0.2-0.5,0.1-0.7,0.3l-0.2,0.2c-0.8,0.8-1.8,2-2.7,3.3c-0.2,0.2-1.3,2.2-1.4,2.4c-0.5,0.4-0.2,0.9-0.5,1.4
				c-0.5,0.8-0.3,1.2-0.5,1.8c-0.1,0.3-0.2,0.5-0.2,0.8c0,0.5,0.2,1,0.2,1.1c0,0.4,0.2,0.9,0.4,1l0.2,0.2c-0.1,0,0,0.1,0.2,0.2
				c0.6,0.8,1.6,0.9,2.2,0.9c0.4,0,0.8-0.1,1.1-0.2c0.8-0.2,1.7-0.2,2.2-0.8c0.2-0.2,0.3-0.2,0.5-0.2c0.1,0,0.8-0.5,1.3-0.7
				c0.5-0.2,0.8-0.5,1.2-0.8c0.2-0.2,0.6-0.4,0.6-0.5c0-0.2,0.4-0.2,0.6-0.4c0.4-0.3,0.6-0.8,0.8-0.9c0.2-0.1,0.8-0.6,1.2-0.9
				c0.2-0.2,0.5-0.4,0.7-0.4c0.2,0,0.2,0.1,0.2,0.2c0,0.1-0.2,0.3-0.5,0.6c-0.5,0.5-1,0.9-1.5,1.4c-0.9,0.8-2,1.7-3,2.3
				c-0.2,0.2-0.8,0.6-1.7,1.1c-0.7,0.4-2.2,1.1-2.4,1.1c-0.5,0.1-0.5,0.2-1.1,0.2c-0.2,0-0.2,0.1-0.4,0.1h-0.5
				c-0.1,0-0.6,0.2-1.4,0.2c-0.5,0-0.9-0.1-1.4-0.2c-1.6-0.5-2.6-1.6-2.7-4.9c0.1-0.9,0.5-1.9,0.8-2.6c-0.5,0.2-1.2,1.2-1.5,1.2
				c-0.2,0-0.3-0.1-0.3-0.2c0-0.2,0.1-0.3,0.2-0.5c0.9-0.9,2-2.2,2.5-2.8c0.3-0.1,0.2-0.2,0.4-0.7l0.7-0.6l0.5-0.8
				c0.9-0.9,1.7-1.3,1.7-1.5c1.1-1.2,2.7-2.2,3-2.3c0.2-0.1,1.2-0.9,1.4-0.9c0.2-0.1,1-0.8,1.2-0.8s0.4-0.4,1.3-0.4
				c0.1,0,0.3-0.1,0.4-0.1c0.2,0,0.4-0.1,0.5-0.1h0.4c0.2,0,0.4,0.1,0.6,0.3l0.3,0.3h0.1c0.1,0,0.1-0.1,0.2-0.1
				c0.4,0,1.1,0.7,1.4,0.9l0.2,0.5c0.1,0.1,0.1,0.2,0.1,0.4c0,0.3-0.1,0.8-0.1,0.7c0.1,0.1,0.1,0.2,0.1,0.5c0,0.2,0,0.5-0.1,0.5
				c-0.1,0.2-0.2,0.5-0.5,0.8c-0.1,0.1-0.5,0.4-0.5,0.5c0.1,0.2-0.4,0.4-0.9,0.8l-0.7,0.4c-0.3,0.2-1.2,0.6-1.4,0.8
				c-0.2,0-0.2,0.1-0.3,0.1h-0.1c-0.2,0.1-0.4,0.2-0.6,0.4c-0.4,0.2-1.1,0.5-1.9,0.8c-0.1,0.1-0.1,0.1-0.2,0.1h-0.4
				c-0.2,0-0.7,0.3-0.8,0.3c-0.2,0-0.4,0.1-0.5,0.2c-0.1,0.1-0.2,0.2-0.3,0.2c-0.3,0.4-1.9,0.8-2.1,0.8
				C856.3,46.2,856.3,46.2,856.2,46.2z M857.6,58.3c0.8,0,1.4,0.4,1.7,0.4c0.5,0,0.4,0.5,0.7,0.8c0.2,0.2,0.3,0.5,0.3,0.9
				c0,0.2-0.2,0.5-0.2,0.7c-0.2,0.3-0.8,1.5-2,1.5c-0.2,0-0.4-0.1-0.5-0.2c-0.7,0-1.4-0.1-1.5-0.6c0-0.2-0.4-0.5-0.4-0.7
				c0-0.1,0.1-0.2,0.1-0.3c-0.1-0.1-0.2-0.2-0.2-0.8c0-0.1,0.1-0.2,0.2-0.5C856.2,58.5,856.9,58.3,857.6,58.3z M868.7,29.8
				c0.3,0.5,0.9,1.5,1.3,1.9c0.2,0,0.2,0.4,0.2,0.6l0.2,0.4c0.2,0.1,0.2,0.4,0.8,0.9c0.2,0.2,0.2,0.5,0.2,0.8c0,0.1-0.1,0.2-0.2,0.2
				l-0.2,0.2c-0.2,0.2-0.2,0.5-0.8,0.5h-0.4c-0.2,0-0.3,0-0.3-0.1c-0.2-0.2-0.4-0.2-0.7-0.6c-0.5-0.6-0.3-0.6-0.9-1.5l-0.5-0.8
				c-0.2-0.2-0.2-0.3-0.4-0.5c-0.2-0.1-0.3-0.2-0.4-0.4c-0.1-0.1-0.1-0.2-0.1-0.2l-0.3,0.2c-0.2,0.1-0.4,0.3-0.6,0.4
				c-0.2,0.1-0.6-0.1-1,0.3c-0.5,0.4-1,0.5-1.4,0.7c-0.2,0.1-0.4,0.2-0.6,0.2c-0.3,0.2-0.6,0.6-1.1,0.6c-0.4,0.2-0.6,0.4-0.8,0.4
				h-0.4c-0.1-0.1-0.1-0.2-0.1-0.4c0.2-0.3,0.8-0.4,1-0.6c0-0.2,0.5-0.5,0.8-0.5c0-0.1,0.6-0.5,1.1-0.8c0.3-0.2,0.7-0.5,1.1-0.7
				c0.5-0.3,1-0.7,1.5-1.1c0.2-0.2,0.5-0.4,0.8-0.6l0.4-0.2h0.3c0.2,0,0.3-0.1,0.4-0.1c0.2,0,0.2,0,0.3,0.1L868.7,29.8z"/>
			<path class="st0" d="M868.1,46.6l0.5-0.5l0.6-0.7c1.4-1.4,2.5-2.9,3.4-3.8c0.4-0.4,0.4-0.5,0.6-0.8c0.2-0.4,0.4-0.4,0.4-0.6
				c0-0.1,0-0.2,0.1-0.2c0.7-1.1,1.1-2,1.6-2.8c0.2-0.4,0.3-1,0.3-1.7c0-0.3,0.5-0.4,0.5-0.4c0.2,0.1,1,1.1,1.4,1.4
				c0.5,0.1,0.7,0.5,0.7,1.1c-0.5,1.1-0.9,1.8-1.1,2c-0.5,0.4-1.2,2-2.4,3.7c-0.3,0.5-0.3,0.8-0.8,1.3c-0.2,0.2-0.5,0.8-0.8,1.4
				c-0.2,0.5-0.8,1.8-1.1,2.4c-0.1,0.1-0.2,0.2-0.2,0.5c0,0.2-0.2,0.5-0.2,0.6c-0.1,0.2-0.3,0.6-0.3,1.2c0,0.2,0.1,0.2,0.1,0.5
				c0,0.2,0.1,0.3,0.2,0.5c0.2,0.4,0.7,0.5,1.2,0.5c1.3,0,2.1-0.7,2.4-0.9s0.8-0.7,0.9-0.7c0.4-0.2,0.8-0.6,1.2-0.9
				c2.4-1.8,4.1-4,4.9-4.9c0.2-0.2,0.2-0.5,0.5-0.8c0.2-0.2,0.3-1.1,1.1-2L885,40c0.3-0.5,0.5-0.9,1.1-1.7c0.1-0.2,0.7-0.6,0.9-0.6
				c0.5,0,1.6,0.2,1.6,0.8c0,0.1-0.1,0.2-0.1,0.4c0,0.1,0,0.2,0.1,0.2c0,0.1-0.1,0.7-0.7,1.3c-0.3,0.3-1.2,2-1.7,2.4
				c-0.2,0.2-0.2,0.6-0.3,0.7c-0.4,0.8-1.2,2.1-2.4,4.3c0,0.3-0.6,1.2-0.7,1.4c-0.1,0.6-0.7,1.4-0.7,2.3c0,0.4,0.1,0.8,0.7,0.8
				c0.2,0,0.5-0.1,0.9-0.3c0.4-0.2,0.8-0.5,1.1-0.7c0.2-0.1,0.4-0.2,0.5-0.3c0.5-0.5,1.3-1,3.1-2.6c0.5-0.5,1.1-1,1.3-1.2
				c0.3-0.2,0.4-0.5,0.6-0.5c0.2,0,0.2,0.1,0.2,0.2c0,0.2-0.1,0.2-0.2,0.3c-0.4,0.6-2.4,2.4-2.9,3c-0.6,0.5-1.1,1-1.4,1.2
				c-0.4,0.2-0.9,0.8-1.5,1.3l-0.8,0.5c-0.5,0.2-0.9,0.5-1.2,0.5c-0.2,0.1-0.4,0.2-0.5,0.2h-0.5c-0.2,0-0.2-0.1-0.5-0.1
				c-0.8,0-0.7-0.5-1.1-0.8c-0.2-0.1,0-0.4-0.2-0.5c-0.2-0.2-0.4-1.1-0.4-1.3c0-0.3,0.2-0.4,0.2-0.9c0.3-0.8,0.7-1.6,1-2.2
				c0.2-0.4,0.4-0.7,0.6-1c-0.5,0.5-0.9,1-1.4,1.4c-0.8,0.8-1.6,1.5-1.8,1.7l-0.4,0.3c-0.1,0.1-0.3,0.2-0.5,0.5l-1,0.8
				c-1.1,0.9-2.9,2-4.3,2h-0.5c-0.5,0-0.7,0-0.7-0.1c-0.1-0.2-0.5-0.2-0.5-0.2c-0.2-0.2-0.8-0.3-0.8-0.5c-0.1-0.2-0.5-0.8-0.5-1.1
				c0-0.1-0.1-0.4-0.1-0.6V51c-0.1-0.1-0.2-0.2-0.2-0.4c0-0.2,0.1-0.4,0.2-0.6c0.1-0.3-0.1-0.8,0.2-1.2c0.4-0.8,0.6-1.8,1.1-2.4
				c0.2-0.2,0.3-0.6,0.5-0.9l1-1.4l-2.1,2c-0.5,0.6-1.2,1.3-1.5,1.3c-0.1,0-0.2-0.1-0.2-0.2c0-0.1,0.1-0.2,0.3-0.5L868.1,46.6z"/>
			<path class="st0" d="M903.6,16.4c0.2-0.2,0.5-0.3,0.7-0.3c0.1,0,0.2,0.1,0.5,0.2c0.2,0.1,0.4,0.4,0.6,0.4c0.5,0,0.6,0.4,0.7,0.5
				c0.2,0.2,0.8,0.8,0.8,1.9c0,0.3,0,0.5-0.1,0.7c-0.4,1.5-0.7,1.9-1.2,2.6c-0.4,0.4-3,2.7-3.7,2.7c-0.1,0-0.2-0.1-0.2-0.2
				c0-0.2,0.4-0.6,0.5-0.7c0.4-0.2,1.8-1.1,2.2-2.3c0.4-0.4,0.2-0.8,0.4-1.4c0-0.1,0-0.2-0.1-0.2c-0.1-0.1-0.2-0.2-0.5-0.3
				c-0.5-0.2-1.3-1.2-1.5-1.8v-0.3c0-0.3,0.1-0.8,0.8-1.1C903.5,16.6,903.6,16.4,903.6,16.4z M911.3,16.1l0.2,0.2
				c0,0.3,0.1,0.1,0.3,0.3c0.2,0.1,0.4,1.6,0.6,1.8c0.1,0.1,0.2,0.3,0.2,0.6s-0.2,0.7-0.2,0.9c-0.2,0.5-0.2,0.8-1.1,1.7
				c-1,1.2-3.9,3.3-3.9,3.2c-0.1,0-0.2,0-0.2-0.1c-0.1,0-0.1,0-0.1-0.1c0-0.4,0.5-0.9,0.8-1c0.2-0.1,0.5-0.3,0.5-0.3
				c0-0.1,0-0.1,0.1-0.2c0.1-0.1,0.1-0.2,0.3-0.3c0.2-0.1,0.3-0.3,0.6-0.5c0.2,0,0.6-0.5,0.7-0.8c0.2-0.3,0.2-0.7,0.2-1.1
				c0-0.4-0.3-0.8-0.8-1.4c-0.1,0-0.4,0-0.4-0.2c-0.1-0.7-0.6-0.2-0.6-1.1c0-0.3,0.7-1.9,1.9-2.1C910.8,15.7,911.1,15.9,911.3,16.1z
				"/>
		</g>
	</g>
</g>
<g>
</g>
<g>
</g>
<g>
</g>
<g>
</g>
<g>
</g>
<g>
</g>
<g>
</g>
<g>
</g>
<g>
</g>
<g>
</g>
<g>
</g>
<g>
</g>
<g>
</g>
<g>
</g>
<g>
</g>
</svg>
