<?xml version="1.0" encoding="utf-8"?>
<!-- Generator: Adobe Illustrator 22.0.1, SVG Export Plug-In . SVG Version: 6.00 Build 0)  -->
<svg version="1.1" id="Layer_1" xmlns="http://www.w3.org/2000/svg" xmlns:xlink="http://www.w3.org/1999/xlink" x="0px" y="0px"
	 viewBox="0 0 845.7 158.3" style="enable-background:new 0 0 845.7 158.3;" xml:space="preserve">
<style type="text/css">
	.st0{fill:#2F2F34;}
	.st1{fill:#DA251D;}
</style>
<g>
	<path class="st0" d="M15.8,76.5c0-3.1,0.4-5.5,1.2-7.1c0.8-1.6,2.1-2.7,4.1-3.2l1.2,1.8c-1.3,0.6-2.2,1.4-2.6,2.5
		c-0.5,1.1-0.7,2.8-0.7,5h3v7.1h-6.1V76.5z M25.6,76.5c0-3.1,0.4-5.5,1.2-7.1c0.8-1.6,2.1-2.7,4.1-3.2l1.2,1.8
		c-1.3,0.6-2.2,1.4-2.6,2.5c-0.5,1.1-0.7,2.8-0.7,5h3v7.1h-6.1V76.5z"/>
	<path class="st0" d="M56.5,68.1H62l11.5,50.7l11.8-50.7h5.5l1.4,58.4h-4.5L86.5,80l-11.2,46.5h-3.5l-11-46.4l-1.2,46.4h-4.5
		L56.5,68.1z"/>
	<path class="st0" d="M102,124.5c-1.5-1.8-2.3-4-2.3-6.6c0-2.7,0.5-5,1.6-6.8c1.1-1.8,2.8-3.4,5-4.8c2.3-1.4,5.6-3.1,10.2-5.1v-3
		c0-2.6-0.2-4.6-0.5-6.1c-0.3-1.4-0.8-2.5-1.6-3.1c-0.7-0.6-1.8-0.9-3.1-0.9c-3.9,0-5.8,2.4-5.8,7.1v1.4l-5.2-0.1
		c0-4.3,1-7.4,2.7-9.4c1.8-2,4.6-3,8.6-3c3.7,0,6.3,1.1,7.8,3.3c1.6,2.2,2.3,5.7,2.3,10.5v20.3c0,1.3,0,2.9,0.1,4.6s0.2,3,0.3,3.7
		h-4.7l-0.8-5.8c-0.6,1.8-1.7,3.4-3.2,4.6c-1.5,1.2-3.3,1.8-5.4,1.8C105.5,127.1,103.5,126.2,102,124.5z M113.6,121.2
		c1.2-1,2.1-2.2,2.8-3.5v-13c-3.3,1.7-5.6,3.1-7.1,4c-1.5,1-2.6,2-3.3,3.2c-0.7,1.2-1.1,2.7-1.1,4.6c0,2.1,0.4,3.6,1.3,4.6
		c0.9,1,2,1.5,3.4,1.5C111.1,122.7,112.4,122.2,113.6,121.2z M114.7,67.2h5.3l-7.1,14.1h-2.7L114.7,67.2z"/>
	<path class="st0" d="M128.3,132.8c3.4,0,5.6-0.4,6.8-1.1s1.7-1.8,1.7-3.2c0-0.9-0.2-2.2-0.6-3.9c-0.4-1.7-0.7-2.7-0.8-3l-8.6-36.7
		h5.3l7.2,35.5l7-35.5h5.3l-10.1,44.6c-0.6,2.6-1.9,4.5-3.7,5.7c-1.9,1.2-4.6,1.7-8.1,1.7h-1.4V132.8z"/>
	<path class="st0" d="M171.7,68.1h5.3v37.1l13.9-20.3h5.6l-10.5,16.1l10.1,25.6h-5.3l-8.8-22.6l-4.9,6.8v15.8h-5.3V68.1z"/>
	<path class="st0" d="M200.5,68.1h5.3v21.1c3.1-3.4,6.5-5,10.2-5c2.1,0,3.7,0.8,4.8,2.3c1.1,1.5,1.7,3.7,1.7,6.6v33.5H217V94.2
		c0-2.1-0.3-3.6-1-4.5c-0.6-0.9-1.6-1.4-3-1.4c-1.2,0-2.4,0.4-3.6,1.1c-1.3,0.7-2.5,1.7-3.6,2.9v34.2h-5.3V68.1z"/>
	<path class="st0" d="M231.5,124.8c-1.1-1.5-1.7-3.7-1.7-6.6V84.8h5.3v32.3c0,2.1,0.3,3.6,1,4.5c0.6,0.9,1.6,1.3,3,1.3
		c1.2,0,2.4-0.4,3.7-1.1c1.3-0.7,2.5-1.7,3.6-3v-34h5.3v41.7h-5.3v-4.6c-1.4,1.6-3,2.9-4.7,3.9s-3.6,1.4-5.5,1.4
		C234.2,127.1,232.6,126.4,231.5,124.8z"/>
	<path class="st0" d="M263.8,125.5c-1.6-1.1-2.8-2.8-3.6-5.1c-0.8-2.4-1.2-5.6-1.2-9.6v-10.5c0-4.1,0.4-7.3,1.2-9.6
		c0.8-2.3,2-4,3.7-5c1.7-1,3.8-1.5,6.5-1.5c2.9,0,5.1,0.6,6.7,1.8c1.6,1.2,2.6,3.1,3.2,5.5c0.6,2.5,0.9,5.7,0.9,9.9v3.7h-16.9v7.3
		c0,4,0.5,6.8,1.4,8.4c0.9,1.6,2.5,2.4,4.6,2.4c1.8,0,3.2-0.6,4.2-1.7c1-1.2,1.5-3.2,1.5-6.3v-2.9h5.1v2.3c0,4-0.8,7.1-2.5,9.3
		c-1.7,2.2-4.4,3.2-8.3,3.2C267.6,127.1,265.5,126.6,263.8,125.5z M267.1,70.4h5.9l6.2,10.5h-3.9l-5.3-7.9l-5.3,7.9h-3.9L267.1,70.4
		z M276,102.1v-3.5c0-2.5-0.1-4.5-0.4-5.9c-0.3-1.4-0.8-2.6-1.6-3.4c-0.8-0.8-2-1.2-3.7-1.2c-1.5,0-2.7,0.3-3.5,1
		c-0.9,0.6-1.5,1.8-1.9,3.4c-0.4,1.6-0.6,3.9-0.6,6.8v2.8H276z M282,65.8h4.8l-5.1,8.3h-3.5L282,65.8z"/>
	<path class="st0" d="M291.6,125.1c-1.6-1.4-2.7-3.2-3.3-5.6c-0.6-2.3-0.8-5.3-0.8-8.8V101c0-4,0.3-7.3,1-9.7
		c0.6-2.4,1.8-4.2,3.4-5.4c1.6-1.2,3.9-1.8,6.8-1.8c4.1,0,6.9,1.1,8.4,3.4c1.5,2.2,2.2,5.6,2.2,10v2h-4.9v-2c0-2.5-0.2-4.3-0.5-5.7
		c-0.4-1.3-0.9-2.3-1.8-2.8c-0.8-0.6-1.9-0.8-3.4-0.8c-1.6,0-2.9,0.4-3.7,1.2c-0.8,0.8-1.4,2-1.7,3.6c-0.3,1.7-0.5,4-0.5,7.2v11.7
		c0,2.9,0.2,5.1,0.5,6.8c0.3,1.6,0.9,2.8,1.8,3.5s2.1,1.1,3.7,1.1c1.6,0,2.8-0.3,3.6-1c0.8-0.7,1.3-1.7,1.6-3.1
		c0.3-1.4,0.4-3.3,0.4-5.8v-2.3h4.9v2c0,3.1-0.3,5.7-0.8,7.8c-0.6,2-1.6,3.6-3.1,4.8c-1.5,1.2-3.7,1.7-6.6,1.7
		C295.6,127.1,293.3,126.4,291.6,125.1z"/>
	<path class="st0" d="M316.4,68.1h5.3v21.1c3.1-3.4,6.5-5,10.2-5c2.1,0,3.7,0.8,4.8,2.3c1.1,1.5,1.7,3.7,1.7,6.6v33.5H333V94.2
		c0-2.1-0.3-3.6-1-4.5c-0.6-0.9-1.6-1.4-3-1.4c-1.2,0-2.4,0.4-3.6,1.1c-1.3,0.7-2.5,1.7-3.6,2.9v34.2h-5.3V68.1z"/>
	<path class="st0" d="M364.8,124.6c-1.1-1.6-1.6-3.8-1.6-6.8V88.3H358v-3.5h5.1V71.9h5.3v12.9h6.9v3.5h-6.9v29.1
		c0,2.1,0.2,3.6,0.7,4.4c0.5,0.8,1.5,1.2,3,1.2c0.9,0,1.9-0.1,3-0.4v4c-1.5,0.3-3,0.4-4.5,0.4C367.8,127,365.9,126.2,364.8,124.6z"
		/>
	<path class="st0" d="M382.1,124.5c-1.5-1.8-2.3-4-2.3-6.6c0-2.7,0.5-5,1.6-6.8c1.1-1.8,2.8-3.4,5-4.8c2.3-1.4,5.6-3.1,10.2-5.1v-3
		c0-2.6-0.2-4.6-0.5-6.1c-0.3-1.4-0.8-2.5-1.6-3.1c-0.7-0.6-1.8-0.9-3.1-0.9c-3.9,0-5.8,2.4-5.8,7.1v1.4l-5.2-0.1
		c0-4.3,1-7.4,2.7-9.4c1.8-2,4.6-3,8.6-3c3.7,0,6.3,1.1,7.8,3.3c1.6,2.2,2.3,5.7,2.3,10.5v20.3c0,1.3,0,2.9,0.1,4.6s0.2,3,0.3,3.7
		h-4.7l-0.8-5.8c-0.6,1.8-1.7,3.4-3.2,4.6c-1.5,1.2-3.3,1.8-5.4,1.8C385.7,127.1,383.7,126.2,382.1,124.5z M393.8,121.2
		c1.2-1,2.1-2.2,2.8-3.5v-13c-3.3,1.7-5.6,3.1-7.1,4c-1.5,1-2.6,2-3.3,3.2c-0.7,1.2-1.1,2.7-1.1,4.6c0,2.1,0.4,3.6,1.3,4.6
		c0.9,1,2,1.5,3.4,1.5C391.3,122.7,392.6,122.2,393.8,121.2z M394.8,67.2h5.3L393,81.4h-2.7L394.8,67.2z"/>
	<path class="st0" d="M409.6,84.8h5.3v4.3c1.4-1.5,2.9-2.8,4.6-3.6c1.7-0.9,3.5-1.3,5.4-1.3c2.1,0,3.7,0.8,4.8,2.3
		c1.1,1.5,1.7,3.7,1.7,6.6v33.5H426V94.2c0-2.1-0.3-3.6-1-4.5c-0.6-0.9-1.6-1.4-3-1.4c-1.2,0-2.4,0.3-3.6,1
		c-1.3,0.7-2.5,1.6-3.6,2.8v34.3h-5.3V84.8z"/>
	<path class="st1" d="M463.3,120.6c-4.6-5.1-7-12-7-20.7V55.1c0-9,2.3-16.2,6.8-21.3c4.5-5.2,11.3-7.8,20.2-7.8
		c9,0,15.7,2.6,20.2,7.8c4.5,5.2,6.7,12.3,6.7,21.3V100c0,8.6-2.3,15.4-7,20.6c-4.7,5.2-11.3,7.8-19.9,7.8
		C474.6,128.3,468,125.8,463.3,120.6z M488.3,106.9c0.8-2.1,1.2-4.6,1.2-7.5V55.6c0-3.3-0.3-6-1-8.1c-0.7-2.2-2.4-3.2-5.1-3.2
		c-2.7,0-4.4,1.1-5.1,3.2c-0.7,2.1-1,4.9-1,8.2v43.9c0,7.1,2,10.6,6.1,10.6C485.9,110.1,487.5,109,488.3,106.9z"/>
	<path class="st1" d="M533.4,86.9c-4.9-0.2-8.5-1.8-10.9-4.7c-2.4-2.9-3.7-7.4-3.9-13.4l10.8-1.6c0,3.6,0.5,6.2,1.3,7.8
		c0.8,1.6,2,2.4,3.7,2.4c2.1,0,3.2-1.4,3.2-4.2c0-2.2-0.5-4.1-1.5-5.7s-2.6-3.3-4.7-5.2l-5-4.3c-2.5-2.3-4.5-4.5-5.8-6.6
		c-1.3-2.2-1.9-4.9-1.9-8.3c0-4.4,1.3-7.9,3.8-10.5c2.5-2.6,6-4,10.4-4.3v-6.7h3.6v6.6c4.8,0.3,8.1,2,9.8,5s2.6,6.8,2.7,11.1
		l-10.9,1.3c-0.1-3-0.4-5.2-0.8-6.5c-0.4-1.3-1.4-1.9-2.9-1.9c-1.1,0-2,0.5-2.6,1.4c-0.6,0.9-0.9,1.9-0.9,3.1c0,2,0.5,3.7,1.4,5
		s2.3,2.8,4.1,4.4l4.8,4.2c2.8,2.6,5,5.2,6.5,7.8c1.5,2.6,2.3,5.7,2.3,9.4c0,3.8-1.2,7-3.5,9.7c-2.3,2.7-5.5,4.2-9.4,4.6v7.1h-3.6
		V86.9z"/>
	<path class="st0" d="M570.7,68.1h5.3v58.4h-5.3V68.1z"/>
	<path class="st0" d="M585.7,124.5c-1.5-1.8-2.3-4-2.3-6.6c0-2.7,0.5-5,1.6-6.8c1.1-1.8,2.8-3.4,5-4.8c2.3-1.4,5.6-3.1,10.2-5.1v-3
		c0-2.6-0.2-4.6-0.5-6.1c-0.3-1.4-0.8-2.5-1.6-3.1c-0.7-0.6-1.8-0.9-3.1-0.9c-3.9,0-5.8,2.4-5.8,7.1v1.4l-5.2-0.1
		c0-4.3,1-7.4,2.7-9.4c1.8-2,4.6-3,8.6-3c3.7,0,6.3,1.1,7.8,3.3c1.6,2.2,2.3,5.7,2.3,10.5v20.3c0,1.3,0,2.9,0.1,4.6s0.2,3,0.3,3.7
		h-4.7l-0.8-5.8c-0.6,1.8-1.7,3.4-3.2,4.6s-3.3,1.8-5.4,1.8C589.2,127.1,587.2,126.2,585.7,124.5z M587.2,67.2h5.3l4,14.1h-2.7
		L587.2,67.2z M597.3,121.2c1.2-1,2.1-2.2,2.8-3.5v-13c-3.3,1.7-5.6,3.1-7.1,4c-1.5,1-2.6,2-3.3,3.2c-0.7,1.2-1.1,2.7-1.1,4.6
		c0,2.1,0.4,3.6,1.3,4.6c0.9,1,2,1.5,3.4,1.5C594.8,122.7,596.1,122.2,597.3,121.2z"/>
	<path class="st0" d="M631.2,125.1c-1.6-1.4-2.7-3.2-3.3-5.6c-0.6-2.3-0.8-5.3-0.8-8.8V101c0-4,0.3-7.3,1-9.7
		c0.6-2.4,1.8-4.2,3.4-5.4c1.6-1.2,3.9-1.8,6.8-1.8c4.1,0,6.9,1.1,8.4,3.4c1.5,2.2,2.2,5.6,2.2,10v2h-4.9v-2c0-2.5-0.2-4.3-0.5-5.7
		s-0.9-2.3-1.8-2.8s-1.9-0.8-3.4-0.8c-1.6,0-2.9,0.4-3.7,1.2c-0.8,0.8-1.4,2-1.7,3.6c-0.3,1.7-0.5,4-0.5,7.2v11.7
		c0,2.9,0.2,5.1,0.5,6.8s0.9,2.8,1.8,3.5s2.1,1.1,3.7,1.1c1.6,0,2.8-0.3,3.6-1c0.8-0.7,1.3-1.7,1.6-3.1c0.3-1.4,0.4-3.3,0.4-5.8
		v-2.3h4.9v2c0,3.1-0.3,5.7-0.8,7.8c-0.6,2-1.6,3.6-3.1,4.8s-3.7,1.7-6.6,1.7C635.2,127.1,632.8,126.4,631.2,125.1z"/>
	<path class="st0" d="M657.5,123.3c-1.6-2.6-2.5-6.5-2.5-11.9V99.9c0-5.3,0.8-9.3,2.5-11.9c1.6-2.6,4.5-3.9,8.7-3.9
		c4.2,0,7.1,1.3,8.7,3.9c1.6,2.6,2.5,6.5,2.5,11.9v11.5c0,5.3-0.8,9.3-2.5,11.9c-1.6,2.6-4.5,3.9-8.7,3.9
		C662.1,127.1,659.2,125.8,657.5,123.3z M670.1,121.8c0.8-0.9,1.4-2.2,1.6-3.7c0.2-1.6,0.4-3.7,0.4-6.4V99.6c0-2.7-0.1-4.8-0.4-6.4
		c-0.2-1.6-0.8-2.8-1.6-3.7c-0.8-0.9-2.1-1.4-3.9-1.4c-1.7,0-3,0.5-3.8,1.4c-0.8,0.9-1.3,2.2-1.6,3.7c-0.2,1.6-0.4,3.7-0.4,6.4v12.1
		c0,2.7,0.1,4.8,0.4,6.4c0.2,1.6,0.8,2.8,1.6,3.7c0.8,0.9,2.1,1.4,3.8,1.4C667.9,123.2,669.2,122.7,670.1,121.8z M669.4,67.2h5.3
		l-7.1,14.1h-2.7L669.4,67.2z"/>
	<path class="st0" d="M703.4,124.6c-1.1-1.6-1.6-3.8-1.6-6.8V88.3h-5.1v-3.5h5.1V71.9h5.3v12.9h6.9v3.5H707v29.1
		c0,2.1,0.2,3.6,0.7,4.4s1.5,1.2,3,1.2c0.9,0,1.9-0.1,3-0.4v4c-1.5,0.3-3,0.4-4.5,0.4C706.4,127,704.4,126.2,703.4,124.6z"/>
	<path class="st0" d="M719.6,68.1h5.3v21.1c3.1-3.4,6.5-5,10.2-5c2.1,0,3.7,0.8,4.8,2.3c1.1,1.5,1.7,3.7,1.7,6.6v33.5h-5.3V94.2
		c0-2.1-0.3-3.6-1-4.5c-0.6-0.9-1.6-1.4-3-1.4c-1.2,0-2.4,0.4-3.6,1.1c-1.3,0.7-2.5,1.7-3.6,2.9v34.2h-5.3V68.1z"/>
	<path class="st0" d="M750.4,124.5c-1.5-1.8-2.3-4-2.3-6.6c0-2.7,0.5-5,1.6-6.8c1.1-1.8,2.8-3.4,5-4.8c2.3-1.4,5.6-3.1,10.2-5.1v-3
		c0-2.6-0.2-4.6-0.5-6.1c-0.3-1.4-0.8-2.5-1.6-3.1c-0.7-0.6-1.8-0.9-3.1-0.9c-3.9,0-5.8,2.4-5.8,7.1v1.4l-5.2-0.1
		c0-4.3,1-7.4,2.7-9.4c1.8-2,4.6-3,8.6-3c3.7,0,6.3,1.1,7.8,3.3c1.6,2.2,2.3,5.7,2.3,10.5v20.3c0,1.3,0,2.9,0.1,4.6s0.2,3,0.3,3.7
		h-4.7l-0.8-5.8c-0.6,1.8-1.7,3.4-3.2,4.6c-1.5,1.2-3.3,1.8-5.4,1.8C754,127.1,751.9,126.2,750.4,124.5z M757,70.4h5.9l6.2,10.5
		h-3.9l-5.3-7.9l-5.3,7.9h-3.9L757,70.4z M762,121.2c1.2-1,2.1-2.2,2.8-3.5v-13c-3.3,1.7-5.6,3.1-7.1,4c-1.5,1-2.6,2-3.3,3.2
		c-0.7,1.2-1.1,2.7-1.1,4.6c0,2.1,0.4,3.6,1.3,4.6c0.9,1,2,1.5,3.4,1.5C759.6,122.7,760.9,122.2,762,121.2z M756.7,130.9h5.6v6.4
		h-5.6V130.9z"/>
	<path class="st0" d="M781.6,124.6c-1.1-1.6-1.6-3.8-1.6-6.8V88.3h-5.1v-3.5h5.1V71.9h5.3v12.9h6.9v3.5h-6.9v29.1
		c0,2.1,0.2,3.6,0.7,4.4c0.5,0.8,1.5,1.2,3,1.2c0.9,0,1.9-0.1,3-0.4v4c-1.5,0.3-3,0.4-4.5,0.4C784.6,127,782.7,126.2,781.6,124.6z"
		/>
	<path class="st0" d="M797.4,82.7c1.3-0.5,2.2-1.3,2.6-2.3c0.5-1.1,0.7-2.8,0.7-5.1h-2.9v-7.1h6.1v6.1c0,3.1-0.4,5.5-1.1,7.1
		c-0.7,1.6-2.1,2.7-4.1,3.3L797.4,82.7z M807.1,82.7c1.3-0.5,2.2-1.3,2.6-2.3c0.5-1.1,0.7-2.8,0.7-5.1h-2.9v-7.1h6.1v6.1
		c0,3.1-0.4,5.5-1.1,7.1c-0.7,1.6-2.1,2.7-4.1,3.3L807.1,82.7z"/>
</g>
<g>
</g>
<g>
</g>
<g>
</g>
<g>
</g>
<g>
</g>
<g>
</g>
<g>
</g>
<g>
</g>
<g>
</g>
<g>
</g>
<g>
</g>
<g>
</g>
<g>
</g>
<g>
</g>
<g>
</g>
</svg>
