<?xml version="1.0" encoding="utf-8"?>
<!-- Generator: Adobe Illustrator 22.0.1, SVG Export Plug-In . SVG Version: 6.00 Build 0)  -->
<svg version="1.1" id="Layer_1" xmlns="http://www.w3.org/2000/svg" xmlns:xlink="http://www.w3.org/1999/xlink" x="0px" y="0px"
	 viewBox="0 0 207 88.3" style="enable-background:new 0 0 207 88.3;" xml:space="preserve">
<style type="text/css">
	.st0{opacity:0.28;fill:#FCC21D;}
	.st1{fill:#FCC21D;}
	.st2{fill:#FFFFFF;}
</style>
<g>
	<path class="st0" d="M129.8,80.7c-21.1,0-63.7-1.1-80.3-2c-20.1-1.1-43.6-3.3-43.6-28c0-9.9,2-20.4,12.4-28
		C29.4,14.5,40.9,10,56.4,10c2.6,0,14.1,0.4,19,0.3c8.5-0.2,19-0.4,30.4-0.4c31.9,0,55.7,2.6,67.5,4.5c13.1,2.1,23.1,8.6,25.5,20.1
		c2.7,13.2,0.5,36.5-19.7,42.5C174.1,78.6,158.5,80.7,129.8,80.7z"/>
	<path class="st1" d="M173.3,71.2c-16.1,4.8-82.9,2.9-108.8,1.5c-25.6-1.4-48.6-6.6-48.6-23.1s9.3-32.1,46.3-32.8
		c15.2-0.3,69.3-0.8,91.4,0.7c20.8,1.5,39.3,11.2,39.3,26.1C192.9,53,188.3,66.7,173.3,71.2z"/>
	<g>
		<g>
			<path class="st2" d="M51.3,44.6L45.1,36H50l3.8,5.8l3.7-5.8h4.9l-6.2,8.6l6.5,9h-4.9l-4-6.2l-4,6.2h-4.9L51.3,44.6z"/>
			<path class="st2" d="M64.2,49.6v-4.7c0-1.6,0.5-2.8,1.6-3.6c1.1-0.7,2.7-1.1,4.9-1.1c2.1,0,3.6,0.4,4.6,1.1
				c1,0.7,1.4,1.9,1.4,3.6v3.2h-8.5v1.2c0,0.8,0.3,1.3,0.8,1.6c0.5,0.3,1.5,0.5,2.9,0.5c1.3,0,2.8-0.2,4.4-0.6v2.5
				c-1.6,0.3-3.3,0.5-5.1,0.5C66.5,53.8,64.2,52.4,64.2,49.6z M72.9,45.8v-1.9c0-0.4-0.2-0.8-0.5-1c-0.4-0.2-0.9-0.3-1.8-0.3
				c-1,0-1.6,0.1-1.9,0.3c-0.3,0.2-0.5,0.6-0.5,1v1.9H72.9z"/>
			<path class="st2" d="M79.7,40.5h4v1.6c0.3-1.2,1.5-1.9,3.9-1.9c1.2,0,2.2,0.2,2.8,0.5c0.6,0.3,1.1,0.8,1.3,1.5
				c0.2-0.7,0.6-1.2,1.3-1.5s1.6-0.5,2.8-0.5c1.1,0,2,0.1,2.6,0.4c0.6,0.3,1,0.7,1.3,1.2c0.2,0.5,0.4,1.3,0.4,2.2v9.6h-4v-9.1
				c0-0.6,0-1-0.1-1.2c-0.1-0.2-0.2-0.4-0.5-0.5c-0.2-0.1-0.7-0.1-1.3-0.1c-0.7,0-1.3,0-1.6,0.1c-0.3,0.1-0.5,0.3-0.6,0.5
				c-0.1,0.2-0.1,0.7-0.1,1.2v9.1h-4v-9.1c0-0.6,0-1-0.1-1.2c-0.1-0.2-0.2-0.4-0.5-0.5c-0.2-0.1-0.7-0.1-1.3-0.1
				c-0.7,0-1.3,0-1.6,0.1c-0.3,0.1-0.5,0.3-0.6,0.5s-0.1,0.7-0.1,1.2v9.1h-4V40.5z"/>
			<path class="st2" d="M113.9,39h-5.4v-3h15v3h-5.4v14.6h-4.2V39z"/>
			<path class="st2" d="M125.8,34.6h4v7.4c0.3-1.2,1.6-1.9,4.1-1.9c1.7,0,2.9,0.3,3.5,0.9s1,1.6,1,2.9v9.6h-4v-9.1
				c0-0.5,0-0.9-0.1-1.1c-0.1-0.2-0.3-0.4-0.6-0.5c-0.3-0.1-0.7-0.1-1.4-0.1c-0.8,0-1.3,0-1.7,0.1c-0.4,0.1-0.6,0.3-0.7,0.5
				c-0.1,0.2-0.2,0.6-0.2,1.2v9.1h-4V34.6z"/>
			<path class="st2" d="M141.5,49.6v-4.7c0-1.6,0.5-2.8,1.6-3.6c1.1-0.7,2.7-1.1,4.9-1.1c2.1,0,3.6,0.4,4.6,1.1
				c1,0.7,1.4,1.9,1.4,3.6v3.2h-8.5v1.2c0,0.8,0.3,1.3,0.8,1.6c0.5,0.3,1.5,0.5,2.9,0.5c1.3,0,2.8-0.2,4.4-0.6v2.5
				c-1.6,0.3-3.3,0.5-5.1,0.5C143.8,53.8,141.5,52.4,141.5,49.6z M145.1,35.2h5.1l1.6,3.4h-2.7l-1.4-2.4l-1.4,2.4h-2.7L145.1,35.2z
				 M150.2,45.8v-1.9c0-0.4-0.2-0.8-0.5-1c-0.4-0.2-0.9-0.3-1.8-0.3c-1,0-1.6,0.1-1.9,0.3c-0.3,0.2-0.5,0.6-0.5,1v1.9H150.2z"/>
			<path class="st2" d="M157,40.5h4v1.6c0.3-1.2,1.5-1.9,3.9-1.9c1.2,0,2.2,0.2,2.8,0.5c0.6,0.3,1.1,0.8,1.3,1.5
				c0.2-0.7,0.6-1.2,1.3-1.5s1.6-0.5,2.8-0.5c1.1,0,2,0.1,2.6,0.4c0.6,0.3,1,0.7,1.3,1.2c0.2,0.5,0.4,1.3,0.4,2.2v9.6h-4v-9.1
				c0-0.6,0-1-0.1-1.2c-0.1-0.2-0.2-0.4-0.5-0.5c-0.2-0.1-0.7-0.1-1.3-0.1c-0.7,0-1.3,0-1.6,0.1c-0.3,0.1-0.5,0.3-0.6,0.5
				c-0.1,0.2-0.1,0.7-0.1,1.2v9.1h-4v-9.1c0-0.6,0-1-0.1-1.2c-0.1-0.2-0.2-0.4-0.5-0.5c-0.2-0.1-0.7-0.1-1.3-0.1
				c-0.7,0-1.3,0-1.6,0.1c-0.3,0.1-0.5,0.3-0.6,0.5s-0.1,0.7-0.1,1.2v9.1h-4V40.5z"/>
		</g>
	</g>
</g>
<g>
</g>
<g>
</g>
<g>
</g>
<g>
</g>
<g>
</g>
<g>
</g>
<g>
</g>
<g>
</g>
<g>
</g>
<g>
</g>
<g>
</g>
<g>
</g>
<g>
</g>
<g>
</g>
<g>
</g>
</svg>
